{
.appVersion = "1342";
DisplayStrings = (

glyphs = (
{
glyphname = .notdef;
layers = (
{
layerId = "3B122060-26E0-4730-9241-82784E6CB359";
paths = (
{
closed = 1;
nodes = (
"954 0 LINE",
"954 1600 LINE",
"140 1600 LINE",
"140 0 LINE"
);
},
{
closed = 1;
nodes = (
"541 705 LINE",
"826 76 LINE",
"256 76 LINE"
);
},
{
closed = 1;
nodes = (
"220 1411 LINE",
"497 801 LINE",
"220 191 LINE"
);
},
{
closed = 1;
nodes = (
"584 802 LINE",
"874 1440 LINE",
"874 163 LINE"
);
},
{
closed = 1;
nodes = (
"257 1524 LINE",
"824 1524 LINE",
"541 898 LINE"
);
}
);
width = 1094;
},
{
background = {
paths = (
{
closed = 1;
nodes = (
"410 0 LINE",
"410 492 LINE",
"354 1336 LINE",
"446 1336 LINE",
"532 472 LINE",
"654 0 LINE",
"1026 0 LINE",
"1160 472 LINE",
"1244 1336 LINE",
"1338 1336 LINE",
"1280 492 LINE",
"1280 0 LINE",
"1590 0 LINE",
"1590 1600 LINE",
"1050 1600 LINE",
"916 994 LINE",
"892 264 LINE",
"800 264 LINE",
"774 994 LINE",
"642 1600 LINE",
"100 1600 LINE",
"100 0 LINE"
);
}
);
};
layerId = "1DFA7D5B-2E97-4B89-827F-FB43F8066DC1";
paths = (
{
closed = 1;
nodes = (
"1590 0 LINE",
"1590 1600 LINE",
"100 1600 LINE",
"100 0 LINE"
);
},
{
closed = 1;
nodes = (
"846 566 LINE",
"1103 264 LINE",
"589 264 LINE"
);
},
{
closed = 1;
nodes = (
"400 1090 LINE",
"648 798 LINE",
"400 506 LINE"
);
},
{
closed = 1;
nodes = (
"1043 798 LINE",
"1290 1089 LINE",
"1290 507 LINE"
);
},
{
closed = 1;
nodes = (
"585 1336 LINE",
"1105 1336 LINE",
"845 1030 LINE"
);
}
);
width = 1690;
},
{
background = {
paths = (
{
closed = 1;
nodes = (
"380 0 LINE",
"380 492 LINE",
"324 1336 LINE",
"376 1336 LINE",
"462 472 LINE",
"584 0 LINE",
"906 0 LINE",
"1030 472 LINE",
"1114 1336 LINE",
"1168 1336 LINE",
"1110 492 LINE",
"1110 0 LINE",
"1410 0 LINE",
"1410 1600 LINE",
"930 1600 LINE",
"796 994 LINE",
"772 264 LINE",
"720 264 LINE",
"694 994 LINE",
"562 1600 LINE",
"80 1600 LINE",
"80 0 LINE"
);
}
);
};
layerId = "5013C991-8699-46CB-BB1C-82E334DBD38B";
paths = (
{
closed = 1;
nodes = (
"1410 0 LINE",
"1410 1600 LINE",
"80 1600 LINE",
"80 0 LINE"
);
},
{
closed = 1;
nodes = (
"746 525 LINE",
"918 264 LINE",
"573 264 LINE"
);
},
{
closed = 1;
nodes = (
"380 1080 LINE",
"566 798 LINE",
"380 516 LINE"
);
},
{
closed = 1;
nodes = (
"925 798 LINE",
"1110 1078 LINE",
"1110 517 LINE"
);
},
{
closed = 1;
nodes = (
"571 1336 LINE",
"920 1336 LINE",
"746 1071 LINE"
);
}
);
width = 1490;
},
{
background = {
paths = (
{
closed = 1;
nodes = (
"160 0 LINE",
"160 548 LINE",
"160 1560 LINE",
"196 1560 LINE",
"314 452 LINE",
"358 10 LINE",
"456 10 LINE",
"500 452 LINE",
"618 1560 LINE",
"654 1560 LINE",
"654 548 LINE",
"654 0 LINE",
"694 0 LINE",
"694 1600 LINE",
"582 1600 LINE",
"506 918 LINE",
"420 50 LINE",
"394 50 LINE",
"308 918 LINE",
"232 1600 LINE",
"120 1600 LINE",
"120 0 LINE"
);
}
);
};
layerId = "3D06B89B-468F-44E0-A3D7-A5BC6911123E";
paths = (
{
closed = 1;
nodes = (
"694 0 LINE",
"694 1600 LINE",
"120 1600 LINE",
"120 0 LINE"
);
},
{
closed = 1;
nodes = (
"407 739 LINE",
"636 40 LINE",
"178 40 LINE"
);
},
{
closed = 1;
nodes = (
"160 1494 LINE",
"386 804 LINE",
"160 114 LINE"
);
},
{
closed = 1;
nodes = (
"428 804 LINE",
"654 1494 LINE",
"654 114 LINE"
);
},
{
closed = 1;
nodes = (
"180 1560 LINE",
"634 1560 LINE",
"407 868 LINE"
);
}
);
width = 814;
},
{
background = {
paths = (
{
closed = 1;
nodes = (
"216 0 LINE",
"216 462 LINE",
"200 1504 LINE",
"242 1504 LINE",
"352 458 LINE",
"414 8 LINE",
"568 8 LINE",
"632 458 LINE",
"742 1504 LINE",
"786 1504 LINE",
"768 462 LINE",
"768 0 LINE",
"874 0 LINE",
"874 1600 LINE",
"670 1600 LINE",
"578 938 LINE",
"510 104 LINE",
"474 104 LINE",
"404 938 LINE",
"314 1600 LINE",
"110 1600 LINE",
"110 0 LINE"
);
}
);
};
layerId = "C388322D-F001-4130-A10A-708FB59AF746";
paths = (
{
closed = 1;
nodes = (
"874 0 LINE",
"874 1600 LINE",
"110 1600 LINE",
"110 0 LINE"
);
},
{
closed = 1;
nodes = (
"492 657 LINE",
"716 96 LINE",
"268 96 LINE"
);
},
{
closed = 1;
nodes = (
"215 1350 LINE",
"435 800 LINE",
"215 249 LINE"
);
},
{
closed = 1;
nodes = (
"549 799 LINE",
"769 1350 LINE",
"769 249 LINE"
);
},
{
closed = 1;
nodes = (
"267 1504 LINE",
"717 1504 LINE",
"492 942 LINE"
);
}
);
width = 984;
},
{
background = {
paths = (
{
closed = 1;
nodes = (
"263 0 LINE",
"263 501 LINE",
"249 1477 LINE",
"332 1477 LINE",
"439 457 LINE",
"504 8 LINE",
"727 8 LINE",
"795 457 LINE",
"902 1477 LINE",
"985 1477 LINE",
"971 501 LINE",
"971 0 LINE",
"1108 0 LINE",
"1108 1600 LINE",
"799 1600 LINE",
"710 937 LINE",
"641 131 LINE",
"593 131 LINE",
"523 937 LINE",
"435 1600 LINE",
"125 1600 LINE",
"125 0 LINE"
);
}
);
};
layerId = "EB6D3A46-95FC-4F29-8169-EF2A3FEDBD5C";
paths = (
{
closed = 1;
nodes = (
"1108 0 LINE",
"1108 1600 LINE",
"125 1600 LINE",
"125 0 LINE"
);
},
{
closed = 1;
nodes = (
"617 642 LINE",
"900 123 LINE",
"334 123 LINE"
);
},
{
closed = 1;
nodes = (
"260 1297 LINE",
"540 783 LINE",
"260 271 LINE"
);
},
{
closed = 1;
nodes = (
"694 783 LINE",
"973 1295 LINE",
"973 273 LINE"
);
},
{
closed = 1;
nodes = (
"315 1477 LINE",
"919 1477 LINE",
"617 924 LINE"
);
}
);
width = 1233;
}
);
leftMetricsKey = H;
rightMetricsKey = H;
},
{
glyphname = A;
layers = (
{
anchors = (
{
name = bottom;
position = "{322, 0}";
},
{
name = ogonek;
position = "{534, 12}";
},
{
name = top;
position = "{322, 1600}";
}
);
layerId = "3B122060-26E0-4730-9241-82784E6CB359";
paths = (
{
closed = 1;
nodes = (
"148 0 LINE",
"192 518 LINE",
"362 518 LINE",
"382 594 LINE",
"198 594 LINE",
"226 922 LINE",
"278 1524 LINE",
"442 1524 LINE",
"436 1600 LINE",
"210 1600 LINE",
"66 0 LINE"
);
},
{
closed = 1;
nodes = (
"578 0 LINE",
"446 1452 LINE",
"370 1452 LINE",
"418 926 LINE",
"496 0 LINE"
);
}
);
width = 644;
},
{
anchors = (
{
name = bottom;
position = "{514, 0}";
},
{
name = ogonek;
position = "{796, 0}";
},
{
name = top;
position = "{514, 1600}";
}
);
color = -1;
layerId = "1DFA7D5B-2E97-4B89-827F-FB43F8066DC1";
paths = (
{
closed = 1;
nodes = (
"344 0 LINE",
"398 334 LINE",
"494 334 LINE",
"564 598 LINE",
"426 598 LINE",
"472 960 LINE",
"480 1336 LINE",
"808 1336 LINE",
"776 1600 LINE",
"258 1600 LINE",
"36 0 LINE"
);
},
{
closed = 1;
nodes = (
"992 0 LINE",
"816 1234 LINE",
"560 1234 LINE",
"566 960 LINE",
"684 0 LINE"
);
}
);
width = 1028;
},
{
anchors = (
{
name = bottom;
position = "{478, 0}";
},
{
name = ogonek;
position = "{742, 0}";
},
{
name = top;
position = "{478, 1600}";
}
);
color = -1;
layerId = "5013C991-8699-46CB-BB1C-82E334DBD38B";
paths = (
{
closed = 1;
nodes = (
"328 0 LINE",
"382 334 LINE",
"452 334 LINE",
"522 598 LINE",
"400 598 LINE",
"442 912 LINE",
"464 1336 LINE",
"772 1336 LINE",
"738 1600 LINE",
"242 1600 LINE",
"20 0 LINE"
);
},
{
closed = 1;
nodes = (
"956 0 LINE",
"778 1236 LINE",
"530 1236 LINE",
"540 914 LINE",
"648 0 LINE"
);
}
);
width = 976;
},
{
anchors = (
{
name = bottom;
position = "{266, 0}";
},
{
name = ogonek;
position = "{452, 0}";
},
{
name = top;
position = "{266, 1600}";
}
);
layerId = "3D06B89B-468F-44E0-A3D7-A5BC6911123E";
paths = (
{
closed = 1;
nodes = (
"100 0 LINE",
"146 536 LINE",
"320 536 LINE",
"330 576 LINE",
"150 576 LINE",
"180 920 LINE",
"234 1560 LINE",
"330 1560 LINE",
"328 1600 LINE",
"202 1600 LINE",
"60 0 LINE"
);
},
{
closed = 1;
nodes = (
"468 0 LINE",
"332 1520 LINE",
"296 1520 LINE",
"348 922 LINE",
"428 0 LINE"
);
}
);
width = 528;
},
{
anchors = (
{
name = bottom;
position = "{368, 0}";
},
{
name = ogonek;
position = "{597, 9}";
},
{
name = top;
position = "{368, 1600}";
}
);
layerId = "EB6D3A46-95FC-4F29-8169-EF2A3FEDBD5C";
paths = (
{
closed = 1;
nodes = (
"195 0 LINE",
"241 472 LINE",
"393 472 LINE",
"425 595 LINE",
"253 595 LINE",
"285 932 LINE",
"326 1477 LINE",
"531 1477 LINE",
"519 1600 LINE",
"220 1600 LINE",
"56 0 LINE"
);
},
{
closed = 1;
nodes = (
"679 0 LINE",
"536 1398 LINE",
"415 1398 LINE",
"453 935 LINE",
"541 0 LINE"
);
}
);
width = 735;
},
{
anchors = (
{
name = bottom;
position = "{317, 0}";
},
{
name = ogonek;
position = "{522, 0}";
},
{
name = top;
position = "{317, 1600}";
}
);
color = -1;
layerId = "C388322D-F001-4130-A10A-708FB59AF746";
paths = (
{
closed = 1;
nodes = (
"155 0 LINE",
"203 486 LINE",
"351 486 LINE",
"376 582 LINE",
"211 582 LINE",
"244 918 LINE",
"290 1504 LINE",
"439 1504 LINE",
"429 1600 LINE",
"210 1600 LINE",
"48 0 LINE"
);
},
{
closed = 1;
nodes = (
"588 0 LINE",
"442 1449 LINE",
"353 1449 LINE",
"394 920 LINE",
"481 0 LINE"
);
}
);
width = 636;
}
);
leftKerningGroup = A;
rightKerningGroup = A;
unicode = 0041;
},
{
glyphname = AE;
layers = (
{
anchors = (
{
name = bottom;
position = "{520, 0}";
},
{
name = top;
position = "{544, 1600}";
}
);
layerId = "3B122060-26E0-4730-9241-82784E6CB359";
paths = (
{
closed = 1;
nodes = (
"150 0 LINE",
"234 504 LINE",
"374 504 LINE",
"396 580 LINE",
"248 580 LINE",
"304 914 LINE",
"400 1526 LINE",
"894 1526 LINE",
"894 1600 LINE",
"334 1600 LINE",
"66 0 LINE"
);
},
{
closed = 1;
nodes = (
"894 0 LINE",
"894 76 LINE",
"648 76 LINE",
"648 0 LINE"
);
},
{
closed = 1;
nodes = (
"556 0 LINE",
"556 1434 LINE",
"476 1434 LINE",
"476 0 LINE"
);
},
{
closed = 1;
nodes = (
"874 762 LINE",
"874 838 LINE",
"648 838 LINE",
"648 762 LINE"
);
}
);
width = 964;
},
{
anchors = (
{
name = bottom;
position = "{810, 0}";
},
{
name = top;
position = "{858, 1600}";
}
);
color = -1;
layerId = "1DFA7D5B-2E97-4B89-827F-FB43F8066DC1";
paths = (
{
closed = 1;
nodes = (
"364 0 LINE",
"436 334 LINE",
"562 334 LINE",
"632 598 LINE",
"492 598 LINE",
"552 872 LINE",
"596 1336 LINE",
"1420 1336 LINE",
"1420 1600 LINE",
"368 1600 LINE",
"36 0 LINE"
);
},
{
closed = 1;
nodes = (
"1420 0 LINE",
"1420 264 LINE",
"1122 264 LINE",
"1122 0 LINE"
);
},
{
closed = 1;
nodes = (
"988 0 LINE",
"988 1204 LINE",
"688 1204 LINE",
"688 0 LINE"
);
},
{
closed = 1;
nodes = (
"1400 682 LINE",
"1400 946 LINE",
"1122 946 LINE",
"1122 682 LINE"
);
}
);
width = 1476;
},
{
anchors = (
{
name = bottom;
position = "{756, 0}";
},
{
name = top;
position = "{802, 1600}";
}
);
color = -1;
layerId = "5013C991-8699-46CB-BB1C-82E334DBD38B";
paths = (
{
closed = 1;
nodes = (
"20 0 LINE",
"348 0 LINE",
"420 334 LINE",
"526 334 LINE",
"600 598 LINE",
"476 598 LINE",
"536 872 LINE",
"580 1336 LINE",
"1324 1336 LINE",
"1324 1600 LINE",
"352 1600 LINE"
);
},
{
closed = 1;
nodes = (
"932 0 LINE",
"932 1236 LINE",
"632 1236 LINE",
"632 0 LINE"
);
},
{
closed = 1;
nodes = (
"1030 682 LINE",
"1304 682 LINE",
"1304 946 LINE",
"1030 946 LINE"
);
},
{
closed = 1;
nodes = (
"1324 0 LINE",
"1324 264 LINE",
"1030 264 LINE",
"1030 0 LINE"
);
}
);
width = 1368;
},
{
anchors = (
{
name = bottom;
position = "{376, 0}";
},
{
name = top;
position = "{410, 1600}";
}
);
layerId = "3D06B89B-468F-44E0-A3D7-A5BC6911123E";
paths = (
{
closed = 1;
nodes = (
"60 0 LINE",
"100 0 LINE",
"174 536 LINE",
"286 536 LINE",
"298 576 LINE",
"178 576 LINE",
"226 922 LINE",
"316 1560 LINE",
"674 1560 LINE",
"674 1600 LINE",
"282 1600 LINE"
);
},
{
closed = 1;
nodes = (
"396 0 LINE",
"396 1480 LINE",
"356 1480 LINE",
"356 0 LINE"
);
},
{
closed = 1;
nodes = (
"476 780 LINE",
"654 780 LINE",
"654 820 LINE",
"476 820 LINE"
);
},
{
closed = 1;
nodes = (
"674 0 LINE",
"674 40 LINE",
"476 40 LINE",
"476 0 LINE"
);
}
);
width = 724;
},
{
anchors = (
{
name = bottom;
position = "{592, 0}";
},
{
name = top;
position = "{620, 1600}";
}
);
layerId = "EB6D3A46-95FC-4F29-8169-EF2A3FEDBD5C";
paths = (
{
closed = 1;
nodes = (
"201 0 LINE",
"282 462 LINE",
"419 462 LINE",
"453 585 LINE",
"307 585 LINE",
"364 904 LINE",
"447 1479 LINE",
"1023 1479 LINE",
"1023 1600 LINE",
"340 1600 LINE",
"56 0 LINE"
);
},
{
closed = 1;
nodes = (
"1023 0 LINE",
"1023 123 LINE",
"764 123 LINE",
"764 0 LINE"
);
},
{
closed = 1;
nodes = (
"662 0 LINE",
"662 1377 LINE",
"527 1377 LINE",
"527 0 LINE"
);
},
{
closed = 1;
nodes = (
"1003 742 LINE",
"1003 865 LINE",
"764 865 LINE",
"764 742 LINE"
);
}
);
width = 1079;
},
{
anchors = (
{
name = bottom;
position = "{475, 0}";
},
{
name = top;
position = "{506, 1600}";
}
);
color = -1;
layerId = "C388322D-F001-4130-A10A-708FB59AF746";
paths = (
{
closed = 1;
nodes = (
"48 0 LINE",
"160 0 LINE",
"234 486 LINE",
"344 486 LINE",
"372 582 LINE",
"251 582 LINE",
"302 910 LINE",
"380 1504 LINE",
"835 1504 LINE",
"835 1600 LINE",
"298 1600 LINE"
);
},
{
closed = 1;
nodes = (
"528 0 LINE",
"528 1419 LINE",
"423 1419 LINE",
"423 0 LINE"
);
},
{
closed = 1;
nodes = (
"613 756 LINE",
"815 756 LINE",
"815 852 LINE",
"613 852 LINE"
);
},
{
closed = 1;
nodes = (
"835 0 LINE",
"835 96 LINE",
"613 96 LINE",
"613 0 LINE"
);
}
);
width = 881;
}
);
leftKerningGroup = A;
leftMetricsKey = A;
rightKerningGroup = E;
rightMetricsKey = E;
unicode = 00C6;
},
{
glyphname = B;
layers = (
{
layerId = "3B122060-26E0-4730-9241-82784E6CB359";
paths = (
{
closed = 1;
nodes = (
"220 0 LINE",
"220 1600 LINE",
"140 1600 LINE",
"140 0 LINE"
);
},
{
closed = 1;
nodes = (
"386 0 LINE SMOOTH",
"548 0 OFFCURVE",
"614 56 OFFCURVE",
"618 196 CURVE SMOOTH",
"622 352 OFFCURVE",
"624 466 OFFCURVE",
"618 624 CURVE SMOOTH",
"614 718 OFFCURVE",
"578 770 OFFCURVE",
"490 790 CURVE",
"490 810 LINE",
"574 828 OFFCURVE",
"606 880 OFFCURVE",
"610 976 CURVE SMOOTH",
"614 1102 OFFCURVE",
"612 1218 OFFCURVE",
"610 1404 CURVE SMOOTH",
"608 1544 OFFCURVE",
"542 1600 OFFCURVE",
"378 1600 CURVE SMOOTH",
"312 1600 LINE",
"312 1524 LINE",
"378 1524 LINE SMOOTH",
"496 1524 OFFCURVE",
"528 1498 OFFCURVE",
"530 1404 CURVE SMOOTH",
"534 1248 OFFCURVE",
"536 1132 OFFCURVE",
"530 976 CURVE SMOOTH",
"526 870 OFFCURVE",
"502 840 OFFCURVE",
"402 840 CURVE SMOOTH",
"312 840 LINE",
"312 760 LINE",
"394 760 LINE SMOOTH",
"502 760 OFFCURVE",
"534 730 OFFCURVE",
"538 624 CURVE SMOOTH",
"544 468 OFFCURVE",
"544 352 OFFCURVE",
"538 196 CURVE SMOOTH",
"534 104 OFFCURVE",
"504 80 OFFCURVE",
"386 80 CURVE SMOOTH",
"312 80 LINE",
"312 0 LINE"
);
}
);
width = 734;
},
{
layerId = "1DFA7D5B-2E97-4B89-827F-FB43F8066DC1";
paths = (
{
closed = 1;
nodes = (
"400 0 LINE",
"400 1600 LINE",
"100 1600 LINE",
"100 0 LINE"
);
},
{
closed = 1;
nodes = (
"534 0 LINE SMOOTH",
"832 0 OFFCURVE",
"952 112 OFFCURVE",
"964 390 CURVE SMOOTH",
"966 436 OFFCURVE",
"966 470 OFFCURVE",
"964 514 CURVE SMOOTH",
"958 664 OFFCURVE",
"904 748 OFFCURVE",
"782 788 CURVE",
"782 836 LINE",
"900 876 OFFCURVE",
"954 958 OFFCURVE",
"962 1104 CURVE SMOOTH",
"964 1138 OFFCURVE",
"964 1172 OFFCURVE",
"964 1210 CURVE SMOOTH",
"964 1488 OFFCURVE",
"832 1600 OFFCURVE",
"534 1600 CURVE SMOOTH",
"532 1600 LINE",
"532 1336 LINE",
"534 1336 LINE SMOOTH",
"618 1336 OFFCURVE",
"664 1296 OFFCURVE",
"664 1226 CURVE SMOOTH",
"664 1188 OFFCURVE",
"664 1150 OFFCURVE",
"664 1112 CURVE SMOOTH",
"664 1006 OFFCURVE",
"618 946 OFFCURVE",
"534 946 CURVE SMOOTH",
"532 946 LINE",
"532 682 LINE",
"534 682 LINE SMOOTH",
"626 682 OFFCURVE",
"664 632 OFFCURVE",
"664 500 CURVE SMOOTH",
"664 464 OFFCURVE",
"664 430 OFFCURVE",
"664 394 CURVE SMOOTH",
"664 310 OFFCURVE",
"618 264 OFFCURVE",
"534 264 CURVE SMOOTH",
"532 264 LINE",
"532 0 LINE"
);
}
);
width = 1031;
},
{
layerId = "5013C991-8699-46CB-BB1C-82E334DBD38B";
paths = (
{
closed = 1;
nodes = (
"380 0 LINE",
"380 1600 LINE",
"80 1600 LINE",
"80 0 LINE"
);
},
{
closed = 1;
nodes = (
"490 0 LINE SMOOTH",
"788 0 OFFCURVE",
"908 112 OFFCURVE",
"920 390 CURVE SMOOTH",
"922 436 OFFCURVE",
"922 470 OFFCURVE",
"920 514 CURVE SMOOTH",
"914 664 OFFCURVE",
"860 748 OFFCURVE",
"738 788 CURVE",
"738 836 LINE",
"856 876 OFFCURVE",
"910 958 OFFCURVE",
"918 1104 CURVE SMOOTH",
"920 1138 OFFCURVE",
"920 1172 OFFCURVE",
"920 1210 CURVE SMOOTH",
"920 1488 OFFCURVE",
"788 1600 OFFCURVE",
"490 1600 CURVE SMOOTH",
"480 1600 LINE",
"480 1336 LINE",
"490 1336 LINE SMOOTH",
"574 1336 OFFCURVE",
"620 1296 OFFCURVE",
"620 1226 CURVE SMOOTH",
"620 1188 OFFCURVE",
"620 1150 OFFCURVE",
"620 1112 CURVE SMOOTH",
"620 1006 OFFCURVE",
"574 946 OFFCURVE",
"490 946 CURVE SMOOTH",
"480 946 LINE",
"480 682 LINE",
"490 682 LINE SMOOTH",
"582 682 OFFCURVE",
"620 632 OFFCURVE",
"620 500 CURVE SMOOTH",
"620 464 OFFCURVE",
"620 430 OFFCURVE",
"620 394 CURVE SMOOTH",
"620 310 OFFCURVE",
"574 264 OFFCURVE",
"490 264 CURVE SMOOTH",
"480 264 LINE",
"480 0 LINE"
);
}
);
width = 985;
},
{
layerId = "3D06B89B-468F-44E0-A3D7-A5BC6911123E";
paths = (
{
closed = 1;
nodes = (
"160 0 LINE",
"160 1600 LINE",
"120 1600 LINE",
"120 0 LINE"
);
},
{
closed = 1;
nodes = (
"286 0 LINE SMOOTH",
"404 0 OFFCURVE",
"454 54 OFFCURVE",
"458 186 CURVE SMOOTH",
"462 342 OFFCURVE",
"462 466 OFFCURVE",
"458 624 CURVE SMOOTH",
"456 714 OFFCURVE",
"430 764 OFFCURVE",
"370 784 CURVE",
"370 814 LINE",
"428 836 OFFCURVE",
"454 884 OFFCURVE",
"456 976 CURVE SMOOTH",
"460 1102 OFFCURVE",
"460 1228 OFFCURVE",
"456 1414 CURVE SMOOTH",
"452 1546 OFFCURVE",
"402 1600 OFFCURVE",
"284 1600 CURVE SMOOTH",
"240 1600 LINE",
"240 1560 LINE",
"284 1560 LINE SMOOTH",
"374 1560 OFFCURVE",
"412 1518 OFFCURVE",
"416 1414 CURVE SMOOTH",
"422 1258 OFFCURVE",
"422 1132 OFFCURVE",
"416 976 CURVE SMOOTH",
"412 864 OFFCURVE",
"374 820 OFFCURVE",
"282 820 CURVE SMOOTH",
"240 820 LINE",
"240 780 LINE",
"274 780 LINE SMOOTH",
"372 780 OFFCURVE",
"414 736 OFFCURVE",
"418 624 CURVE SMOOTH",
"424 468 OFFCURVE",
"424 342 OFFCURVE",
"418 186 CURVE SMOOTH",
"414 82 OFFCURVE",
"376 40 OFFCURVE",
"286 40 CURVE SMOOTH",
"240 40 LINE",
"240 0 LINE"
);
}
);
width = 559;
},
{
layerId = "EB6D3A46-95FC-4F29-8169-EF2A3FEDBD5C";
paths = (
{
closed = 1;
nodes = (
"260 0 LINE",
"260 1600 LINE",
"125 1600 LINE",
"125 0 LINE"
);
},
{
closed = 1;
nodes = (
"418 0 LINE SMOOTH",
"614 0 OFFCURVE",
"694 70 OFFCURVE",
"700 245 CURVE SMOOTH",
"703 373 OFFCURVE",
"705 467 OFFCURVE",
"700 597 CURVE SMOOTH",
"695 705 OFFCURVE",
"655 765 OFFCURVE",
"558 790 CURVE",
"558 817 LINE",
"651 840 OFFCURVE",
"688 900 OFFCURVE",
"693 1008 CURVE SMOOTH",
"697 1111 OFFCURVE",
"695 1207 OFFCURVE",
"694 1356 CURVE SMOOTH",
"692 1530 OFFCURVE",
"610 1600 OFFCURVE",
"412 1600 CURVE SMOOTH",
"362 1600 LINE",
"362 1477 LINE",
"412 1477 LINE SMOOTH",
"522 1477 OFFCURVE",
"557 1448 OFFCURVE",
"559 1360 CURVE SMOOTH",
"562 1233 OFFCURVE",
"563 1137 OFFCURVE",
"559 1010 CURVE SMOOTH",
"556 904 OFFCURVE",
"526 867 OFFCURVE",
"430 867 CURVE SMOOTH",
"362 867 LINE",
"362 741 LINE",
"424 741 LINE SMOOTH",
"528 741 OFFCURVE",
"562 706 OFFCURVE",
"565 593 CURVE SMOOTH",
"569 467 OFFCURVE",
"569 372 OFFCURVE",
"565 246 CURVE SMOOTH",
"562 156 OFFCURVE",
"528 126 OFFCURVE",
"418 126 CURVE SMOOTH",
"362 126 LINE",
"362 0 LINE"
);
}
);
width = 800;
},
{
layerId = "C388322D-F001-4130-A10A-708FB59AF746";
paths = (
{
closed = 1;
nodes = (
"215 0 LINE",
"215 1600 LINE",
"110 1600 LINE",
"110 0 LINE"
);
},
{
closed = 1;
nodes = (
"337 0 LINE SMOOTH",
"500 0 OFFCURVE",
"568 69 OFFCURVE",
"574 237 CURVE SMOOTH",
"577 366 OFFCURVE",
"577 467 OFFCURVE",
"574 597 CURVE SMOOTH",
"571 702 OFFCURVE",
"538 760 OFFCURVE",
"462 785 CURVE",
"462 820 LINE",
"535 846 OFFCURVE",
"568 903 OFFCURVE",
"572 1008 CURVE SMOOTH",
"575 1111 OFFCURVE",
"575 1214 OFFCURVE",
"572 1363 CURVE SMOOTH",
"569 1532 OFFCURVE",
"499 1600 OFFCURVE",
"336 1600 CURVE SMOOTH",
"300 1600 LINE",
"300 1504 LINE",
"336 1504 LINE SMOOTH",
"424 1504 OFFCURVE",
"464 1463 OFFCURVE",
"467 1367 CURVE SMOOTH",
"472 1241 OFFCURVE",
"472 1137 OFFCURVE",
"467 1010 CURVE SMOOTH",
"464 900 OFFCURVE",
"424 852 OFFCURVE",
"334 852 CURVE SMOOTH",
"300 852 LINE",
"300 756 LINE",
"328 756 LINE SMOOTH",
"425 756 OFFCURVE",
"466 710 OFFCURVE",
"469 593 CURVE SMOOTH",
"473 467 OFFCURVE",
"473 364 OFFCURVE",
"469 238 CURVE SMOOTH",
"466 139 OFFCURVE",
"426 96 OFFCURVE",
"337 96 CURVE SMOOTH",
"300 96 LINE",
"300 0 LINE"
);
}
);
width = 661;
}
);
leftKerningGroup = H;
leftMetricsKey = H;
rightKerningGroup = B;
unicode = 0042;
},
{
glyphname = C;
layers = (
{
anchors = (
{
name = bottom;
position = "{352, 0}";
},
{
name = top;
position = "{352, 1600}";
}
);
background = {
paths = (
{
closed = 1;
nodes = (
"450 -20 OFFCURVE",
"532 66 OFFCURVE",
"532 180 CURVE SMOOTH",
"532 480 LINE",
"492 480 LINE",
"492 180 LINE SMOOTH",
"492 88 OFFCURVE",
"428 20 OFFCURVE",
"342 20 CURVE SMOOTH",
"256 20 OFFCURVE",
"192 88 OFFCURVE",
"192 180 CURVE SMOOTH",
"192 1400 LINE SMOOTH",
"192 1492 OFFCURVE",
"256 1580 OFFCURVE",
"342 1580 CURVE SMOOTH",
"428 1580 OFFCURVE",
"492 1492 OFFCURVE",
"492 1400 CURVE SMOOTH",
"492 1140 LINE",
"532 1140 LINE",
"532 1400 LINE SMOOTH",
"532 1514 OFFCURVE",
"450 1620 OFFCURVE",
"342 1620 CURVE SMOOTH",
"234 1620 OFFCURVE",
"152 1514 OFFCURVE",
"152 1400 CURVE SMOOTH",
"152 180 LINE SMOOTH",
"152 66 OFFCURVE",
"234 -20 OFFCURVE",
"342 -20 CURVE SMOOTH"
);
}
);
};
layerId = "3B122060-26E0-4730-9241-82784E6CB359";
paths = (
{
closed = 1;
nodes = (
"314 65 LINE",
"228 72 OFFCURVE",
"196 104 OFFCURVE",
"194 194 CURVE SMOOTH",
"184 686 OFFCURVE",
"184 912 OFFCURVE",
"194 1402 CURVE SMOOTH",
"196 1492 OFFCURVE",
"229 1525 OFFCURVE",
"314 1531 CURVE",
"314 1607 LINE",
"179 1598 OFFCURVE",
"116 1538 OFFCURVE",
"114 1402 CURVE SMOOTH",
"108 958 OFFCURVE",
"108 640 OFFCURVE",
"114 194 CURVE SMOOTH",
"116 58 OFFCURVE",
"180 -2 OFFCURVE",
"314 -11 CURVE"
);
},
{
closed = 1;
nodes = (
"538 2 OFFCURVE",
"599 63 OFFCURVE",
"606 194 CURVE SMOOTH",
"612 308 OFFCURVE",
"610 400 OFFCURVE",
"604 564 CURVE",
"524 564 LINE",
"528 378 OFFCURVE",
"530 286 OFFCURVE",
"526 194 CURVE SMOOTH",
"523 108 OFFCURVE",
"491 75 OFFCURVE",
"406 66 CURVE",
"406 -10 LINE"
);
},
{
closed = 1;
nodes = (
"598 1068 LINE",
"604 1194 OFFCURVE",
"604 1276 OFFCURVE",
"598 1402 CURVE SMOOTH",
"591 1532 OFFCURVE",
"533 1593 OFFCURVE",
"406 1605 CURVE",
"406 1529 LINE",
"485 1520 OFFCURVE",
"515 1486 OFFCURVE",
"518 1402 CURVE SMOOTH",
"522 1276 OFFCURVE",
"522 1194 OFFCURVE",
"518 1068 CURVE"
);
}
);
width = 690;
},
{
anchors = (
{
name = bottom;
position = "{518, 0}";
},
{
name = top;
position = "{518, 1600}";
}
);
layerId = "1DFA7D5B-2E97-4B89-827F-FB43F8066DC1";
paths = (
{
closed = 1;
nodes = (
"460 233 LINE",
"409 249 OFFCURVE",
"385 291 OFFCURVE",
"384 366 CURVE SMOOTH",
"376 658 OFFCURVE",
"376 942 OFFCURVE",
"384 1236 CURVE SMOOTH",
"385 1310 OFFCURVE",
"409 1351 OFFCURVE",
"460 1367 CURVE",
"460 1618 LINE",
"204 1601 OFFCURVE",
"88 1477 OFFCURVE",
"84 1222 CURVE SMOOTH",
"78 920 OFFCURVE",
"78 680 OFFCURVE",
"84 382 CURVE SMOOTH",
"90 115 OFFCURVE",
"198 -2 OFFCURVE",
"460 -18 CURVE"
);
},
{
closed = 1;
nodes = (
"854 -2 OFFCURVE",
"963 115 OFFCURVE",
"970 382 CURVE SMOOTH",
"972 446 OFFCURVE",
"972 536 OFFCURVE",
"970 600 CURVE",
"670 600 LINE",
"674 510 OFFCURVE",
"674 452 OFFCURVE",
"670 366 CURVE SMOOTH",
"667 290 OFFCURVE",
"644 249 OFFCURVE",
"592 232 CURVE",
"592 -18 LINE"
);
},
{
closed = 1;
nodes = (
"960 1000 LINE",
"962 1066 OFFCURVE",
"964 1154 OFFCURVE",
"962 1220 CURVE SMOOTH",
"955 1471 OFFCURVE",
"840 1599 OFFCURVE",
"592 1618 CURVE",
"592 1366 LINE",
"639 1349 OFFCURVE",
"661 1308 OFFCURVE",
"662 1236 CURVE SMOOTH",
"664 1162 OFFCURVE",
"662 1074 OFFCURVE",
"660 1000 CURVE"
);
}
);
width = 1033;
},
{
anchors = (
{
name = bottom;
position = "{487, 0}";
},
{
name = top;
position = "{487, 1600}";
}
);
layerId = "5013C991-8699-46CB-BB1C-82E334DBD38B";
paths = (
{
closed = 1;
nodes = (
"445 230 LINE",
"400 243 OFFCURVE",
"375 276 OFFCURVE",
"373 326 CURVE SMOOTH",
"363 604 OFFCURVE",
"363 996 OFFCURVE",
"373 1276 CURVE SMOOTH",
"375 1324 OFFCURVE",
"400 1357 OFFCURVE",
"445 1370 CURVE",
"445 1618 LINE",
"187 1602 OFFCURVE",
"77 1452 OFFCURVE",
"73 1222 CURVE SMOOTH",
"69 996 OFFCURVE",
"69 604 OFFCURVE",
"73 382 CURVE SMOOTH",
"79 110 OFFCURVE",
"180 -6 OFFCURVE",
"445 -19 CURVE"
);
},
{
closed = 1;
nodes = (
"803 -6 OFFCURVE",
"911 111 OFFCURVE",
"919 382 CURVE SMOOTH",
"921 446 OFFCURVE",
"921 536 OFFCURVE",
"919 600 CURVE",
"619 600 LINE",
"621 528 OFFCURVE",
"621 398 OFFCURVE",
"619 326 CURVE SMOOTH",
"617 276 OFFCURVE",
"592 243 OFFCURVE",
"545 230 CURVE",
"545 -19 LINE"
);
},
{
closed = 1;
nodes = (
"909 1000 LINE",
"911 1066 OFFCURVE",
"913 1154 OFFCURVE",
"911 1220 CURVE SMOOTH",
"903 1489 OFFCURVE",
"797 1606 OFFCURVE",
"545 1619 CURVE",
"545 1369 LINE",
"586 1355 OFFCURVE",
"610 1323 OFFCURVE",
"611 1276 CURVE SMOOTH",
"613 1202 OFFCURVE",
"611 1074 OFFCURVE",
"609 1000 CURVE"
);
}
);
width = 980;
},
{
anchors = (
{
name = bottom;
position = "{274, 0}";
},
{
name = top;
position = "{274, 1600}";
}
);
background = {
paths = (
{
closed = 1;
nodes = (
"406 -20 OFFCURVE",
"488 66 OFFCURVE",
"488 180 CURVE SMOOTH",
"488 480 LINE",
"448 480 LINE",
"448 180 LINE SMOOTH",
"448 88 OFFCURVE",
"384 20 OFFCURVE",
"298 20 CURVE SMOOTH",
"212 20 OFFCURVE",
"148 88 OFFCURVE",
"148 180 CURVE SMOOTH",
"148 1400 LINE SMOOTH",
"148 1492 OFFCURVE",
"212 1580 OFFCURVE",
"298 1580 CURVE SMOOTH",
"384 1580 OFFCURVE",
"448 1492 OFFCURVE",
"448 1400 CURVE SMOOTH",
"448 1140 LINE",
"488 1140 LINE",
"488 1400 LINE SMOOTH",
"488 1514 OFFCURVE",
"406 1620 OFFCURVE",
"298 1620 CURVE SMOOTH",
"190 1620 OFFCURVE",
"108 1514 OFFCURVE",
"108 1400 CURVE SMOOTH",
"108 180 LINE SMOOTH",
"108 66 OFFCURVE",
"190 -20 OFFCURVE",
"298 -20 CURVE SMOOTH"
);
}
);
};
layerId = "3D06B89B-468F-44E0-A3D7-A5BC6911123E";
paths = (
{
closed = 1;
nodes = (
"244 30 LINE",
"176 39 OFFCURVE",
"152 80 OFFCURVE",
"150 174 CURVE SMOOTH",
"142 636 OFFCURVE",
"142 962 OFFCURVE",
"150 1422 CURVE SMOOTH",
"152 1518 OFFCURVE",
"176 1558 OFFCURVE",
"244 1566 CURVE",
"244 1606 LINE",
"151 1597 OFFCURVE",
"112 1543 OFFCURVE",
"110 1422 CURVE SMOOTH",
"102 962 OFFCURVE",
"102 636 OFFCURVE",
"110 174 CURVE SMOOTH",
"112 55 OFFCURVE",
"151 0 OFFCURVE",
"244 -10 CURVE"
);
},
{
closed = 1;
nodes = (
"419 3 OFFCURVE",
"459 59 OFFCURVE",
"462 174 CURVE SMOOTH",
"466 314 OFFCURVE",
"464 424 OFFCURVE",
"460 564 CURVE",
"420 564 LINE",
"422 434 OFFCURVE",
"424 304 OFFCURVE",
"422 174 CURVE SMOOTH",
"420 83 OFFCURVE",
"395 42 OFFCURVE",
"324 31 CURVE",
"324 -9 LINE"
);
},
{
closed = 1;
nodes = (
"454 1068 LINE",
"456 1150 OFFCURVE",
"456 1340 OFFCURVE",
"454 1422 CURVE SMOOTH",
"451 1535 OFFCURVE",
"412 1591 OFFCURVE",
"324 1605 CURVE",
"324 1564 LINE",
"389 1553 OFFCURVE",
"412 1513 OFFCURVE",
"414 1422 CURVE SMOOTH",
"416 1304 OFFCURVE",
"416 1186 OFFCURVE",
"414 1068 CURVE"
);
}
);
width = 548;
},
{
anchors = (
{
name = bottom;
position = "{401, 0}";
},
{
name = top;
position = "{401, 1600}";
}
);
layerId = "EB6D3A46-95FC-4F29-8169-EF2A3FEDBD5C";
paths = (
{
closed = 1;
nodes = (
"358 107 LINE",
"281 116 OFFCURVE",
"251 151 OFFCURVE",
"249 237 CURVE SMOOTH",
"240 679 OFFCURVE",
"240 920 OFFCURVE",
"249 1361 CURVE SMOOTH",
"251 1447 OFFCURVE",
"281 1481 OFFCURVE",
"358 1490 CURVE",
"358 1610 LINE",
"193 1599 OFFCURVE",
"116 1523 OFFCURVE",
"114 1357 CURVE SMOOTH",
"108 949 OFFCURVE",
"108 650 OFFCURVE",
"114 241 CURVE SMOOTH",
"117 73 OFFCURVE",
"192 -2 OFFCURVE",
"358 -13 CURVE"
);
},
{
closed = 1;
nodes = (
"625 1 OFFCURVE",
"697 76 OFFCURVE",
"705 241 CURVE SMOOTH",
"710 343 OFFCURVE",
"708 434 OFFCURVE",
"703 573 CURVE",
"568 573 LINE",
"572 411 OFFCURVE",
"574 328 OFFCURVE",
"570 237 CURVE SMOOTH",
"566 154 OFFCURVE",
"537 118 OFFCURVE",
"460 108 CURVE",
"460 -12 LINE"
);
},
{
closed = 1;
nodes = (
"696 1051 LINE",
"701 1162 OFFCURVE",
"702 1246 OFFCURVE",
"697 1357 CURVE SMOOTH",
"689 1517 OFFCURVE",
"617 1594 OFFCURVE",
"460 1608 CURVE",
"460 1489 LINE",
"531 1477 OFFCURVE",
"559 1442 OFFCURVE",
"562 1361 CURVE SMOOTH",
"565 1248 OFFCURVE",
"565 1164 OFFCURVE",
"561 1051 CURVE"
);
}
);
width = 802;
},
{
anchors = (
{
name = bottom;
position = "{327, 0}";
},
{
name = top;
position = "{327, 1600}";
}
);
layerId = "C388322D-F001-4130-A10A-708FB59AF746";
paths = (
{
closed = 1;
nodes = (
"294 80 LINE",
"231 90 OFFCURVE",
"207 129 OFFCURVE",
"205 212 CURVE SMOOTH",
"197 628 OFFCURVE",
"197 971 OFFCURVE",
"205 1386 CURVE SMOOTH",
"207 1470 OFFCURVE",
"232 1507 OFFCURVE",
"294 1517 CURVE",
"294 1609 LINE",
"159 1598 OFFCURVE",
"102 1520 OFFCURVE",
"100 1372 CURVE SMOOTH",
"93 971 OFFCURVE",
"93 628 OFFCURVE",
"100 226 CURVE SMOOTH",
"103 69 OFFCURVE",
"157 -2 OFFCURVE",
"294 -12 CURVE"
);
},
{
closed = 1;
nodes = (
"514 1 OFFCURVE",
"571 72 OFFCURVE",
"576 226 CURVE SMOOTH",
"579 347 OFFCURVE",
"578 452 OFFCURVE",
"574 573 CURVE",
"469 573 LINE",
"471 458 OFFCURVE",
"473 328 OFFCURVE",
"471 212 CURVE SMOOTH",
"469 132 OFFCURVE",
"443 92 OFFCURVE",
"379 81 CURVE",
"379 -12 LINE"
);
},
{
closed = 1;
nodes = (
"567 1051 LINE",
"569 1129 OFFCURVE",
"570 1294 OFFCURVE",
"568 1372 CURVE SMOOTH",
"563 1524 OFFCURVE",
"507 1595 OFFCURVE",
"379 1608 CURVE",
"379 1516 LINE",
"438 1504 OFFCURVE",
"461 1465 OFFCURVE",
"463 1386 CURVE SMOOTH",
"465 1279 OFFCURVE",
"464 1158 OFFCURVE",
"462 1051 CURVE"
);
}
);
width = 653;
}
);
leftKerningGroup = O;
leftMetricsKey = O;
rightKerningGroup = C;
unicode = 0043;
},
{
glyphname = D;
layers = (
{
anchors = (
{
name = bottom;
position = "{370, 0}";
},
{
name = center;
position = "{374, 800}";
},
{
name = top;
position = "{352, 1600}";
}
);
layerId = "3B122060-26E0-4730-9241-82784E6CB359";
paths = (
{
closed = 1;
nodes = (
"220 0 LINE",
"220 1600 LINE",
"140 1600 LINE",
"140 0 LINE"
);
},
{
closed = 1;
nodes = (
"390 0 LINE SMOOTH",
"540 0 OFFCURVE",
"602 54 OFFCURVE",
"604 186 CURVE SMOOTH",
"610 624 OFFCURVE",
"610 974 OFFCURVE",
"604 1414 CURVE SMOOTH",
"602 1546 OFFCURVE",
"536 1600 OFFCURVE",
"372 1600 CURVE SMOOTH",
"312 1600 LINE",
"312 1524 LINE",
"372 1524 LINE SMOOTH",
"490 1524 OFFCURVE",
"522 1498 OFFCURVE",
"524 1414 CURVE SMOOTH",
"534 932 OFFCURVE",
"534 668 OFFCURVE",
"524 186 CURVE SMOOTH",
"522 102 OFFCURVE",
"494 76 OFFCURVE",
"390 76 CURVE SMOOTH",
"312 76 LINE",
"312 0 LINE"
);
}
);
width = 718;
},
{
anchors = (
{
name = bottom;
position = "{480, 0}";
},
{
name = center;
position = "{520, 800}";
},
{
name = top;
position = "{520, 1600}";
}
);
layerId = "1DFA7D5B-2E97-4B89-827F-FB43F8066DC1";
paths = (
{
closed = 1;
nodes = (
"400 0 LINE",
"400 1600 LINE",
"100 1600 LINE",
"100 0 LINE"
);
},
{
closed = 1;
nodes = (
"534 0 LINE SMOOTH",
"834 0 OFFCURVE",
"958 118 OFFCURVE",
"964 412 CURVE SMOOTH",
"970 690 OFFCURVE",
"970 912 OFFCURVE",
"964 1190 CURVE SMOOTH",
"958 1482 OFFCURVE",
"834 1600 OFFCURVE",
"534 1600 CURVE SMOOTH",
"532 1600 LINE",
"532 1336 LINE",
"534 1336 LINE SMOOTH",
"618 1336 OFFCURVE",
"662 1296 OFFCURVE",
"664 1226 CURVE SMOOTH",
"672 942 OFFCURVE",
"672 660 OFFCURVE",
"664 376 CURVE SMOOTH",
"662 304 OFFCURVE",
"618 264 OFFCURVE",
"534 264 CURVE SMOOTH",
"532 264 LINE",
"532 0 LINE"
);
}
);
width = 1048;
},
{
anchors = (
{
name = bottom;
position = "{460, 0}";
},
{
name = center;
position = "{500, 800}";
},
{
name = top;
position = "{500, 1600}";
}
);
layerId = "5013C991-8699-46CB-BB1C-82E334DBD38B";
paths = (
{
closed = 1;
nodes = (
"380 0 LINE",
"380 1600 LINE",
"80 1600 LINE",
"80 0 LINE"
);
},
{
closed = 1;
nodes = (
"486 0 LINE SMOOTH",
"786 0 OFFCURVE",
"910 118 OFFCURVE",
"916 412 CURVE SMOOTH",
"922 690 OFFCURVE",
"922 912 OFFCURVE",
"916 1190 CURVE SMOOTH",
"910 1482 OFFCURVE",
"786 1600 OFFCURVE",
"486 1600 CURVE SMOOTH",
"480 1600 LINE",
"480 1336 LINE",
"486 1336 LINE SMOOTH",
"570 1336 OFFCURVE",
"614 1296 OFFCURVE",
"616 1226 CURVE SMOOTH",
"624 942 OFFCURVE",
"624 660 OFFCURVE",
"616 376 CURVE SMOOTH",
"614 304 OFFCURVE",
"570 264 OFFCURVE",
"486 264 CURVE SMOOTH",
"480 264 LINE",
"480 0 LINE"
);
}
);
width = 990;
},
{
anchors = (
{
name = bottom;
position = "{290, 0}";
},
{
name = center;
position = "{294, 800}";
},
{
name = top;
position = "{274, 1600}";
}
);
layerId = "3D06B89B-468F-44E0-A3D7-A5BC6911123E";
paths = (
{
closed = 1;
nodes = (
"160 0 LINE",
"160 1600 LINE",
"120 1600 LINE",
"120 0 LINE"
);
},
{
closed = 1;
nodes = (
"290 0 LINE SMOOTH",
"412 0 OFFCURVE",
"462 54 OFFCURVE",
"464 186 CURVE SMOOTH",
"470 624 OFFCURVE",
"470 974 OFFCURVE",
"464 1414 CURVE SMOOTH",
"462 1546 OFFCURVE",
"412 1600 OFFCURVE",
"292 1600 CURVE SMOOTH",
"240 1600 LINE",
"240 1560 LINE",
"292 1560 LINE SMOOTH",
"386 1560 OFFCURVE",
"422 1518 OFFCURVE",
"424 1414 CURVE SMOOTH",
"428 1004 OFFCURVE",
"428 596 OFFCURVE",
"424 186 CURVE SMOOTH",
"422 82 OFFCURVE",
"386 40 OFFCURVE",
"290 40 CURVE SMOOTH",
"240 40 LINE",
"240 0 LINE"
);
}
);
width = 572;
},
{
anchors = (
{
name = bottom;
position = "{393, 0}";
},
{
name = center;
position = "{406, 800}";
},
{
name = top;
position = "{389, 1600}";
}
);
layerId = "EB6D3A46-95FC-4F29-8169-EF2A3FEDBD5C";
paths = (
{
closed = 1;
nodes = (
"260 0 LINE",
"260 1600 LINE",
"125 1600 LINE",
"125 0 LINE"
);
},
{
closed = 1;
nodes = (
"421 0 LINE SMOOTH",
"609 0 OFFCURVE",
"686 70 OFFCURVE",
"689 243 CURVE SMOOTH",
"695 641 OFFCURVE",
"695 959 OFFCURVE",
"689 1358 CURVE SMOOTH",
"686 1530 OFFCURVE",
"606 1600 OFFCURVE",
"408 1600 CURVE SMOOTH",
"362 1600 LINE",
"362 1477 LINE",
"408 1477 LINE SMOOTH",
"517 1477 OFFCURVE",
"552 1448 OFFCURVE",
"554 1367 CURVE SMOOTH",
"564 935 OFFCURVE",
"564 666 OFFCURVE",
"554 234 CURVE SMOOTH",
"552 153 OFFCURVE",
"520 123 OFFCURVE",
"421 123 CURVE SMOOTH",
"362 123 LINE",
"362 0 LINE"
);
}
);
width = 803;
},
{
anchors = (
{
name = bottom;
position = "{333, 0}";
},
{
name = center;
position = "{346, 800}";
},
{
name = top;
position = "{331, 1600}";
}
);
layerId = "C388322D-F001-4130-A10A-708FB59AF746";
paths = (
{
closed = 1;
nodes = (
"215 0 LINE",
"215 1600 LINE",
"110 1600 LINE",
"110 0 LINE"
);
},
{
closed = 1;
nodes = (
"339 0 LINE SMOOTH",
"506 0 OFFCURVE",
"574 70 OFFCURVE",
"577 243 CURVE SMOOTH",
"583 641 OFFCURVE",
"583 959 OFFCURVE",
"577 1358 CURVE SMOOTH",
"574 1530 OFFCURVE",
"506 1600 OFFCURVE",
"341 1600 CURVE SMOOTH",
"300 1600 LINE",
"300 1504 LINE",
"341 1504 LINE SMOOTH",
"432 1504 OFFCURVE",
"470 1463 OFFCURVE",
"472 1367 CURVE SMOOTH",
"477 989 OFFCURVE",
"477 612 OFFCURVE",
"472 234 CURVE SMOOTH",
"470 138 OFFCURVE",
"432 96 OFFCURVE",
"339 96 CURVE SMOOTH",
"300 96 LINE",
"300 0 LINE"
);
}
);
width = 676;
}
);
leftKerningGroup = H;
leftMetricsKey = H;
rightKerningGroup = O;
rightMetricsKey = O;
unicode = 0044;
},
{
glyphname = Eth;
layers = (
{
components = (
{
name = D;
transform = "{1, 0, 0, 1, 98, 0}";
}
);
layerId = "3B122060-26E0-4730-9241-82784E6CB359";
paths = (
{
closed = 1;
nodes = (
"140 878 LINE",
"284 878 LINE",
"284 946 LINE",
"140 946 LINE"
);
},
{
closed = 1;
nodes = (
"382 878 LINE",
"506 878 LINE",
"506 946 LINE",
"382 946 LINE"
);
}
);
width = 816;
},
{
components = (
{
name = D;
transform = "{1, 0, 0, 1, 138, 0}";
}
);
layerId = "1DFA7D5B-2E97-4B89-827F-FB43F8066DC1";
paths = (
{
closed = 1;
nodes = (
"100 720 LINE",
"296 720 LINE",
"296 946 LINE",
"100 946 LINE"
);
},
{
closed = 1;
nodes = (
"582 720 LINE",
"716 720 LINE",
"716 946 LINE",
"582 946 LINE"
);
}
);
width = 1186;
},
{
components = (
{
name = D;
transform = "{1, 0, 0, 1, 78, 0}";
}
);
layerId = "5013C991-8699-46CB-BB1C-82E334DBD38B";
paths = (
{
closed = 1;
nodes = (
"80 720 LINE",
"314 720 LINE",
"314 946 LINE",
"80 946 LINE"
);
},
{
closed = 1;
nodes = (
"532 720 LINE",
"632 720 LINE",
"632 946 LINE",
"532 946 LINE"
);
}
);
width = 1068;
},
{
components = (
{
name = D;
transform = "{1, 0, 0, 1, 88, 0}";
}
);
layerId = "3D06B89B-468F-44E0-A3D7-A5BC6911123E";
paths = (
{
closed = 1;
nodes = (
"110 906 LINE",
"232 906 LINE",
"232 946 LINE",
"110 946 LINE"
);
},
{
closed = 1;
nodes = (
"310 906 LINE",
"412 906 LINE",
"412 946 LINE",
"310 946 LINE"
);
}
);
width = 660;
},
{
components = (
{
alignment = -1;
name = D;
transform = "{1, 0, 0, 1, 88, 0}";
}
);
layerId = "EB6D3A46-95FC-4F29-8169-EF2A3FEDBD5C";
paths = (
{
closed = 1;
nodes = (
"115 839 LINE",
"267 839 LINE",
"267 946 LINE",
"115 946 LINE"
);
},
{
closed = 1;
nodes = (
"412 839 LINE",
"539 839 LINE",
"539 946 LINE",
"412 946 LINE"
);
}
);
width = 891;
},
{
components = (
{
alignment = -1;
name = D;
transform = "{1, 0, 0, 1, 98, 0}";
}
);
layerId = "C388322D-F001-4130-A10A-708FB59AF746";
paths = (
{
closed = 1;
nodes = (
"110 860 LINE",
"265 860 LINE",
"265 946 LINE",
"110 946 LINE"
);
},
{
closed = 1;
nodes = (
"378 860 LINE",
"480 860 LINE",
"480 946 LINE",
"378 946 LINE"
);
}
);
width = 774;
}
);
leftKerningGroup = H;
leftMetricsKey = H;
rightKerningGroup = O;
rightMetricsKey = O;
unicode = 00D0;
},
{
glyphname = E;
layers = (
{
anchors = (
{
name = bottom;
position = "{362, -4}";
},
{
name = ogonek;
position = "{512, 0}";
},
{
name = top;
position = "{342, 1596}";
},
{
name = topleft;
position = "{160, 1600}";
}
);
layerId = "3B122060-26E0-4730-9241-82784E6CB359";
paths = (
{
closed = 1;
nodes = (
"220 0 LINE",
"220 1600 LINE",
"140 1600 LINE",
"140 0 LINE"
);
},
{
closed = 1;
nodes = (
"558 0 LINE",
"558 76 LINE",
"312 76 LINE",
"312 0 LINE"
);
},
{
closed = 1;
nodes = (
"538 762 LINE",
"538 838 LINE",
"312 838 LINE",
"312 762 LINE"
);
},
{
closed = 1;
nodes = (
"558 1524 LINE",
"558 1600 LINE",
"312 1600 LINE",
"312 1524 LINE"
);
}
);
width = 628;
},
{
anchors = (
{
name = bottom;
position = "{496, 0}";
},
{
name = ogonek;
position = "{628, 0}";
},
{
name = top;
position = "{468, 1600}";
},
{
name = topleft;
position = "{100, 1600}";
}
);
layerId = "1DFA7D5B-2E97-4B89-827F-FB43F8066DC1";
paths = (
{
closed = 1;
nodes = (
"400 0 LINE",
"400 1600 LINE",
"100 1600 LINE",
"100 0 LINE"
);
},
{
closed = 1;
nodes = (
"832 0 LINE",
"832 264 LINE",
"534 264 LINE",
"534 0 LINE"
);
},
{
closed = 1;
nodes = (
"812 682 LINE",
"812 946 LINE",
"534 946 LINE",
"534 682 LINE"
);
},
{
closed = 1;
nodes = (
"832 1336 LINE",
"832 1600 LINE",
"534 1600 LINE",
"534 1336 LINE"
);
}
);
width = 888;
},
{
anchors = (
{
name = bottom;
position = "{436, 0}";
},
{
name = ogonek;
position = "{560, 0}";
},
{
name = top;
position = "{430, 1600}";
},
{
name = topleft;
position = "{40, 1600}";
}
);
layerId = "5013C991-8699-46CB-BB1C-82E334DBD38B";
paths = (
{
closed = 1;
nodes = (
"380 0 LINE",
"380 1600 LINE",
"80 1600 LINE",
"80 0 LINE"
);
},
{
closed = 1;
nodes = (
"772 0 LINE",
"772 264 LINE",
"478 264 LINE",
"478 0 LINE"
);
},
{
closed = 1;
nodes = (
"752 682 LINE",
"752 946 LINE",
"478 946 LINE",
"478 682 LINE"
);
},
{
closed = 1;
nodes = (
"772 1336 LINE",
"772 1600 LINE",
"478 1600 LINE",
"478 1336 LINE"
);
}
);
width = 816;
},
{
anchors = (
{
name = bottom;
position = "{270, 0}";
},
{
name = ogonek;
position = "{392, 0}";
},
{
name = top;
position = "{270, 1600}";
},
{
name = topleft;
position = "{80, 1600}";
}
);
layerId = "3D06B89B-468F-44E0-A3D7-A5BC6911123E";
paths = (
{
closed = 1;
nodes = (
"160 0 LINE",
"160 1600 LINE",
"120 1600 LINE",
"120 0 LINE"
);
},
{
closed = 1;
nodes = (
"438 0 LINE",
"438 40 LINE",
"240 40 LINE",
"240 0 LINE"
);
},
{
closed = 1;
nodes = (
"418 780 LINE",
"418 820 LINE",
"240 820 LINE",
"240 780 LINE"
);
},
{
closed = 1;
nodes = (
"438 1560 LINE",
"438 1600 LINE",
"240 1600 LINE",
"240 1560 LINE"
);
}
);
width = 488;
},
{
anchors = (
{
name = bottom;
position = "{391, -3}";
},
{
name = ogonek;
position = "{536, 0}";
},
{
name = top;
position = "{369, 1597}";
},
{
name = topleft;
position = "{140, 1600}";
}
);
layerId = "EB6D3A46-95FC-4F29-8169-EF2A3FEDBD5C";
paths = (
{
closed = 1;
nodes = (
"260 0 LINE",
"260 1600 LINE",
"125 1600 LINE",
"125 0 LINE"
);
},
{
closed = 1;
nodes = (
"622 0 LINE",
"622 123 LINE",
"363 123 LINE",
"363 0 LINE"
);
},
{
closed = 1;
nodes = (
"602 742 LINE",
"602 865 LINE",
"363 865 LINE",
"363 742 LINE"
);
},
{
closed = 1;
nodes = (
"622 1477 LINE",
"622 1600 LINE",
"363 1600 LINE",
"363 1477 LINE"
);
}
);
width = 678;
},
{
anchors = (
{
name = bottom;
position = "{312, 0}";
},
{
name = ogonek;
position = "{434, 0}";
},
{
name = top;
position = "{310, 1600}";
},
{
name = topleft;
position = "{70, 1600}";
}
);
layerId = "C388322D-F001-4130-A10A-708FB59AF746";
paths = (
{
closed = 1;
nodes = (
"215 0 LINE",
"215 1600 LINE",
"110 1600 LINE",
"110 0 LINE"
);
},
{
closed = 1;
nodes = (
"522 0 LINE",
"522 96 LINE",
"300 96 LINE",
"300 0 LINE"
);
},
{
closed = 1;
nodes = (
"502 756 LINE",
"502 852 LINE",
"300 852 LINE",
"300 756 LINE"
);
},
{
closed = 1;
nodes = (
"522 1504 LINE",
"522 1600 LINE",
"300 1600 LINE",
"300 1504 LINE"
);
}
);
width = 568;
}
);
leftKerningGroup = H;
leftMetricsKey = H;
rightKerningGroup = E;
unicode = 0045;
},
{
glyphname = F;
layers = (
{
layerId = "3B122060-26E0-4730-9241-82784E6CB359";
paths = (
{
closed = 1;
nodes = (
"220 0 LINE",
"220 1600 LINE",
"140 1600 LINE",
"140 0 LINE"
);
},
{
closed = 1;
nodes = (
"558 762 LINE",
"558 838 LINE",
"312 838 LINE",
"312 762 LINE"
);
},
{
closed = 1;
nodes = (
"578 1524 LINE",
"578 1600 LINE",
"312 1600 LINE",
"312 1524 LINE"
);
}
);
width = 623;
},
{
layerId = "1DFA7D5B-2E97-4B89-827F-FB43F8066DC1";
paths = (
{
closed = 1;
nodes = (
"400 0 LINE",
"400 1600 LINE",
"100 1600 LINE",
"100 0 LINE"
);
},
{
closed = 1;
nodes = (
"812 682 LINE",
"812 946 LINE",
"532 946 LINE",
"532 682 LINE"
);
},
{
closed = 1;
nodes = (
"832 1336 LINE",
"832 1600 LINE",
"532 1600 LINE",
"532 1336 LINE"
);
}
);
width = 872;
},
{
layerId = "5013C991-8699-46CB-BB1C-82E334DBD38B";
paths = (
{
closed = 1;
nodes = (
"380 0 LINE",
"380 1600 LINE",
"80 1600 LINE",
"80 0 LINE"
);
},
{
closed = 1;
nodes = (
"752 682 LINE",
"752 946 LINE",
"480 946 LINE",
"480 682 LINE"
);
},
{
closed = 1;
nodes = (
"772 1336 LINE",
"772 1600 LINE",
"480 1600 LINE",
"480 1336 LINE"
);
}
);
width = 812;
},
{
layerId = "3D06B89B-468F-44E0-A3D7-A5BC6911123E";
paths = (
{
closed = 1;
nodes = (
"160 0 LINE",
"160 1600 LINE",
"120 1600 LINE",
"120 0 LINE"
);
},
{
closed = 1;
nodes = (
"418 780 LINE",
"418 820 LINE",
"220 820 LINE",
"220 780 LINE"
);
},
{
closed = 1;
nodes = (
"438 1560 LINE",
"438 1600 LINE",
"220 1600 LINE",
"220 1560 LINE"
);
}
);
width = 478;
},
{
layerId = "EB6D3A46-95FC-4F29-8169-EF2A3FEDBD5C";
paths = (
{
closed = 1;
nodes = (
"260 0 LINE",
"260 1600 LINE",
"125 1600 LINE",
"125 0 LINE"
);
},
{
closed = 1;
nodes = (
"617 742 LINE",
"617 865 LINE",
"362 865 LINE",
"362 742 LINE"
);
},
{
closed = 1;
nodes = (
"637 1477 LINE",
"637 1600 LINE",
"362 1600 LINE",
"362 1477 LINE"
);
}
);
width = 673;
},
{
layerId = "C388322D-F001-4130-A10A-708FB59AF746";
paths = (
{
closed = 1;
nodes = (
"215 0 LINE",
"215 1600 LINE",
"110 1600 LINE",
"110 0 LINE"
);
},
{
closed = 1;
nodes = (
"502 756 LINE",
"502 852 LINE",
"285 852 LINE",
"285 756 LINE"
);
},
{
closed = 1;
nodes = (
"522 1504 LINE",
"522 1600 LINE",
"285 1600 LINE",
"285 1504 LINE"
);
}
);
width = 552;
}
);
leftKerningGroup = H;
leftMetricsKey = H;
rightKerningGroup = F;
unicode = 0046;
},
{
glyphname = G;
layers = (
{
anchors = (
{
name = bottom;
position = "{356, 0}";
},
{
name = top;
position = "{356, 1600}";
}
);
background = {
paths = (
{
closed = 1;
nodes = (
"468 -20 OFFCURVE",
"550 66 OFFCURVE",
"550 180 CURVE SMOOTH",
"550 596 LINE",
"510 596 LINE",
"510 180 LINE SMOOTH",
"510 88 OFFCURVE",
"446 20 OFFCURVE",
"360 20 CURVE SMOOTH",
"274 20 OFFCURVE",
"210 88 OFFCURVE",
"210 180 CURVE SMOOTH",
"210 1420 LINE SMOOTH",
"210 1512 OFFCURVE",
"274 1580 OFFCURVE",
"360 1580 CURVE SMOOTH",
"446 1580 OFFCURVE",
"510 1512 OFFCURVE",
"510 1420 CURVE SMOOTH",
"510 1140 LINE",
"550 1140 LINE",
"550 1420 LINE SMOOTH",
"550 1534 OFFCURVE",
"468 1620 OFFCURVE",
"360 1620 CURVE SMOOTH",
"252 1620 OFFCURVE",
"170 1534 OFFCURVE",
"170 1420 CURVE SMOOTH",
"170 180 LINE SMOOTH",
"170 66 OFFCURVE",
"252 -20 OFFCURVE",
"360 -20 CURVE SMOOTH"
);
},
{
closed = 1;
nodes = (
"334 596 LINE",
"550 596 LINE",
"550 636 LINE",
"334 636 LINE"
);
}
);
};
layerId = "3B122060-26E0-4730-9241-82784E6CB359";
paths = (
{
closed = 1;
nodes = (
"312 67 LINE",
"217 74 OFFCURVE",
"196 107 OFFCURVE",
"194 196 CURVE SMOOTH",
"186 670 OFFCURVE",
"186 930 OFFCURVE",
"194 1404 CURVE SMOOTH",
"196 1493 OFFCURVE",
"218 1526 OFFCURVE",
"312 1533 CURVE",
"312 1609 LINE",
"168 1599 OFFCURVE",
"116 1539 OFFCURVE",
"114 1404 CURVE SMOOTH",
"108 972 OFFCURVE",
"108 628 OFFCURVE",
"114 196 CURVE SMOOTH",
"116 61 OFFCURVE",
"167 1 OFFCURVE",
"312 -9 CURVE"
);
},
{
closed = 1;
nodes = (
"550 1 OFFCURVE",
"604 61 OFFCURVE",
"606 196 CURVE SMOOTH",
"608 318 OFFCURVE",
"608 422 OFFCURVE",
"606 614 CURVE",
"340 614 LINE",
"340 534 LINE",
"526 534 LINE",
"528 406 OFFCURVE",
"528 324 OFFCURVE",
"526 196 CURVE SMOOTH",
"524 106 OFFCURVE",
"502 74 OFFCURVE",
"402 67 CURVE",
"402 -9 LINE"
);
},
{
closed = 1;
nodes = (
"598 1070 LINE",
"602 1196 OFFCURVE",
"602 1278 OFFCURVE",
"598 1404 CURVE SMOOTH",
"594 1538 OFFCURVE",
"543 1598 OFFCURVE",
"402 1608 CURVE",
"402 1532 LINE",
"493 1525 OFFCURVE",
"515 1493 OFFCURVE",
"518 1404 CURVE SMOOTH",
"522 1278 OFFCURVE",
"522 1196 OFFCURVE",
"518 1070 CURVE"
);
}
);
width = 699;
},
{
anchors = (
{
name = bottom;
position = "{520, 0}";
},
{
name = top;
position = "{520, 1600}";
}
);
background = {
paths = (
{
closed = 1;
nodes = (
"540 -20 OFFCURVE",
"666 108 OFFCURVE",
"666 280 CURVE SMOOTH",
"666 600 LINE",
"466 600 LINE",
"466 280 LINE SMOOTH",
"466 222 OFFCURVE",
"426 180 OFFCURVE",
"374 180 CURVE SMOOTH",
"324 180 OFFCURVE",
"286 222 OFFCURVE",
"286 280 CURVE SMOOTH",
"286 1320 LINE SMOOTH",
"286 1378 OFFCURVE",
"324 1420 OFFCURVE",
"374 1420 CURVE SMOOTH",
"426 1420 OFFCURVE",
"466 1378 OFFCURVE",
"466 1320 CURVE SMOOTH",
"466 1000 LINE",
"666 1000 LINE",
"666 1320 LINE SMOOTH",
"666 1492 OFFCURVE",
"540 1620 OFFCURVE",
"374 1620 CURVE SMOOTH",
"210 1620 OFFCURVE",
"86 1492 OFFCURVE",
"86 1320 CURVE SMOOTH",
"86 280 LINE SMOOTH",
"86 108 OFFCURVE",
"210 -20 OFFCURVE",
"374 -20 CURVE SMOOTH"
);
},
{
closed = 1;
nodes = (
"372 600 LINE",
"666 600 LINE",
"666 800 LINE",
"372 800 LINE"
);
}
);
};
layerId = "1DFA7D5B-2E97-4B89-827F-FB43F8066DC1";
paths = (
{
closed = 1;
nodes = (
"462 232 LINE",
"413 246 OFFCURVE",
"390 282 OFFCURVE",
"386 346 CURVE SMOOTH",
"370 626 OFFCURVE",
"370 976 OFFCURVE",
"386 1256 CURVE SMOOTH",
"390 1319 OFFCURVE",
"413 1354 OFFCURVE",
"462 1368 CURVE",
"462 1618 LINE",
"206 1601 OFFCURVE",
"97 1477 OFFCURVE",
"86 1202 CURVE SMOOTH",
"78 986 OFFCURVE",
"78 606 OFFCURVE",
"86 382 CURVE SMOOTH",
"95 116 OFFCURVE",
"204 -2 OFFCURVE",
"462 -18 CURVE"
);
},
{
closed = 1;
nodes = (
"847 -1 OFFCURVE",
"955 116 OFFCURVE",
"968 382 CURVE SMOOTH",
"974 504 OFFCURVE",
"976 660 OFFCURVE",
"970 782 CURVE",
"568 782 LINE",
"568 522 LINE",
"678 522 LINE",
"682 476 OFFCURVE",
"682 392 OFFCURVE",
"678 346 CURVE SMOOTH",
"672 281 OFFCURVE",
"647 245 OFFCURVE",
"594 231 CURVE",
"594 -18 LINE"
);
},
{
closed = 1;
nodes = (
"964 1000 LINE",
"968 1062 OFFCURVE",
"968 1158 OFFCURVE",
"964 1220 CURVE SMOOTH",
"947 1484 OFFCURVE",
"841 1601 OFFCURVE",
"594 1618 CURVE",
"594 1367 LINE",
"639 1352 OFFCURVE",
"660 1317 OFFCURVE",
"664 1256 CURVE SMOOTH",
"668 1168 OFFCURVE",
"668 1088 OFFCURVE",
"664 1000 CURVE"
);
}
);
width = 1044;
},
{
anchors = (
{
name = bottom;
position = "{490, 0}";
},
{
name = top;
position = "{490, 1600}";
}
);
background = {
paths = (
{
closed = 1;
nodes = (
"510 -20 OFFCURVE",
"636 108 OFFCURVE",
"636 280 CURVE SMOOTH",
"636 600 LINE",
"436 600 LINE",
"436 280 LINE SMOOTH",
"436 222 OFFCURVE",
"396 180 OFFCURVE",
"344 180 CURVE SMOOTH",
"294 180 OFFCURVE",
"256 222 OFFCURVE",
"256 280 CURVE SMOOTH",
"256 1320 LINE SMOOTH",
"256 1378 OFFCURVE",
"294 1420 OFFCURVE",
"344 1420 CURVE SMOOTH",
"396 1420 OFFCURVE",
"436 1378 OFFCURVE",
"436 1320 CURVE SMOOTH",
"436 1000 LINE",
"636 1000 LINE",
"636 1320 LINE SMOOTH",
"636 1492 OFFCURVE",
"510 1620 OFFCURVE",
"344 1620 CURVE SMOOTH",
"180 1620 OFFCURVE",
"56 1492 OFFCURVE",
"56 1320 CURVE SMOOTH",
"56 280 LINE SMOOTH",
"56 108 OFFCURVE",
"180 -20 OFFCURVE",
"344 -20 CURVE SMOOTH"
);
},
{
closed = 1;
nodes = (
"342 600 LINE",
"636 600 LINE",
"636 800 LINE",
"342 800 LINE"
);
}
);
};
layerId = "5013C991-8699-46CB-BB1C-82E334DBD38B";
paths = (
{
closed = 1;
nodes = (
"448 230 LINE",
"403 243 OFFCURVE",
"379 276 OFFCURVE",
"376 326 CURVE SMOOTH",
"360 606 OFFCURVE",
"360 996 OFFCURVE",
"376 1276 CURVE SMOOTH",
"379 1325 OFFCURVE",
"403 1357 OFFCURVE",
"448 1370 CURVE",
"448 1619 LINE",
"189 1606 OFFCURVE",
"87 1488 OFFCURVE",
"76 1202 CURVE SMOOTH",
"68 986 OFFCURVE",
"68 606 OFFCURVE",
"76 382 CURVE SMOOTH",
"85 110 OFFCURVE",
"184 -6 OFFCURVE",
"448 -19 CURVE"
);
},
{
closed = 1;
nodes = (
"798 -6 OFFCURVE",
"905 111 OFFCURVE",
"918 382 CURVE SMOOTH",
"924 504 OFFCURVE",
"926 660 OFFCURVE",
"920 782 CURVE",
"518 782 LINE",
"518 522 LINE",
"628 522 LINE",
"632 476 OFFCURVE",
"632 372 OFFCURVE",
"628 326 CURVE SMOOTH",
"623 276 OFFCURVE",
"595 243 OFFCURVE",
"548 230 CURVE",
"548 -19 LINE"
);
},
{
closed = 1;
nodes = (
"914 1000 LINE",
"918 1062 OFFCURVE",
"918 1158 OFFCURVE",
"914 1220 CURVE SMOOTH",
"897 1488 OFFCURVE",
"792 1605 OFFCURVE",
"548 1619 CURVE",
"548 1368 LINE",
"588 1355 OFFCURVE",
"611 1323 OFFCURVE",
"614 1276 CURVE SMOOTH",
"618 1202 OFFCURVE",
"618 1074 OFFCURVE",
"614 1000 CURVE"
);
}
);
width = 986;
},
{
anchors = (
{
name = bottom;
position = "{274, 0}";
},
{
name = top;
position = "{274, 1600}";
}
);
background = {
paths = (
{
closed = 1;
nodes = (
"422 -20 OFFCURVE",
"504 66 OFFCURVE",
"504 180 CURVE SMOOTH",
"504 596 LINE",
"464 596 LINE",
"464 180 LINE SMOOTH",
"464 88 OFFCURVE",
"400 20 OFFCURVE",
"314 20 CURVE SMOOTH",
"228 20 OFFCURVE",
"164 88 OFFCURVE",
"164 180 CURVE SMOOTH",
"164 1420 LINE SMOOTH",
"164 1512 OFFCURVE",
"228 1580 OFFCURVE",
"314 1580 CURVE SMOOTH",
"400 1580 OFFCURVE",
"464 1512 OFFCURVE",
"464 1420 CURVE SMOOTH",
"464 1140 LINE",
"504 1140 LINE",
"504 1420 LINE SMOOTH",
"504 1534 OFFCURVE",
"422 1620 OFFCURVE",
"314 1620 CURVE SMOOTH",
"206 1620 OFFCURVE",
"124 1534 OFFCURVE",
"124 1420 CURVE SMOOTH",
"124 180 LINE SMOOTH",
"124 66 OFFCURVE",
"206 -20 OFFCURVE",
"314 -20 CURVE SMOOTH"
);
},
{
closed = 1;
nodes = (
"288 596 LINE",
"504 596 LINE",
"504 636 LINE",
"288 636 LINE"
);
}
);
};
layerId = "3D06B89B-468F-44E0-A3D7-A5BC6911123E";
paths = (
{
closed = 1;
nodes = (
"240 33 LINE",
"175 45 OFFCURVE",
"148 89 OFFCURVE",
"148 176 CURVE SMOOTH",
"144 622 OFFCURVE",
"144 978 OFFCURVE",
"148 1424 CURVE SMOOTH",
"150 1511 OFFCURVE",
"177 1555 OFFCURVE",
"240 1567 CURVE",
"240 1608 LINE",
"149 1596 OFFCURVE",
"110 1540 OFFCURVE",
"108 1424 CURVE SMOOTH",
"102 978 OFFCURVE",
"102 622 OFFCURVE",
"108 176 CURVE SMOOTH",
"110 60 OFFCURVE",
"148 5 OFFCURVE",
"240 -7 CURVE"
);
},
{
closed = 1;
nodes = (
"417 3 OFFCURVE",
"458 58 OFFCURVE",
"460 176 CURVE SMOOTH",
"462 398 OFFCURVE",
"462 522 OFFCURVE",
"460 614 CURVE",
"274 614 LINE",
"274 574 LINE",
"420 574 LINE",
"422 432 OFFCURVE",
"422 318 OFFCURVE",
"420 176 CURVE SMOOTH",
"418 87 OFFCURVE",
"389 43 OFFCURVE",
"320 33 CURVE",
"320 -8 LINE"
);
},
{
closed = 1;
nodes = (
"452 1070 LINE",
"456 1196 OFFCURVE",
"456 1298 OFFCURVE",
"452 1424 CURVE SMOOTH",
"448 1540 OFFCURVE",
"409 1596 OFFCURVE",
"320 1608 CURVE",
"320 1567 LINE",
"382 1555 OFFCURVE",
"409 1511 OFFCURVE",
"412 1424 CURVE SMOOTH",
"416 1298 OFFCURVE",
"416 1196 OFFCURVE",
"412 1070 CURVE"
);
}
);
width = 545;
},
{
anchors = (
{
name = bottom;
position = "{405, 0}";
},
{
name = top;
position = "{405, 1600}";
}
);
layerId = "EB6D3A46-95FC-4F29-8169-EF2A3FEDBD5C";
paths = (
{
closed = 1;
nodes = (
"357 109 LINE",
"274 117 OFFCURVE",
"252 151 OFFCURVE",
"250 234 CURVE SMOOTH",
"240 659 OFFCURVE",
"240 942 OFFCURVE",
"250 1367 CURVE SMOOTH",
"252 1450 OFFCURVE",
"274 1483 OFFCURVE",
"357 1492 CURVE",
"357 1611 LINE",
"185 1600 OFFCURVE",
"119 1524 OFFCURVE",
"115 1354 CURVE SMOOTH",
"108 976 OFFCURVE",
"108 623 OFFCURVE",
"115 243 CURVE SMOOTH",
"118 75 OFFCURVE",
"184 0 OFFCURVE",
"357 -11 CURVE"
);
},
{
closed = 1;
nodes = (
"632 0 OFFCURVE",
"699 74 OFFCURVE",
"704 243 CURVE SMOOTH",
"707 365 OFFCURVE",
"708 482 OFFCURVE",
"705 656 CURVE",
"405 656 LINE",
"405 531 LINE",
"572 531 LINE",
"574 424 OFFCURVE",
"574 341 OFFCURVE",
"572 234 CURVE SMOOTH",
"569 150 OFFCURVE",
"546 116 OFFCURVE",
"458 108 CURVE",
"458 -11 LINE"
);
},
{
closed = 1;
nodes = (
"697 1053 LINE",
"701 1163 OFFCURVE",
"701 1248 OFFCURVE",
"697 1358 CURVE SMOOTH",
"690 1525 OFFCURVE",
"625 1599 OFFCURVE",
"458 1611 CURVE",
"458 1491 LINE",
"537 1482 OFFCURVE",
"558 1449 OFFCURVE",
"562 1367 CURVE SMOOTH",
"566 1251 OFFCURVE",
"566 1169 OFFCURVE",
"562 1053 CURVE"
);
}
);
width = 797;
},
{
anchors = (
{
name = bottom;
position = "{328, 0}";
},
{
name = top;
position = "{328, 1600}";
}
);
layerId = "C388322D-F001-4130-A10A-708FB59AF746";
paths = (
{
closed = 1;
nodes = (
"292 83 LINE",
"231 95 OFFCURVE",
"205 136 OFFCURVE",
"205 214 CURVE SMOOTH",
"198 618 OFFCURVE",
"198 983 OFFCURVE",
"205 1387 CURVE SMOOTH",
"207 1465 OFFCURVE",
"233 1505 OFFCURVE",
"292 1517 CURVE",
"292 1610 LINE",
"158 1599 OFFCURVE",
"104 1527 OFFCURVE",
"100 1369 CURVE SMOOTH",
"93 980 OFFCURVE",
"93 618 OFFCURVE",
"100 228 CURVE SMOOTH",
"103 73 OFFCURVE",
"157 2 OFFCURVE",
"292 -10 CURVE"
);
},
{
closed = 1;
nodes = (
"512 1 OFFCURVE",
"569 72 OFFCURVE",
"574 228 CURVE SMOOTH",
"577 425 OFFCURVE",
"578 557 OFFCURVE",
"575 656 CURVE",
"335 656 LINE",
"335 561 LINE",
"472 561 LINE",
"474 443 OFFCURVE",
"474 332 OFFCURVE",
"472 214 CURVE SMOOTH",
"469 134 OFFCURVE",
"440 93 OFFCURVE",
"377 82 CURVE",
"377 -11 LINE"
);
},
{
closed = 1;
nodes = (
"567 1053 LINE",
"571 1163 OFFCURVE",
"571 1263 OFFCURVE",
"567 1373 CURVE SMOOTH",
"560 1527 OFFCURVE",
"505 1598 OFFCURVE",
"377 1610 CURVE",
"377 1517 LINE",
"433 1505 OFFCURVE",
"459 1464 OFFCURVE",
"462 1387 CURVE SMOOTH",
"466 1274 OFFCURVE",
"466 1166 OFFCURVE",
"462 1053 CURVE"
);
}
);
width = 651;
}
);
leftKerningGroup = O;
leftMetricsKey = O;
rightKerningGroup = G;
unicode = 0047;
},
{
glyphname = H;
layers = (
{
anchors = (
{
name = bottom;
position = "{380, 0}";
},
{
name = center;
position = "{380, 800}";
},
{
name = top;
position = "{380, 1600}";
},
{
name = topleft;
position = "{100, 1600}";
}
);
layerId = "3B122060-26E0-4730-9241-82784E6CB359";
paths = (
{
closed = 1;
nodes = (
"220 0 LINE",
"220 1600 LINE",
"140 1600 LINE",
"140 0 LINE"
);
},
{
closed = 1;
nodes = (
"448 762 LINE",
"468 838 LINE",
"179 838 LINE",
"179 762 LINE"
);
},
{
closed = 1;
nodes = (
"620 0 LINE",
"620 1600 LINE",
"540 1600 LINE",
"540 0 LINE"
);
}
);
width = 760;
},
{
anchors = (
{
name = bottom;
position = "{526, 0}";
},
{
name = center;
position = "{526, 800}";
},
{
name = top;
position = "{526, 1600}";
},
{
name = topleft;
position = "{60, 1600}";
}
);
layerId = "1DFA7D5B-2E97-4B89-827F-FB43F8066DC1";
paths = (
{
closed = 1;
nodes = (
"400 0 LINE",
"400 1600 LINE",
"100 1600 LINE",
"100 0 LINE"
);
},
{
closed = 1;
nodes = (
"516 682 LINE",
"586 946 LINE",
"300 946 LINE",
"300 682 LINE"
);
},
{
closed = 1;
nodes = (
"950 0 LINE",
"950 1600 LINE",
"650 1600 LINE",
"650 0 LINE"
);
}
);
width = 1050;
},
{
anchors = (
{
name = bottom;
position = "{486, 0}";
},
{
name = center;
position = "{486, 800}";
},
{
name = top;
position = "{486, 1600}";
},
{
name = topleft;
position = "{40, 1600}";
}
);
layerId = "5013C991-8699-46CB-BB1C-82E334DBD38B";
paths = (
{
closed = 1;
nodes = (
"380 0 LINE",
"380 1600 LINE",
"80 1600 LINE",
"80 0 LINE"
);
},
{
closed = 1;
nodes = (
"460 682 LINE",
"530 946 LINE",
"260 946 LINE",
"260 682 LINE"
);
},
{
closed = 1;
nodes = (
"890 0 LINE",
"890 1600 LINE",
"590 1600 LINE",
"590 0 LINE"
);
}
);
width = 970;
},
{
anchors = (
{
name = bottom;
position = "{300, 0}";
},
{
name = center;
position = "{300, 800}";
},
{
name = top;
position = "{300, 1600}";
},
{
name = topleft;
position = "{520, 1600}";
}
);
layerId = "3D06B89B-468F-44E0-A3D7-A5BC6911123E";
paths = (
{
closed = 1;
nodes = (
"160 0 LINE",
"160 1600 LINE",
"120 1600 LINE",
"120 0 LINE"
);
},
{
closed = 1;
nodes = (
"370 780 LINE",
"380 820 LINE",
"142 820 LINE",
"142 780 LINE"
);
},
{
closed = 1;
nodes = (
"480 0 LINE",
"480 1600 LINE",
"440 1600 LINE",
"440 0 LINE"
);
}
);
width = 600;
},
{
anchors = (
{
name = bottom;
position = "{412, 0}";
},
{
name = center;
position = "{412, 800}";
},
{
name = top;
position = "{412, 1600}";
},
{
name = topleft;
position = "{85, 1600}";
}
);
layerId = "EB6D3A46-95FC-4F29-8169-EF2A3FEDBD5C";
paths = (
{
closed = 1;
nodes = (
"260 0 LINE",
"260 1600 LINE",
"125 1600 LINE",
"125 0 LINE"
);
},
{
closed = 1;
nodes = (
"460 742 LINE",
"493 865 LINE",
"197 865 LINE",
"197 742 LINE"
);
},
{
closed = 1;
nodes = (
"698 0 LINE",
"698 1600 LINE",
"563 1600 LINE",
"563 0 LINE"
);
}
);
width = 823;
},
{
anchors = (
{
name = bottom;
position = "{347, 0}";
},
{
name = center;
position = "{347, 800}";
},
{
name = top;
position = "{347, 1600}";
},
{
name = topleft;
position = "{400, 1600}";
}
);
layerId = "C388322D-F001-4130-A10A-708FB59AF746";
paths = (
{
closed = 1;
nodes = (
"215 0 LINE",
"215 1600 LINE",
"110 1600 LINE",
"110 0 LINE"
);
},
{
closed = 1;
nodes = (
"393 756 LINE",
"418 852 LINE",
"172 852 LINE",
"172 756 LINE"
);
},
{
closed = 1;
nodes = (
"583 0 LINE",
"583 1600 LINE",
"478 1600 LINE",
"478 0 LINE"
);
}
);
width = 693;
}
);
leftKerningGroup = H;
rightKerningGroup = H;
unicode = 0048;
},
{
glyphname = Hbar;
layers = (
{
components = (
{
name = H;
transform = "{1, 0, 0, 1, 66, 0}";
}
);
layerId = "3B122060-26E0-4730-9241-82784E6CB359";
paths = (
{
closed = 1;
nodes = (
"140 1142 LINE",
"284 1142 LINE",
"284 1210 LINE",
"140 1210 LINE"
);
},
{
closed = 1;
nodes = (
"342 1142 LINE",
"752 1142 LINE",
"752 1210 LINE",
"342 1210 LINE"
);
}
);
width = 892;
},
{
components = (
{
name = H;
transform = "{1, 0, 0, 1, 46, 0}";
}
);
layerId = "1DFA7D5B-2E97-4B89-827F-FB43F8066DC1";
leftMetricsKey = "=30";
rightMetricsKey = "=30";
paths = (
{
closed = 1;
nodes = (
"30 1054 LINE",
"352 1054 LINE",
"352 1280 LINE",
"30 1280 LINE"
);
},
{
closed = 1;
nodes = (
"526 1054 LINE",
"1072 1054 LINE",
"1072 1280 LINE",
"526 1280 LINE"
);
}
);
width = 1102;
},
{
components = (
{
name = H;
transform = "{1, 0, 0, 1, 66, 0}";
}
);
layerId = "5013C991-8699-46CB-BB1C-82E334DBD38B";
leftMetricsKey = "=30";
rightMetricsKey = "=30";
paths = (
{
closed = 1;
nodes = (
"30 1054 LINE",
"326 1054 LINE",
"326 1280 LINE",
"30 1280 LINE"
);
},
{
closed = 1;
nodes = (
"538 1054 LINE",
"1062 1054 LINE",
"1062 1280 LINE",
"538 1280 LINE"
);
}
);
width = 1092;
},
{
components = (
{
name = H;
transform = "{1, 0, 0, 1, -19, 0}";
}
);
layerId = "3D06B89B-468F-44E0-A3D7-A5BC6911123E";
leftMetricsKey = "=15";
rightMetricsKey = "=15";
paths = (
{
closed = 1;
nodes = (
"15 1160 LINE",
"115 1160 LINE",
"115 1200 LINE",
"15 1200 LINE"
);
},
{
closed = 1;
nodes = (
"223 1160 LINE",
"545 1160 LINE",
"545 1200 LINE",
"223 1200 LINE"
);
}
);
width = 560;
},
{
components = (
{
alignment = -1;
name = H;
transform = "{1, 0, 0, 1, 10, 0}";
}
);
layerId = "EB6D3A46-95FC-4F29-8169-EF2A3FEDBD5C";
leftMetricsKey = "=62";
rightMetricsKey = "=62";
paths = (
{
closed = 1;
nodes = (
"62 1120 LINE",
"250 1120 LINE",
"250 1228 LINE",
"62 1228 LINE"
);
},
{
closed = 1;
nodes = (
"338 1120 LINE",
"782 1120 LINE",
"782 1228 LINE",
"338 1228 LINE"
);
}
);
width = 844;
},
{
components = (
{
alignment = -1;
name = H;
transform = "{1, 0, 0, 1, 39, 0}";
}
);
layerId = "C388322D-F001-4130-A10A-708FB59AF746";
leftMetricsKey = "=55";
paths = (
{
closed = 1;
nodes = (
"55 1134 LINE",
"203 1134 LINE",
"203 1220 LINE",
"55 1220 LINE"
);
},
{
closed = 1;
nodes = (
"337 1134 LINE",
"711 1134 LINE",
"711 1220 LINE",
"337 1220 LINE"
);
}
);
width = 821;
}
);
leftKerningGroup = H;
leftMetricsKey = H;
rightKerningGroup = H;
rightMetricsKey = H;
unicode = 0126;
},
{
glyphname = I;
layers = (
{
anchors = (
{
name = bottom;
position = "{180, 0}";
},
{
name = ogonek;
position = "{178, 0}";
},
{
name = top;
position = "{180, 1600}";
},
{
name = topleft;
position = "{100, 1600}";
}
);
layerId = "3B122060-26E0-4730-9241-82784E6CB359";
paths = (
{
closed = 1;
nodes = (
"220 0 LINE",
"220 1600 LINE",
"140 1600 LINE",
"140 0 LINE"
);
}
);
width = 360;
},
{
anchors = (
{
name = bottom;
position = "{250, 0}";
},
{
name = ogonek;
position = "{208, 0}";
},
{
name = top;
position = "{250, 1600}";
},
{
name = topleft;
position = "{60, 1600}";
}
);
layerId = "1DFA7D5B-2E97-4B89-827F-FB43F8066DC1";
paths = (
{
closed = 1;
nodes = (
"400 0 LINE",
"400 1600 LINE",
"100 1600 LINE",
"100 0 LINE"
);
}
);
width = 500;
},
{
anchors = (
{
name = bottom;
position = "{230, 0}";
},
{
name = ogonek;
position = "{181, 0}";
},
{
name = top;
position = "{230, 1600}";
},
{
name = topleft;
position = "{40, 1600}";
}
);
layerId = "5013C991-8699-46CB-BB1C-82E334DBD38B";
paths = (
{
closed = 1;
nodes = (
"380 0 LINE",
"380 1600 LINE",
"80 1600 LINE",
"80 0 LINE"
);
}
);
width = 460;
},
{
anchors = (
{
name = bottom;
position = "{140, 0}";
},
{
name = ogonek;
position = "{142, 0}";
},
{
name = top;
position = "{140, 1600}";
},
{
name = topleft;
position = "{80, 1600}";
}
);
layerId = "3D06B89B-468F-44E0-A3D7-A5BC6911123E";
paths = (
{
closed = 1;
nodes = (
"160 0 LINE",
"160 1600 LINE",
"120 1600 LINE",
"120 0 LINE"
);
}
);
width = 280;
},
{
anchors = (
{
name = bottom;
position = "{193, 0}";
},
{
name = ogonek;
position = "{181, 0}";
},
{
name = top;
position = "{193, 1600}";
},
{
name = topleft;
position = "{85, 1600}";
}
);
layerId = "EB6D3A46-95FC-4F29-8169-EF2A3FEDBD5C";
paths = (
{
closed = 1;
nodes = (
"260 0 LINE",
"260 1600 LINE",
"125 1600 LINE",
"125 0 LINE"
);
}
);
width = 385;
},
{
anchors = (
{
name = bottom;
position = "{163, 0}";
},
{
name = ogonek;
position = "{152, 0}";
},
{
name = top;
position = "{163, 1600}";
},
{
name = topleft;
position = "{70, 1600}";
}
);
layerId = "C388322D-F001-4130-A10A-708FB59AF746";
paths = (
{
closed = 1;
nodes = (
"215 0 LINE",
"215 1600 LINE",
"110 1600 LINE",
"110 0 LINE"
);
}
);
width = 325;
}
);
leftKerningGroup = H;
leftMetricsKey = H;
rightKerningGroup = H;
rightMetricsKey = H;
unicode = 0049;
},
{
glyphname = J;
layers = (
{
anchors = (
{
name = bottom;
position = "{292, 0}";
},
{
name = top;
position = "{332, 1600}";
}
);
layerId = "3B122060-26E0-4730-9241-82784E6CB359";
paths = (
{
closed = 1;
nodes = (
"238 69 LINE",
"171 79 OFFCURVE",
"151 114 OFFCURVE",
"148 196 CURVE SMOOTH",
"142 326 OFFCURVE",
"144 436 OFFCURVE",
"148 566 CURVE",
"68 566 LINE",
"64 426 OFFCURVE",
"64 336 OFFCURVE",
"68 196 CURVE SMOOTH",
"72 64 OFFCURVE",
"121 4 OFFCURVE",
"238 -8 CURVE"
);
},
{
closed = 1;
nodes = (
"462 2 OFFCURVE",
"516 63 OFFCURVE",
"516 196 CURVE SMOOTH",
"516 1600 LINE",
"436 1600 LINE",
"436 196 LINE SMOOTH",
"436 112 OFFCURVE",
"412 76 OFFCURVE",
"330 68 CURVE",
"330 -8 LINE"
);
}
);
width = 638;
},
{
anchors = (
{
name = bottom;
position = "{459, -20}";
},
{
name = top;
position = "{515, 1600}";
}
);
layerId = "1DFA7D5B-2E97-4B89-827F-FB43F8066DC1";
paths = (
{
closed = 1;
nodes = (
"393 232 LINE",
"346 247 OFFCURVE",
"324 282 OFFCURVE",
"323 346 CURVE SMOOTH",
"321 418 OFFCURVE",
"321 528 OFFCURVE",
"323 600 CURVE",
"41 600 LINE",
"39 536 OFFCURVE",
"39 446 OFFCURVE",
"41 382 CURVE SMOOTH",
"48 117 OFFCURVE",
"151 -1 OFFCURVE",
"393 -18 CURVE"
);
},
{
closed = 1;
nodes = (
"785 -2 OFFCURVE",
"889 116 OFFCURVE",
"889 382 CURVE SMOOTH",
"889 1600 LINE",
"589 1600 LINE",
"589 346 LINE SMOOTH",
"589 283 OFFCURVE",
"570 248 OFFCURVE",
"525 233 CURVE",
"525 -18 LINE"
);
}
);
width = 971;
},
{
anchors = (
{
name = bottom;
position = "{433, -20}";
},
{
name = top;
position = "{489, 1600}";
}
);
layerId = "5013C991-8699-46CB-BB1C-82E334DBD38B";
paths = (
{
closed = 1;
nodes = (
"383 230 LINE",
"339 243 OFFCURVE",
"319 276 OFFCURVE",
"317 326 CURVE SMOOTH",
"315 398 OFFCURVE",
"315 528 OFFCURVE",
"317 600 CURVE",
"35 600 LINE",
"33 536 OFFCURVE",
"33 446 OFFCURVE",
"35 382 CURVE SMOOTH",
"43 111 OFFCURVE",
"128 -6 OFFCURVE",
"383 -19 CURVE"
);
},
{
closed = 1;
nodes = (
"747 -6 OFFCURVE",
"843 110 OFFCURVE",
"843 382 CURVE SMOOTH",
"843 1600 LINE",
"543 1600 LINE",
"543 326 LINE SMOOTH",
"543 276 OFFCURVE",
"525 244 OFFCURVE",
"483 231 CURVE",
"483 -19 LINE"
);
}
);
width = 905;
},
{
anchors = (
{
name = bottom;
position = "{249, 0}";
},
{
name = top;
position = "{289, 1600}";
}
);
layerId = "3D06B89B-468F-44E0-A3D7-A5BC6911123E";
paths = (
{
closed = 1;
nodes = (
"201 33 LINE",
"133 44 OFFCURVE",
"108 88 OFFCURVE",
"105 176 CURVE SMOOTH",
"101 306 OFFCURVE",
"101 436 OFFCURVE",
"105 566 CURVE",
"65 566 LINE",
"61 426 OFFCURVE",
"61 316 OFFCURVE",
"65 176 CURVE SMOOTH",
"67 59 OFFCURVE",
"106 3 OFFCURVE",
"201 -8 CURVE"
);
},
{
closed = 1;
nodes = (
"374 4 OFFCURVE",
"413 59 OFFCURVE",
"413 176 CURVE SMOOTH",
"413 1600 LINE",
"373 1600 LINE",
"373 176 LINE SMOOTH",
"373 88 OFFCURVE",
"346 45 OFFCURVE",
"281 33 CURVE",
"281 -8 LINE"
);
}
);
width = 515;
},
{
anchors = (
{
name = bottom;
position = "{332, -5}";
},
{
name = top;
position = "{376, 1600}";
}
);
layerId = "EB6D3A46-95FC-4F29-8169-EF2A3FEDBD5C";
paths = (
{
closed = 1;
nodes = (
"275 110 LINE",
"213 121 OFFCURVE",
"192 156 OFFCURVE",
"190 234 CURVE SMOOTH",
"185 349 OFFCURVE",
"186 459 OFFCURVE",
"190 575 CURVE",
"59 575 LINE",
"56 454 OFFCURVE",
"56 364 OFFCURVE",
"59 243 CURVE SMOOTH",
"64 77 OFFCURVE",
"126 3 OFFCURVE",
"275 -10 CURVE"
);
},
{
closed = 1;
nodes = (
"541 1 OFFCURVE",
"607 76 OFFCURVE",
"607 243 CURVE SMOOTH",
"607 1600 LINE",
"472 1600 LINE",
"472 234 LINE SMOOTH",
"472 155 OFFCURVE",
"449 119 OFFCURVE",
"377 109 CURVE",
"377 -11 LINE"
);
}
);
width = 714;
},
{
anchors = (
{
name = bottom;
position = "{300, -5}";
},
{
name = top;
position = "{344, 1600}";
}
);
layerId = "C388322D-F001-4130-A10A-708FB59AF746";
paths = (
{
closed = 1;
nodes = (
"251 82 LINE",
"189 94 OFFCURVE",
"165 135 OFFCURVE",
"163 214 CURVE SMOOTH",
"159 329 OFFCURVE",
"159 459 OFFCURVE",
"163 575 CURVE",
"62 575 LINE",
"59 454 OFFCURVE",
"59 349 OFFCURVE",
"62 228 CURVE SMOOTH",
"65 72 OFFCURVE",
"116 1 OFFCURVE",
"251 -11 CURVE"
);
},
{
closed = 1;
nodes = (
"472 1 OFFCURVE",
"525 72 OFFCURVE",
"525 228 CURVE SMOOTH",
"525 1600 LINE",
"420 1600 LINE",
"420 214 LINE SMOOTH",
"420 135 OFFCURVE",
"395 94 OFFCURVE",
"336 83 CURVE",
"336 -11 LINE"
);
}
);
width = 617;
}
);
leftKerningGroup = J;
rightKerningGroup = J;
rightMetricsKey = "=H-18";
unicode = 004A;
},
{
glyphname = K;
layers = (
{
anchors = (
{
name = bottom;
position = "{370, 0}";
},
{
name = top;
position = "{350, 1600}";
}
);
background = {
paths = (
{
closed = 1;
nodes = (
"342 722 LINE",
"378 838 LINE",
"604 1600 LINE",
"520 1600 LINE",
"426 1282 LINE",
"256 698 LINE",
"210 698 LINE",
"206 318 LINE"
);
},
{
closed = 1;
nodes = (
"220 0 LINE",
"220 774 LINE",
"220 796 LINE",
"220 1284 LINE",
"220 1600 LINE",
"140 1600 LINE",
"140 0 LINE"
);
},
{
closed = 1;
nodes = (
"636 0 LINE",
"382 854 LINE",
"304 844 LINE",
"550 0 LINE"
);
}
);
};
layerId = "3B122060-26E0-4730-9241-82784E6CB359";
paths = (
{
closed = 1;
nodes = (
"220 0 LINE",
"220 304 LINE",
"604 1600 LINE",
"520 1600 LINE",
"426 1282 LINE",
"256 698 LINE",
"140 698 LINE",
"140 0 LINE"
);
},
{
closed = 1;
nodes = (
"636 0 LINE",
"424 716 LINE",
"382 572 LINE",
"550 0 LINE"
);
},
{
closed = 1;
nodes = (
"220 790 LINE",
"220 1278 LINE",
"220 1600 LINE",
"140 1600 LINE",
"140 790 LINE"
);
}
);
width = 656;
},
{
anchors = (
{
name = bottom;
position = "{550, 0}";
},
{
name = top;
position = "{550, 1600}";
}
);
background = {
paths = (
{
closed = 1;
nodes = (
"594 726 LINE",
"722 850 LINE",
"1024 1600 LINE",
"696 1600 LINE",
"552 1212 LINE",
"456 854 LINE",
"326 854 LINE",
"366 282 LINE"
);
},
{
closed = 1;
nodes = (
"406 0 LINE",
"406 544 LINE",
"382 854 LINE",
"416 1212 LINE",
"420 1600 LINE",
"100 1600 LINE",
"100 0 LINE"
);
},
{
closed = 1;
nodes = (
"1036 0 LINE",
"742 998 LINE",
"528 714 LINE",
"732 0 LINE"
);
}
);
};
layerId = "1DFA7D5B-2E97-4B89-827F-FB43F8066DC1";
paths = (
{
closed = 1;
nodes = (
"406 0 LINE",
"406 240 LINE",
"1024 1600 LINE",
"696 1600 LINE",
"552 1212 LINE",
"456 854 LINE",
"100 854 LINE",
"100 0 LINE"
);
},
{
closed = 1;
nodes = (
"1036 0 LINE",
"794 819 LINE",
"612 414 LINE",
"732 0 LINE"
);
},
{
closed = 1;
nodes = (
"376 956 LINE",
"418 1218 LINE",
"420 1600 LINE",
"100 1600 LINE",
"100 956 LINE"
);
}
);
width = 1050;
},
{
anchors = (
{
name = bottom;
position = "{530, 0}";
},
{
name = top;
position = "{530, 1600}";
}
);
background = {
paths = (
{
closed = 1;
nodes = (
"610 854 LINE",
"662 850 LINE",
"964 1600 LINE",
"636 1600 LINE",
"492 1212 LINE",
"396 854 LINE",
"306 854 LINE",
"346 282 LINE"
);
},
{
closed = 1;
nodes = (
"386 0 LINE",
"386 544 LINE",
"342 854 LINE",
"396 1212 LINE",
"400 1600 LINE",
"80 1600 LINE",
"80 0 LINE"
);
},
{
closed = 1;
nodes = (
"976 0 LINE",
"682 998 LINE",
"468 714 LINE",
"672 0 LINE"
);
}
);
};
layerId = "5013C991-8699-46CB-BB1C-82E334DBD38B";
paths = (
{
closed = 1;
nodes = (
"386 0 LINE",
"386 240 LINE",
"964 1600 LINE",
"636 1600 LINE",
"492 1212 LINE",
"396 854 LINE",
"80 854 LINE",
"80 0 LINE"
);
},
{
closed = 1;
nodes = (
"976 0 LINE",
"734 826 LINE",
"558 404 LINE",
"672 0 LINE"
);
},
{
closed = 1;
nodes = (
"338 946 LINE",
"396 1212 LINE",
"400 1600 LINE",
"80 1600 LINE",
"80 946 LINE"
);
}
);
width = 993;
},
{
anchors = (
{
name = bottom;
position = "{298, 0}";
},
{
name = top;
position = "{278, 1600}";
}
);
background = {
paths = (
{
closed = 1;
nodes = (
"230 820 LINE",
"238 838 LINE",
"464 1600 LINE",
"420 1600 LINE",
"326 1282 LINE",
"182 790 LINE",
"158 790 LINE",
"154 580 LINE"
);
},
{
closed = 1;
nodes = (
"160 0 LINE",
"160 774 LINE",
"160 796 LINE",
"160 1284 LINE",
"160 1600 LINE",
"120 1600 LINE",
"120 0 LINE"
);
},
{
closed = 1;
nodes = (
"496 0 LINE",
"242 854 LINE",
"204 844 LINE",
"450 0 LINE"
);
}
);
};
layerId = "3D06B89B-468F-44E0-A3D7-A5BC6911123E";
paths = (
{
closed = 1;
nodes = (
"160 0 LINE",
"160 558 LINE",
"464 1600 LINE",
"420 1600 LINE",
"326 1282 LINE",
"182 790 LINE",
"120 790 LINE",
"120 0 LINE"
);
},
{
closed = 1;
nodes = (
"496 0 LINE",
"270 754 LINE",
"248 690 LINE",
"450 0 LINE"
);
},
{
closed = 1;
nodes = (
"160 830 LINE",
"160 1276 LINE",
"160 1600 LINE",
"120 1600 LINE",
"120 830 LINE"
);
}
);
width = 521;
},
{
anchors = (
{
name = bottom;
position = "{410, 0}";
},
{
name = top;
position = "{395, 1600}";
}
);
layerId = "EB6D3A46-95FC-4F29-8169-EF2A3FEDBD5C";
paths = (
{
closed = 1;
nodes = (
"262 0 LINE",
"262 288 LINE",
"704 1600 LINE",
"559 1600 LINE",
"453 1265 LINE",
"301 737 LINE",
"125 737 LINE",
"125 0 LINE"
);
},
{
closed = 1;
nodes = (
"731 0 LINE",
"512 742 LINE",
"435 532 LINE",
"591 0 LINE"
);
},
{
closed = 1;
nodes = (
"254 832 LINE",
"265 1263 LINE",
"265 1600 LINE",
"125 1600 LINE",
"125 832 LINE"
);
}
);
width = 741;
},
{
anchors = (
{
name = bottom;
position = "{356, 0}";
},
{
name = top;
position = "{341, 1600}";
}
);
layerId = "C388322D-F001-4130-A10A-708FB59AF746";
paths = (
{
closed = 1;
nodes = (
"217 0 LINE",
"217 479 LINE",
"589 1600 LINE",
"474 1600 LINE",
"368 1265 LINE",
"236 806 LINE",
"110 806 LINE",
"110 0 LINE"
);
},
{
closed = 1;
nodes = (
"616 0 LINE",
"386 772 LINE",
"326 619 LINE",
"506 0 LINE"
);
},
{
closed = 1;
nodes = (
"205 859 LINE",
"219 1260 LINE",
"220 1600 LINE",
"110 1600 LINE",
"110 859 LINE"
);
}
);
width = 641;
}
);
leftKerningGroup = H;
leftMetricsKey = H;
rightKerningGroup = K;
unicode = 004B;
},
{
glyphname = L;
layers = (
{
anchors = (
{
name = bottom;
position = "{362, 0}";
},
{
name = center;
position = "{330, 800}";
},
{
name = top;
position = "{330, 1600}";
},
{
name = topright;
position = "{302, 1302}";
}
);
layerId = "3B122060-26E0-4730-9241-82784E6CB359";
paths = (
{
closed = 1;
nodes = (
"220 0 LINE",
"220 1600 LINE",
"140 1600 LINE",
"140 0 LINE"
);
},
{
closed = 1;
nodes = (
"578 0 LINE",
"578 76 LINE",
"312 76 LINE",
"312 0 LINE"
);
}
);
width = 597;
},
{
anchors = (
{
name = bottom;
position = "{446, 0}";
},
{
name = center;
position = "{458, 800}";
},
{
name = top;
position = "{458, 1600}";
},
{
name = topright;
position = "{429, 1242}";
}
);
layerId = "1DFA7D5B-2E97-4B89-827F-FB43F8066DC1";
paths = (
{
closed = 1;
nodes = (
"400 0 LINE",
"400 1600 LINE",
"100 1600 LINE",
"100 0 LINE"
);
},
{
closed = 1;
nodes = (
"794 0 LINE",
"794 264 LINE",
"532 264 LINE",
"532 0 LINE"
);
}
);
width = 820;
},
{
anchors = (
{
name = bottom;
position = "{428, 0}";
},
{
name = center;
position = "{438, 800}";
},
{
name = top;
position = "{438, 1600}";
},
{
name = topright;
position = "{398, 1240}";
}
);
layerId = "5013C991-8699-46CB-BB1C-82E334DBD38B";
paths = (
{
closed = 1;
nodes = (
"380 0 LINE",
"380 1600 LINE",
"80 1600 LINE",
"80 0 LINE"
);
},
{
closed = 1;
nodes = (
"774 0 LINE",
"774 264 LINE",
"480 264 LINE",
"480 0 LINE"
);
}
);
width = 804;
},
{
anchors = (
{
name = bottom;
position = "{282, 0}";
},
{
name = center;
position = "{250, 800}";
},
{
name = top;
position = "{250, 1600}";
},
{
name = topright;
position = "{213, 1323}";
}
);
layerId = "3D06B89B-468F-44E0-A3D7-A5BC6911123E";
paths = (
{
closed = 1;
nodes = (
"160 0 LINE",
"160 1600 LINE",
"120 1600 LINE",
"120 0 LINE"
);
},
{
closed = 1;
nodes = (
"438 0 LINE",
"438 40 LINE",
"240 40 LINE",
"240 0 LINE"
);
}
);
width = 450;
},
{
anchors = (
{
name = bottom;
position = "{368, 0}";
},
{
name = center;
position = "{357, 800}";
},
{
name = top;
position = "{357, 1600}";
},
{
name = topright;
position = "{302, 1283}";
}
);
layerId = "EB6D3A46-95FC-4F29-8169-EF2A3FEDBD5C";
paths = (
{
closed = 1;
nodes = (
"260 0 LINE",
"260 1600 LINE",
"125 1600 LINE",
"125 0 LINE"
);
},
{
closed = 1;
nodes = (
"627 0 LINE",
"627 123 LINE",
"362 123 LINE",
"362 0 LINE"
);
}
);
width = 637;
},
{
anchors = (
{
name = bottom;
position = "{314, 0}";
},
{
name = center;
position = "{297, 800}";
},
{
name = top;
position = "{297, 1600}";
},
{
name = topright;
position = "{244, 1301}";
}
);
layerId = "C388322D-F001-4130-A10A-708FB59AF746";
paths = (
{
closed = 1;
nodes = (
"215 0 LINE",
"215 1600 LINE",
"110 1600 LINE",
"110 0 LINE"
);
},
{
closed = 1;
nodes = (
"522 0 LINE",
"522 96 LINE",
"300 96 LINE",
"300 0 LINE"
);
}
);
width = 542;
}
);
leftKerningGroup = H;
leftMetricsKey = H;
rightKerningGroup = L;
unicode = 004C;
},
{
glyphname = Lslash;
layers = (
{
components = (
{
name = L;
transform = "{1, 0, 0, 1, 120, 0}";
}
);
layerId = "3B122060-26E0-4730-9241-82784E6CB359";
paths = (
{
closed = 1;
nodes = (
"220 394 LINE",
"274 566 LINE",
"328 746 LINE",
"466 1200 LINE",
"386 1200 LINE",
"322 988 LINE",
"266 804 LINE",
"140 394 LINE"
);
}
);
width = 717;
},
{
components = (
{
name = L;
transform = "{1, 0, 0, 1, 258, 0}";
}
);
layerId = "1DFA7D5B-2E97-4B89-827F-FB43F8066DC1";
paths = (
{
closed = 1;
nodes = (
"306 360 LINE",
"368 492 LINE",
"618 750 LINE",
"900 1200 LINE",
"674 1200 LINE",
"586 1022 LINE",
"362 780 LINE",
"100 360 LINE"
);
}
);
width = 1078;
},
{
components = (
{
name = L;
transform = "{1, 0, 0, 1, 244, 0}";
}
);
layerId = "5013C991-8699-46CB-BB1C-82E334DBD38B";
paths = (
{
closed = 1;
nodes = (
"286 360 LINE",
"348 492 LINE",
"598 750 LINE",
"880 1200 LINE",
"654 1200 LINE",
"566 1022 LINE",
"342 780 LINE",
"80 360 LINE"
);
}
);
width = 1048;
},
{
components = (
{
name = L;
transform = "{1, 0, 0, 1, 80, 0}";
}
);
layerId = "3D06B89B-468F-44E0-A3D7-A5BC6911123E";
paths = (
{
closed = 1;
nodes = (
"160 400 LINE",
"206 634 LINE",
"234 774 LINE",
"320 1200 LINE",
"280 1200 LINE",
"232 958 LINE",
"206 826 LINE",
"120 400 LINE"
);
}
);
width = 530;
},
{
components = (
{
alignment = -1;
name = L;
transform = "{1, 0, 0, 1, 150, 0}";
}
);
layerId = "EB6D3A46-95FC-4F29-8169-EF2A3FEDBD5C";
paths = (
{
closed = 1;
nodes = (
"237 386 LINE",
"293 548 LINE",
"396 747 LINE",
"570 1200 LINE",
"453 1200 LINE",
"383 997 LINE",
"285 798 LINE",
"125 386 LINE"
);
}
);
width = 787;
},
{
components = (
{
alignment = -1;
name = L;
transform = "{1, 0, 0, 1, 121, 0}";
}
);
layerId = "C388322D-F001-4130-A10A-708FB59AF746";
paths = (
{
closed = 1;
nodes = (
"192 390 LINE",
"242 599 LINE",
"325 768 LINE",
"460 1200 LINE",
"374 1200 LINE",
"316 974 LINE",
"240 815 LINE",
"110 390 LINE"
);
}
);
width = 663;
}
);
leftKerningGroup = H;
leftMetricsKey = H;
rightKerningGroup = L;
rightMetricsKey = L;
unicode = 0141;
},
{
glyphname = M;
layers = (
{
anchors = (
{
name = bottom;
position = "{430, 0}";
},
{
name = top;
position = "{430, 1600}";
}
);
background = {
paths = (
{
closed = 1;
nodes = (
"200 0 LINE",
"200 460 LINE",
"136 940 LINE",
"120 940 LINE",
"120 0 LINE"
);
},
{
closed = 1;
nodes = (
"410 76 LINE",
"190 1600 LINE",
"110 1600 LINE",
"340 0 LINE",
"514 0 LINE",
"748 1600 LINE",
"668 1600 LINE",
"444 76 LINE"
);
},
{
closed = 1;
nodes = (
"746 940 LINE",
"730 940 LINE",
"666 460 LINE",
"666 0 LINE",
"746 0 LINE"
);
}
);
};
layerId = "3B122060-26E0-4730-9241-82784E6CB359";
paths = (
{
closed = 1;
nodes = (
"634 10 LINE",
"680 452 LINE",
"794 1524 LINE",
"954 1524 LINE",
"954 1600 LINE",
"722 1600 LINE",
"648 918 LINE",
"564 86 LINE",
"530 86 LINE",
"446 918 LINE",
"372 1600 LINE",
"140 1600 LINE",
"140 1524 LINE",
"300 1524 LINE",
"414 452 LINE",
"460 10 LINE"
);
},
{
closed = 1;
nodes = (
"220 0 LINE",
"220 450 LINE",
"220 1452 LINE",
"140 1452 LINE",
"140 0 LINE"
);
},
{
closed = 1;
nodes = (
"954 0 LINE",
"954 1452 LINE",
"874 1452 LINE",
"874 450 LINE",
"874 0 LINE"
);
}
);
width = 1094;
},
{
anchors = (
{
name = bottom;
position = "{846, 0}";
},
{
name = top;
position = "{846, 1600}";
}
);
background = {
paths = (
{
closed = 1;
nodes = (
"266 1118 LINE",
"192 1118 LINE",
"192 0 LINE",
"502 0 LINE",
"502 286 LINE"
);
},
{
closed = 1;
nodes = (
"858 264 LINE",
"834 614 LINE",
"564 1600 LINE",
"232 1600 LINE",
"682 0 LINE",
"1108 0 LINE",
"1558 1600 LINE",
"1226 1600 LINE",
"956 614 LINE",
"932 264 LINE"
);
},
{
closed = 1;
nodes = (
"1288 0 LINE",
"1598 0 LINE",
"1598 1118 LINE",
"1524 1118 LINE",
"1288 286 LINE"
);
}
);
};
layerId = "1DFA7D5B-2E97-4B89-827F-FB43F8066DC1";
paths = (
{
closed = 1;
nodes = (
"1026 0 LINE",
"1160 472 LINE",
"1244 1336 LINE",
"1590 1336 LINE",
"1590 1600 LINE",
"1050 1600 LINE",
"916 994 LINE",
"892 264 LINE",
"800 264 LINE",
"774 994 LINE",
"642 1600 LINE",
"100 1600 LINE",
"100 1336 LINE",
"446 1336 LINE",
"532 472 LINE",
"654 0 LINE"
);
},
{
closed = 1;
nodes = (
"410 0 LINE",
"410 492 LINE",
"362 1244 LINE",
"100 1244 LINE",
"100 0 LINE"
);
},
{
closed = 1;
nodes = (
"1590 0 LINE",
"1590 1244 LINE",
"1328 1244 LINE",
"1280 492 LINE",
"1280 0 LINE"
);
}
);
width = 1690;
},
{
anchors = (
{
name = bottom;
position = "{746, 0}";
},
{
name = top;
position = "{746, 1600}";
}
);
layerId = "5013C991-8699-46CB-BB1C-82E334DBD38B";
paths = (
{
closed = 1;
nodes = (
"906 0 LINE",
"1030 472 LINE",
"1114 1336 LINE",
"1410 1336 LINE",
"1410 1600 LINE",
"930 1600 LINE",
"796 994 LINE",
"772 264 LINE",
"720 264 LINE",
"694 994 LINE",
"562 1600 LINE",
"80 1600 LINE",
"80 1336 LINE",
"376 1336 LINE",
"462 472 LINE",
"584 0 LINE"
);
},
{
closed = 1;
nodes = (
"380 0 LINE",
"380 440 LINE",
"296 1236 LINE",
"80 1236 LINE",
"80 0 LINE"
);
},
{
closed = 1;
nodes = (
"1410 0 LINE",
"1410 1236 LINE",
"1196 1236 LINE",
"1110 440 LINE",
"1110 0 LINE"
);
}
);
width = 1490;
},
{
anchors = (
{
name = bottom;
position = "{408, 0}";
},
{
name = top;
position = "{408, 1600}";
}
);
layerId = "3D06B89B-468F-44E0-A3D7-A5BC6911123E";
paths = (
{
closed = 1;
nodes = (
"456 10 LINE",
"500 452 LINE",
"618 1560 LINE",
"694 1560 LINE",
"694 1600 LINE",
"582 1600 LINE",
"506 918 LINE",
"420 50 LINE",
"394 50 LINE",
"308 918 LINE",
"232 1600 LINE",
"120 1600 LINE",
"120 1560 LINE",
"196 1560 LINE",
"314 452 LINE",
"358 10 LINE"
);
},
{
closed = 1;
nodes = (
"160 0 LINE",
"160 456 LINE",
"160 1500 LINE",
"120 1500 LINE",
"120 0 LINE"
);
},
{
closed = 1;
nodes = (
"694 0 LINE",
"694 1500 LINE",
"654 1500 LINE",
"654 446 LINE",
"654 0 LINE"
);
}
);
width = 814;
},
{
anchors = (
{
name = bottom;
position = "{529, 0}";
},
{
name = top;
position = "{529, 1600}";
}
);
layerId = "EB6D3A46-95FC-4F29-8169-EF2A3FEDBD5C";
paths = (
{
closed = 1;
nodes = (
"755 8 LINE",
"805 478 LINE",
"901 1478 LINE",
"1107 1478 LINE",
"1107 1600 LINE",
"777 1600 LINE",
"717 918 LINE",
"641 130 LINE",
"591 130 LINE",
"513 920 LINE",
"453 1600 LINE",
"125 1600 LINE",
"125 1478 LINE",
"331 1478 LINE",
"429 466 LINE",
"479 8 LINE"
);
},
{
closed = 1;
nodes = (
"261 0 LINE",
"261 460 LINE",
"261 1406 LINE",
"125 1406 LINE",
"125 0 LINE"
);
},
{
closed = 1;
nodes = (
"1107 0 LINE",
"1107 1406 LINE",
"969 1406 LINE",
"969 460 LINE",
"969 0 LINE"
);
}
);
width = 1232;
},
{
anchors = (
{
name = bottom;
position = "{492, 0}";
},
{
name = top;
position = "{492, 1600}";
}
);
layerId = "C388322D-F001-4130-A10A-708FB59AF746";
paths = (
{
closed = 1;
nodes = (
"634 8 LINE",
"672 474 LINE",
"758 1504 LINE",
"930 1504 LINE",
"930 1600 LINE",
"656 1600 LINE",
"608 1016 LINE",
"534 104 LINE",
"502 104 LINE",
"428 1006 LINE",
"380 1600 LINE",
"110 1600 LINE",
"110 1504 LINE",
"282 1504 LINE",
"366 478 LINE",
"404 8 LINE"
);
},
{
closed = 1;
nodes = (
"216 0 LINE",
"216 466 LINE",
"216 1440 LINE",
"110 1440 LINE",
"110 0 LINE"
);
},
{
closed = 1;
nodes = (
"930 0 LINE",
"930 1440 LINE",
"824 1440 LINE",
"824 458 LINE",
"824 0 LINE"
);
}
);
width = 1040;
}
);
leftKerningGroup = H;
leftMetricsKey = H;
rightKerningGroup = H;
rightMetricsKey = H;
unicode = 004D;
},
{
glyphname = N;
layers = (
{
anchors = (
{
name = bottom;
position = "{462, 0}";
},
{
name = top;
position = "{476, 1600}";
}
);
layerId = "3B122060-26E0-4730-9241-82784E6CB359";
paths = (
{
closed = 1;
nodes = (
"750 0 LINE",
"750 76 LINE",
"588 76 LINE",
"442 1096 LINE",
"370 1600 LINE",
"140 1600 LINE",
"140 1524 LINE",
"302 1524 LINE",
"432 600 LINE",
"518 0 LINE"
);
},
{
closed = 1;
nodes = (
"220 0 LINE",
"220 606 LINE",
"220 1452 LINE",
"140 1452 LINE",
"140 0 LINE"
);
},
{
closed = 1;
nodes = (
"750 148 LINE",
"750 1600 LINE",
"670 1600 LINE",
"670 1098 LINE",
"670 148 LINE"
);
}
);
width = 890;
},
{
anchors = (
{
name = bottom;
position = "{614, 0}";
},
{
name = top;
position = "{614, 1600}";
}
);
background = {
paths = (
{
closed = 1;
nodes = (
"442 0 LINE",
"432 614 LINE",
"382 1336 LINE",
"438 1336 LINE",
"542 582 LINE",
"730 0 LINE",
"1208 0 LINE",
"1208 1600 LINE",
"888 1600 LINE",
"898 914 LINE",
"986 264 LINE",
"934 264 LINE",
"764 1070 LINE",
"604 1600 LINE",
"120 1600 LINE",
"120 0 LINE"
);
}
);
};
layerId = "1DFA7D5B-2E97-4B89-827F-FB43F8066DC1";
paths = (
{
closed = 1;
nodes = (
"1138 0 LINE",
"1138 264 LINE",
"824 264 LINE",
"714 1090 LINE",
"594 1600 LINE",
"100 1600 LINE",
"100 1338 LINE",
"418 1338 LINE",
"500 524 LINE",
"620 0 LINE"
);
},
{
closed = 1;
nodes = (
"400 0 LINE",
"374 614 LINE",
"332 1236 LINE",
"100 1236 LINE",
"100 0 LINE"
);
},
{
closed = 1;
nodes = (
"1138 366 LINE",
"1138 1600 LINE",
"836 1600 LINE",
"860 914 LINE",
"904 366 LINE"
);
}
);
width = 1238;
},
{
anchors = (
{
name = bottom;
position = "{544, 0}";
},
{
name = top;
position = "{544, 1600}";
}
);
background = {
paths = (
{
closed = 1;
nodes = (
"372 0 LINE",
"362 614 LINE",
"312 1336 LINE",
"368 1336 LINE",
"472 582 LINE",
"660 0 LINE",
"1138 0 LINE",
"1138 1600 LINE",
"818 1600 LINE",
"828 914 LINE",
"916 264 LINE",
"864 264 LINE",
"694 1070 LINE",
"534 1600 LINE",
"50 1600 LINE",
"50 0 LINE"
);
}
);
};
layerId = "5013C991-8699-46CB-BB1C-82E334DBD38B";
paths = (
{
closed = 1;
nodes = (
"1006 0 LINE",
"1006 264 LINE",
"744 264 LINE",
"634 1090 LINE",
"514 1600 LINE",
"80 1600 LINE",
"80 1338 LINE",
"348 1338 LINE",
"430 524 LINE",
"550 0 LINE"
);
},
{
closed = 1;
nodes = (
"370 0 LINE",
"344 516 LINE",
"266 1238 LINE",
"80 1238 LINE",
"80 0 LINE"
);
},
{
closed = 1;
nodes = (
"1006 364 LINE",
"1006 1600 LINE",
"716 1600 LINE",
"730 1090 LINE",
"822 364 LINE"
);
}
);
width = 1086;
},
{
anchors = (
{
name = bottom;
position = "{322, 0}";
},
{
name = top;
position = "{336, 1600}";
}
);
layerId = "3D06B89B-468F-44E0-A3D7-A5BC6911123E";
paths = (
{
closed = 1;
nodes = (
"530 0 LINE",
"530 40 LINE",
"454 40 LINE",
"302 1096 LINE",
"230 1600 LINE",
"120 1600 LINE",
"120 1560 LINE",
"196 1560 LINE",
"332 600 LINE",
"418 0 LINE"
);
},
{
closed = 1;
nodes = (
"160 0 LINE",
"160 594 LINE",
"160 1500 LINE",
"120 1500 LINE",
"120 0 LINE"
);
},
{
closed = 1;
nodes = (
"530 100 LINE",
"530 1600 LINE",
"490 1600 LINE",
"490 1104 LINE",
"490 100 LINE"
);
}
);
width = 650;
},
{
anchors = (
{
name = bottom;
position = "{495, 0}";
},
{
name = top;
position = "{505, 1600}";
}
);
layerId = "EB6D3A46-95FC-4F29-8169-EF2A3FEDBD5C";
paths = (
{
closed = 1;
nodes = (
"841 0 LINE",
"841 124 LINE",
"641 124 LINE",
"505 1068 LINE",
"431 1600 LINE",
"125 1600 LINE",
"125 1478 LINE",
"325 1478 LINE",
"451 582 LINE",
"537 0 LINE"
);
},
{
closed = 1;
nodes = (
"259 0 LINE",
"253 608 LINE",
"253 1406 LINE",
"125 1406 LINE",
"125 0 LINE"
);
},
{
closed = 1;
nodes = (
"841 196 LINE",
"841 1600 LINE",
"705 1600 LINE",
"711 1052 LINE",
"711 196 LINE"
);
}
);
width = 966;
},
{
anchors = (
{
name = bottom;
position = "{378, 0}";
},
{
name = top;
position = "{388, 1600}";
}
);
layerId = "C388322D-F001-4130-A10A-708FB59AF746";
paths = (
{
closed = 1;
nodes = (
"650 0 LINE",
"650 96 LINE",
"526 96 LINE",
"384 1094 LINE",
"320 1600 LINE",
"110 1600 LINE",
"110 1504 LINE",
"234 1504 LINE",
"358 582 LINE",
"436 0 LINE"
);
},
{
closed = 1;
nodes = (
"212 0 LINE",
"206 600 LINE",
"206 1440 LINE",
"110 1440 LINE",
"110 0 LINE"
);
},
{
closed = 1;
nodes = (
"650 162 LINE",
"650 1600 LINE",
"546 1600 LINE",
"552 1056 LINE",
"552 162 LINE"
);
}
);
width = 760;
}
);
leftKerningGroup = H;
leftMetricsKey = H;
rightKerningGroup = H;
rightMetricsKey = H;
unicode = 004E;
},
{
glyphname = Eng;
layers = (
{
components = (
{
name = N;
}
);
layerId = "3B122060-26E0-4730-9241-82784E6CB359";
paths = (
{
closed = 1;
nodes = (
"702 -404 OFFCURVE",
"750 -328 OFFCURVE",
"750 -196 CURVE SMOOTH",
"750 46 LINE",
"674 46 LINE",
"674 -200 LINE SMOOTH",
"674 -292 OFFCURVE",
"646 -334 OFFCURVE",
"522 -334 CURVE SMOOTH",
"468 -334 OFFCURVE",
"428 -332 OFFCURVE",
"398 -328 CURVE",
"398 -392 LINE",
"434 -400 OFFCURVE",
"494 -404 OFFCURVE",
"526 -404 CURVE"
);
}
);
width = 890;
},
{
components = (
{
name = N;
}
);
layerId = "1DFA7D5B-2E97-4B89-827F-FB43F8066DC1";
paths = (
{
closed = 1;
nodes = (
"974 -422 OFFCURVE",
"1118 -320 OFFCURVE",
"1118 -66 CURVE SMOOTH",
"1118 184 LINE",
"856 184 LINE",
"856 -94 LINE SMOOTH",
"856 -166 OFFCURVE",
"774 -194 OFFCURVE",
"668 -194 CURVE SMOOTH",
"630 -194 OFFCURVE",
"558 -192 OFFCURVE",
"522 -190 CURVE",
"522 -408 LINE",
"570 -416 OFFCURVE",
"622 -422 OFFCURVE",
"668 -422 CURVE"
);
}
);
width = 1238;
},
{
components = (
{
name = N;
}
);
layerId = "5013C991-8699-46CB-BB1C-82E334DBD38B";
paths = (
{
closed = 1;
nodes = (
"862 -422 OFFCURVE",
"1006 -320 OFFCURVE",
"1006 -66 CURVE SMOOTH",
"1006 184 LINE",
"744 184 LINE",
"744 -94 LINE SMOOTH",
"744 -166 OFFCURVE",
"662 -194 OFFCURVE",
"556 -194 CURVE SMOOTH",
"518 -194 OFFCURVE",
"446 -192 OFFCURVE",
"410 -190 CURVE",
"410 -408 LINE",
"458 -416 OFFCURVE",
"510 -422 OFFCURVE",
"556 -422 CURVE"
);
}
);
width = 1086;
},
{
components = (
{
name = N;
}
);
layerId = "3D06B89B-468F-44E0-A3D7-A5BC6911123E";
paths = (
{
closed = 1;
nodes = (
"488 -400 OFFCURVE",
"530 -348 OFFCURVE",
"530 -220 CURVE SMOOTH",
"530 22 LINE",
"490 22 LINE",
"490 -220 LINE SMOOTH",
"490 -330 OFFCURVE",
"460 -360 OFFCURVE",
"364 -360 CURVE SMOOTH",
"322 -360 OFFCURVE",
"290 -358 OFFCURVE",
"262 -352 CURVE",
"262 -390 LINE",
"288 -396 OFFCURVE",
"338 -400 OFFCURVE",
"368 -400 CURVE"
);
}
);
width = 650;
},
{
components = (
{
name = N;
}
);
layerId = "EB6D3A46-95FC-4F29-8169-EF2A3FEDBD5C";
paths = (
{
closed = 1;
nodes = (
"794 -404 OFFCURVE",
"842 -328 OFFCURVE",
"842 -196 CURVE SMOOTH",
"842 46 LINE",
"716 46 LINE",
"716 -200 LINE SMOOTH",
"716 -274 OFFCURVE",
"694 -294 OFFCURVE",
"614 -294 CURVE SMOOTH",
"560 -294 OFFCURVE",
"520 -292 OFFCURVE",
"490 -288 CURVE",
"490 -392 LINE",
"526 -400 OFFCURVE",
"586 -404 OFFCURVE",
"618 -404 CURVE"
);
}
);
width = 967;
},
{
components = (
{
name = N;
}
);
layerId = "C388322D-F001-4130-A10A-708FB59AF746";
paths = (
{
closed = 1;
nodes = (
"608 -400 OFFCURVE",
"650 -348 OFFCURVE",
"650 -220 CURVE SMOOTH",
"650 22 LINE",
"552 22 LINE",
"552 -220 LINE SMOOTH",
"552 -292 OFFCURVE",
"538 -312 OFFCURVE",
"484 -312 CURVE SMOOTH",
"442 -312 OFFCURVE",
"410 -310 OFFCURVE",
"382 -304 CURVE",
"382 -390 LINE",
"408 -396 OFFCURVE",
"458 -400 OFFCURVE",
"488 -400 CURVE"
);
}
);
width = 760;
}
);
leftKerningGroup = H;
leftMetricsKey = N;
rightKerningGroup = H;
rightMetricsKey = N;
unicode = 014A;
},
{
glyphname = O;
layers = (
{
anchors = (
{
name = bottom;
position = "{350, 0}";
},
{
name = center;
position = "{350, 800}";
},
{
name = ogonek;
position = "{276, 0}";
},
{
name = top;
position = "{350, 1600}";
},
{
name = topleft;
position = "{132, 1600}";
},
{
name = topright;
position = "{530, 1860}";
}
);
background = {
paths = (
{
closed = 1;
nodes = (
"438 -20 OFFCURVE",
"528 70 OFFCURVE",
"528 180 CURVE SMOOTH",
"528 1420 LINE SMOOTH",
"528 1530 OFFCURVE",
"438 1620 OFFCURVE",
"328 1620 CURVE SMOOTH",
"218 1620 OFFCURVE",
"128 1530 OFFCURVE",
"128 1420 CURVE SMOOTH",
"128 180 LINE SMOOTH",
"128 70 OFFCURVE",
"218 -20 OFFCURVE",
"328 -20 CURVE SMOOTH"
);
},
{
closed = 1;
nodes = (
"240 20 OFFCURVE",
"168 92 OFFCURVE",
"168 180 CURVE SMOOTH",
"168 1420 LINE SMOOTH",
"168 1508 OFFCURVE",
"240 1580 OFFCURVE",
"328 1580 CURVE SMOOTH",
"416 1580 OFFCURVE",
"488 1508 OFFCURVE",
"488 1420 CURVE SMOOTH",
"488 180 LINE SMOOTH",
"488 92 OFFCURVE",
"416 20 OFFCURVE",
"328 20 CURVE SMOOTH"
);
}
);
};
layerId = "3B122060-26E0-4730-9241-82784E6CB359";
paths = (
{
closed = 1;
nodes = (
"302 68 LINE",
"221 77 OFFCURVE",
"196 113 OFFCURVE",
"194 210 CURVE SMOOTH",
"186 702 OFFCURVE",
"186 922 OFFCURVE",
"194 1388 CURVE SMOOTH",
"196 1485 OFFCURVE",
"221 1523 OFFCURVE",
"302 1532 CURVE",
"302 1608 LINE",
"171 1596 OFFCURVE",
"116 1530 OFFCURVE",
"114 1388 CURVE SMOOTH",
"108 948 OFFCURVE",
"108 670 OFFCURVE",
"114 210 CURVE SMOOTH",
"116 68 OFFCURVE",
"171 4 OFFCURVE",
"302 -8 CURVE"
);
},
{
closed = 1;
nodes = (
"530 5 OFFCURVE",
"584 70 OFFCURVE",
"586 210 CURVE SMOOTH",
"592 670 OFFCURVE",
"592 948 OFFCURVE",
"586 1388 CURVE SMOOTH",
"584 1528 OFFCURVE",
"530 1595 OFFCURVE",
"402 1608 CURVE",
"402 1531 LINE",
"480 1521 OFFCURVE",
"504 1483 OFFCURVE",
"506 1388 CURVE SMOOTH",
"514 908 OFFCURVE",
"514 688 OFFCURVE",
"506 210 CURVE SMOOTH",
"504 115 OFFCURVE",
"480 78 OFFCURVE",
"402 69 CURVE",
"402 -8 LINE"
);
}
);
width = 700;
},
{
anchors = (
{
name = bottom;
position = "{528, 0}";
},
{
name = center;
position = "{528, 800}";
},
{
name = ogonek;
position = "{425, 0}";
},
{
name = top;
position = "{528, 1600}";
},
{
name = topleft;
position = "{60, 1600}";
},
{
name = topright;
position = "{794, 1960}";
}
);
background = {
paths = (
{
closed = 1;
nodes = (
"520 -10 OFFCURVE",
"654 108 OFFCURVE",
"654 254 CURVE SMOOTH",
"654 1350 LINE SMOOTH",
"654 1492 OFFCURVE",
"520 1610 OFFCURVE",
"340 1610 CURVE SMOOTH",
"162 1610 OFFCURVE",
"28 1492 OFFCURVE",
"28 1350 CURVE SMOOTH",
"28 254 LINE SMOOTH",
"28 108 OFFCURVE",
"162 -10 OFFCURVE",
"340 -10 CURVE SMOOTH"
);
},
{
closed = 1;
nodes = (
"288 204 OFFCURVE",
"248 236 OFFCURVE",
"248 280 CURVE SMOOTH",
"248 1322 LINE SMOOTH",
"248 1364 OFFCURVE",
"288 1396 OFFCURVE",
"340 1396 CURVE SMOOTH",
"394 1396 OFFCURVE",
"434 1364 OFFCURVE",
"434 1322 CURVE SMOOTH",
"434 280 LINE SMOOTH",
"434 236 OFFCURVE",
"394 204 OFFCURVE",
"340 204 CURVE SMOOTH"
);
}
);
};
layerId = "1DFA7D5B-2E97-4B89-827F-FB43F8066DC1";
paths = (
{
closed = 1;
nodes = (
"464 233 LINE",
"413 249 OFFCURVE",
"389 291 OFFCURVE",
"388 366 CURVE SMOOTH",
"374 658 OFFCURVE",
"374 944 OFFCURVE",
"388 1236 CURVE SMOOTH",
"389 1310 OFFCURVE",
"413 1351 OFFCURVE",
"464 1367 CURVE",
"464 1618 LINE",
"199 1603 OFFCURVE",
"90 1486 OFFCURVE",
"84 1220 CURVE SMOOTH",
"78 920 OFFCURVE",
"78 682 OFFCURVE",
"84 382 CURVE SMOOTH",
"90 114 OFFCURVE",
"199 -3 OFFCURVE",
"464 -18 CURVE"
);
},
{
closed = 1;
nodes = (
"849 -1 OFFCURVE",
"957 116 OFFCURVE",
"966 382 CURVE SMOOTH",
"978 680 OFFCURVE",
"978 918 OFFCURVE",
"966 1220 CURVE SMOOTH",
"957 1484 OFFCURVE",
"849 1601 OFFCURVE",
"594 1618 CURVE",
"594 1368 LINE",
"646 1352 OFFCURVE",
"669 1310 OFFCURVE",
"670 1236 CURVE SMOOTH",
"684 944 OFFCURVE",
"684 658 OFFCURVE",
"670 366 CURVE SMOOTH",
"669 290 OFFCURVE",
"646 248 OFFCURVE",
"594 232 CURVE",
"594 -18 LINE"
);
}
);
width = 1055;
},
{
anchors = (
{
name = bottom;
position = "{498, 0}";
},
{
name = center;
position = "{498, 800}";
},
{
name = ogonek;
position = "{386, 0}";
},
{
name = top;
position = "{498, 1600}";
},
{
name = topleft;
position = "{30, 1600}";
},
{
name = topright;
position = "{789, 1960}";
}
);
background = {
paths = (
{
closed = 1;
nodes = (
"490 -10 OFFCURVE",
"624 108 OFFCURVE",
"624 254 CURVE SMOOTH",
"624 1350 LINE SMOOTH",
"624 1492 OFFCURVE",
"490 1610 OFFCURVE",
"310 1610 CURVE SMOOTH",
"132 1610 OFFCURVE",
"-2 1492 OFFCURVE",
"-2 1350 CURVE SMOOTH",
"-2 254 LINE SMOOTH",
"-2 108 OFFCURVE",
"132 -10 OFFCURVE",
"310 -10 CURVE SMOOTH"
);
},
{
closed = 1;
nodes = (
"258 204 OFFCURVE",
"218 236 OFFCURVE",
"218 280 CURVE SMOOTH",
"218 1322 LINE SMOOTH",
"218 1364 OFFCURVE",
"258 1396 OFFCURVE",
"310 1396 CURVE SMOOTH",
"364 1396 OFFCURVE",
"404 1364 OFFCURVE",
"404 1322 CURVE SMOOTH",
"404 280 LINE SMOOTH",
"404 236 OFFCURVE",
"364 204 OFFCURVE",
"310 204 CURVE SMOOTH"
);
}
);
};
layerId = "5013C991-8699-46CB-BB1C-82E334DBD38B";
paths = (
{
closed = 1;
nodes = (
"448 230 LINE",
"403 243 OFFCURVE",
"378 276 OFFCURVE",
"376 326 CURVE SMOOTH",
"364 598 OFFCURVE",
"364 1004 OFFCURVE",
"376 1276 CURVE SMOOTH",
"378 1324 OFFCURVE",
"403 1357 OFFCURVE",
"448 1370 CURVE",
"448 1619 LINE",
"189 1607 OFFCURVE",
"80 1490 OFFCURVE",
"74 1220 CURVE SMOOTH",
"68 958 OFFCURVE",
"68 644 OFFCURVE",
"74 382 CURVE SMOOTH",
"80 110 OFFCURVE",
"189 -7 OFFCURVE",
"448 -19 CURVE"
);
},
{
closed = 1;
nodes = (
"804 -5 OFFCURVE",
"907 112 OFFCURVE",
"916 382 CURVE SMOOTH",
"926 644 OFFCURVE",
"926 954 OFFCURVE",
"916 1220 CURVE SMOOTH",
"907 1488 OFFCURVE",
"804 1605 OFFCURVE",
"548 1619 CURVE",
"548 1370 LINE",
"592 1357 OFFCURVE",
"616 1324 OFFCURVE",
"618 1276 CURVE SMOOTH",
"630 1004 OFFCURVE",
"630 598 OFFCURVE",
"618 326 CURVE SMOOTH",
"616 276 OFFCURVE",
"593 243 OFFCURVE",
"548 230 CURVE",
"548 -19 LINE"
);
}
);
width = 993;
},
{
anchors = (
{
name = bottom;
position = "{282, 0}";
},
{
name = center;
position = "{284, 800}";
},
{
name = ogonek;
position = "{224, 0}";
},
{
name = top;
position = "{282, 1600}";
},
{
name = topleft;
position = "{114, 1600}";
},
{
name = topright;
position = "{421, 1842}";
}
);
background = {
paths = (
{
closed = 1;
nodes = (
"392 -20 OFFCURVE",
"482 70 OFFCURVE",
"482 180 CURVE SMOOTH",
"482 1420 LINE SMOOTH",
"482 1530 OFFCURVE",
"392 1620 OFFCURVE",
"282 1620 CURVE SMOOTH",
"172 1620 OFFCURVE",
"82 1530 OFFCURVE",
"82 1420 CURVE SMOOTH",
"82 180 LINE SMOOTH",
"82 70 OFFCURVE",
"172 -20 OFFCURVE",
"282 -20 CURVE SMOOTH"
);
},
{
closed = 1;
nodes = (
"194 20 OFFCURVE",
"122 92 OFFCURVE",
"122 180 CURVE SMOOTH",
"122 1420 LINE SMOOTH",
"122 1508 OFFCURVE",
"194 1580 OFFCURVE",
"282 1580 CURVE SMOOTH",
"370 1580 OFFCURVE",
"442 1508 OFFCURVE",
"442 1420 CURVE SMOOTH",
"442 180 LINE SMOOTH",
"442 92 OFFCURVE",
"370 20 OFFCURVE",
"282 20 CURVE SMOOTH"
);
}
);
};
layerId = "3D06B89B-468F-44E0-A3D7-A5BC6911123E";
paths = (
{
closed = 1;
nodes = (
"244 32 LINE",
"175 42 OFFCURVE",
"150 80 OFFCURVE",
"148 170 CURVE SMOOTH",
"140 628 OFFCURVE",
"138 988 OFFCURVE",
"148 1428 CURVE SMOOTH",
"150 1520 OFFCURVE",
"175 1558 OFFCURVE",
"244 1568 CURVE",
"244 1608 LINE",
"149 1596 OFFCURVE",
"112 1542 OFFCURVE",
"110 1428 CURVE SMOOTH",
"102 978 OFFCURVE",
"102 620 OFFCURVE",
"110 170 CURVE SMOOTH",
"112 57 OFFCURVE",
"149 4 OFFCURVE",
"244 -8 CURVE"
);
},
{
closed = 1;
nodes = (
"422 2 OFFCURVE",
"462 56 OFFCURVE",
"462 170 CURVE SMOOTH",
"466 620 OFFCURVE",
"466 978 OFFCURVE",
"462 1428 CURVE SMOOTH",
"462 1544 OFFCURVE",
"422 1598 OFFCURVE",
"324 1608 CURVE",
"324 1568 LINE",
"392 1556 OFFCURVE",
"418 1520 OFFCURVE",
"420 1428 CURVE SMOOTH",
"426 988 OFFCURVE",
"430 628 OFFCURVE",
"420 170 CURVE SMOOTH",
"418 80 OFFCURVE",
"393 42 OFFCURVE",
"324 32 CURVE",
"324 -8 LINE"
);
}
);
width = 569;
},
{
anchors = (
{
name = bottom;
position = "{402, 0}";
},
{
name = center;
position = "{402, 800}";
},
{
name = ogonek;
position = "{320, 0}";
},
{
name = top;
position = "{402, 1600}";
},
{
name = topleft;
position = "{121, 1600}";
},
{
name = topright;
position = "{601, 1860}";
}
);
layerId = "EB6D3A46-95FC-4F29-8169-EF2A3FEDBD5C";
paths = (
{
closed = 1;
nodes = (
"350 109 LINE",
"276 120 OFFCURVE",
"251 157 OFFCURVE",
"250 249 CURVE SMOOTH",
"240 691 OFFCURVE",
"240 928 OFFCURVE",
"250 1350 CURVE SMOOTH",
"251 1441 OFFCURVE",
"276 1480 OFFCURVE",
"350 1491 CURVE",
"350 1611 LINE",
"185 1598 OFFCURVE",
"116 1519 OFFCURVE",
"114 1346 CURVE SMOOTH",
"108 941 OFFCURVE",
"108 673 OFFCURVE",
"114 253 CURVE SMOOTH",
"116 80 OFFCURVE",
"185 2 OFFCURVE",
"350 -11 CURVE"
);
},
{
closed = 1;
nodes = (
"617 4 OFFCURVE",
"684 81 OFFCURVE",
"688 253 CURVE SMOOTH",
"696 673 OFFCURVE",
"696 941 OFFCURVE",
"688 1346 CURVE SMOOTH",
"684 1517 OFFCURVE",
"617 1596 OFFCURVE",
"457 1610 CURVE",
"457 1490 LINE",
"529 1479 OFFCURVE",
"552 1440 OFFCURVE",
"554 1350 CURVE SMOOTH",
"564 917 OFFCURVE",
"564 681 OFFCURVE",
"554 249 CURVE SMOOTH",
"552 158 OFFCURVE",
"529 121 OFFCURVE",
"457 110 CURVE",
"457 -10 LINE"
);
}
);
width = 804;
},
{
anchors = (
{
name = bottom;
position = "{335, 0}";
},
{
name = center;
position = "{337, 800}";
},
{
name = ogonek;
position = "{264, 0}";
},
{
name = top;
position = "{335, 1600}";
},
{
name = topleft;
position = "{92, 1600}";
},
{
name = topright;
position = "{534, 1860}";
}
);
layerId = "C388322D-F001-4130-A10A-708FB59AF746";
paths = (
{
closed = 1;
nodes = (
"294 82 LINE",
"231 92 OFFCURVE",
"206 129 OFFCURVE",
"204 209 CURVE SMOOTH",
"195 621 OFFCURVE",
"194 992 OFFCURVE",
"204 1390 CURVE SMOOTH",
"206 1471 OFFCURVE",
"231 1508 OFFCURVE",
"294 1518 CURVE",
"294 1611 LINE",
"158 1599 OFFCURVE",
"103 1529 OFFCURVE",
"100 1376 CURVE SMOOTH",
"93 973 OFFCURVE",
"93 626 OFFCURVE",
"100 223 CURVE SMOOTH",
"103 71 OFFCURVE",
"158 1 OFFCURVE",
"294 -11 CURVE"
);
},
{
closed = 1;
nodes = (
"517 0 OFFCURVE",
"572 70 OFFCURVE",
"575 223 CURVE SMOOTH",
"580 626 OFFCURVE",
"580 972 OFFCURVE",
"575 1376 CURVE SMOOTH",
"572 1530 OFFCURVE",
"517 1600 OFFCURVE",
"379 1611 CURVE",
"379 1518 LINE",
"441 1506 OFFCURVE",
"467 1471 OFFCURVE",
"469 1390 CURVE SMOOTH",
"476 992 OFFCURVE",
"479 621 OFFCURVE",
"469 209 CURVE SMOOTH",
"467 129 OFFCURVE",
"442 92 OFFCURVE",
"379 82 CURVE",
"379 -11 LINE"
);
}
);
width = 674;
}
);
leftKerningGroup = O;
rightKerningGroup = O;
unicode = 004F;
},
{
glyphname = Oslash;
layers = (
{
components = (
{
name = O;
}
);
layerId = "3B122060-26E0-4730-9241-82784E6CB359";
paths = (
{
closed = 1;
nodes = (
"450 796 LINE",
"450 976 LINE",
"314 682 LINE",
"314 502 LINE"
);
}
);
width = 700;
},
{
components = (
{
name = O;
}
);
layerId = "1DFA7D5B-2E97-4B89-827F-FB43F8066DC1";
paths = (
{
closed = 1;
nodes = (
"616 664 LINE",
"616 1036 LINE",
"440 796 LINE",
"440 424 LINE"
);
}
);
width = 1055;
},
{
components = (
{
name = O;
}
);
layerId = "5013C991-8699-46CB-BB1C-82E334DBD38B";
paths = (
{
closed = 1;
nodes = (
"580 676 LINE",
"580 1048 LINE",
"436 850 LINE",
"436 478 LINE"
);
}
);
width = 993;
},
{
components = (
{
name = O;
}
);
layerId = "3D06B89B-468F-44E0-A3D7-A5BC6911123E";
paths = (
{
closed = 1;
nodes = (
"398 908 LINE",
"398 1000 LINE",
"206 626 LINE",
"206 534 LINE"
);
}
);
width = 569;
},
{
components = (
{
alignment = -1;
name = O;
}
);
layerId = "EB6D3A46-95FC-4F29-8169-EF2A3FEDBD5C";
paths = (
{
closed = 1;
nodes = (
"492 763 LINE",
"492 991 LINE",
"346 711 LINE",
"346 483 LINE"
);
}
);
width = 804;
},
{
components = (
{
alignment = -1;
name = O;
}
);
layerId = "C388322D-F001-4130-A10A-708FB59AF746";
paths = (
{
closed = 1;
nodes = (
"444 850 LINE",
"444 1012 LINE",
"264 682 LINE",
"264 520 LINE"
);
}
);
width = 674;
}
);
leftKerningGroup = O;
leftMetricsKey = O;
rightKerningGroup = O;
rightMetricsKey = O;
unicode = 00D8;
},
{
glyphname = P;
layers = (
{
layerId = "3B122060-26E0-4730-9241-82784E6CB359";
paths = (
{
closed = 1;
nodes = (
"220 0 LINE",
"220 1600 LINE",
"140 1600 LINE",
"140 0 LINE"
);
},
{
closed = 1;
nodes = (
"362 690 LINE SMOOTH",
"508 690 OFFCURVE",
"570 744 OFFCURVE",
"576 876 CURVE SMOOTH",
"584 1044 OFFCURVE",
"582 1198 OFFCURVE",
"576 1414 CURVE SMOOTH",
"572 1546 OFFCURVE",
"510 1600 OFFCURVE",
"364 1600 CURVE SMOOTH",
"312 1600 LINE",
"312 1524 LINE",
"364 1524 LINE SMOOTH",
"464 1524 OFFCURVE",
"494 1500 OFFCURVE",
"496 1414 CURVE SMOOTH",
"504 1178 OFFCURVE",
"504 1062 OFFCURVE",
"496 876 CURVE SMOOTH",
"492 790 OFFCURVE",
"466 766 OFFCURVE",
"362 766 CURVE SMOOTH",
"312 766 LINE",
"312 690 LINE"
);
}
);
width = 651;
},
{
layerId = "1DFA7D5B-2E97-4B89-827F-FB43F8066DC1";
paths = (
{
closed = 1;
nodes = (
"400 0 LINE",
"400 1600 LINE",
"100 1600 LINE",
"100 0 LINE"
);
},
{
closed = 1;
nodes = (
"534 508 LINE SMOOTH",
"832 508 OFFCURVE",
"954 620 OFFCURVE",
"964 898 CURVE SMOOTH",
"968 1010 OFFCURVE",
"968 1098 OFFCURVE",
"964 1210 CURVE SMOOTH",
"954 1488 OFFCURVE",
"832 1600 OFFCURVE",
"534 1600 CURVE SMOOTH",
"532 1600 LINE",
"532 1336 LINE",
"534 1336 LINE SMOOTH",
"618 1336 OFFCURVE",
"660 1296 OFFCURVE",
"664 1226 CURVE SMOOTH",
"670 1128 OFFCURVE",
"670 980 OFFCURVE",
"664 882 CURVE SMOOTH",
"660 812 OFFCURVE",
"618 772 OFFCURVE",
"534 772 CURVE SMOOTH",
"532 772 LINE",
"532 508 LINE"
);
}
);
width = 1022;
},
{
layerId = "5013C991-8699-46CB-BB1C-82E334DBD38B";
paths = (
{
closed = 1;
nodes = (
"380 0 LINE",
"380 1600 LINE",
"80 1600 LINE",
"80 0 LINE"
);
},
{
closed = 1;
nodes = (
"482 508 LINE SMOOTH",
"780 508 OFFCURVE",
"902 620 OFFCURVE",
"912 898 CURVE SMOOTH",
"916 1010 OFFCURVE",
"916 1098 OFFCURVE",
"912 1210 CURVE SMOOTH",
"902 1488 OFFCURVE",
"780 1600 OFFCURVE",
"482 1600 CURVE SMOOTH",
"480 1600 LINE",
"480 1336 LINE",
"482 1336 LINE SMOOTH",
"566 1336 OFFCURVE",
"608 1296 OFFCURVE",
"612 1226 CURVE SMOOTH",
"618 1128 OFFCURVE",
"618 980 OFFCURVE",
"612 882 CURVE SMOOTH",
"608 812 OFFCURVE",
"566 772 OFFCURVE",
"482 772 CURVE SMOOTH",
"480 772 LINE",
"480 508 LINE"
);
}
);
width = 957;
},
{
layerId = "3D06B89B-468F-44E0-A3D7-A5BC6911123E";
paths = (
{
closed = 1;
nodes = (
"160 0 LINE",
"160 1600 LINE",
"120 1600 LINE",
"120 0 LINE"
);
},
{
closed = 1;
nodes = (
"282 690 LINE SMOOTH",
"400 690 OFFCURVE",
"450 744 OFFCURVE",
"456 876 CURVE SMOOTH",
"464 1044 OFFCURVE",
"464 1198 OFFCURVE",
"456 1414 CURVE SMOOTH",
"450 1546 OFFCURVE",
"400 1600 OFFCURVE",
"284 1600 CURVE SMOOTH",
"240 1600 LINE",
"240 1560 LINE",
"284 1560 LINE SMOOTH",
"376 1560 OFFCURVE",
"412 1518 OFFCURVE",
"416 1414 CURVE SMOOTH",
"422 1222 OFFCURVE",
"422 1068 OFFCURVE",
"416 876 CURVE SMOOTH",
"412 772 OFFCURVE",
"376 730 OFFCURVE",
"282 730 CURVE SMOOTH",
"240 730 LINE",
"240 690 LINE"
);
}
);
width = 517;
},
{
layerId = "EB6D3A46-95FC-4F29-8169-EF2A3FEDBD5C";
paths = (
{
closed = 1;
nodes = (
"260 0 LINE",
"260 1600 LINE",
"125 1600 LINE",
"125 0 LINE"
);
},
{
closed = 1;
nodes = (
"400 645 LINE SMOOTH",
"584 645 OFFCURVE",
"661 713 OFFCURVE",
"668 882 CURVE SMOOTH",
"675 1036 OFFCURVE",
"674 1173 OFFCURVE",
"668 1363 CURVE SMOOTH",
"663 1532 OFFCURVE",
"586 1600 OFFCURVE",
"402 1600 CURVE SMOOTH",
"362 1600 LINE",
"362 1477 LINE",
"402 1477 LINE SMOOTH",
"498 1477 OFFCURVE",
"531 1449 OFFCURVE",
"533 1367 CURVE SMOOTH",
"541 1166 OFFCURVE",
"541 1042 OFFCURVE",
"533 878 CURVE SMOOTH",
"529 796 OFFCURVE",
"499 768 OFFCURVE",
"400 768 CURVE SMOOTH",
"362 768 LINE",
"362 645 LINE"
);
}
);
width = 738;
},
{
layerId = "C388322D-F001-4130-A10A-708FB59AF746";
paths = (
{
closed = 1;
nodes = (
"215 0 LINE",
"215 1600 LINE",
"110 1600 LINE",
"110 0 LINE"
);
},
{
closed = 1;
nodes = (
"332 645 LINE SMOOTH",
"495 645 OFFCURVE",
"563 713 OFFCURVE",
"570 882 CURVE SMOOTH",
"577 1036 OFFCURVE",
"577 1173 OFFCURVE",
"570 1363 CURVE SMOOTH",
"563 1532 OFFCURVE",
"495 1600 OFFCURVE",
"334 1600 CURVE SMOOTH",
"300 1600 LINE",
"300 1504 LINE",
"334 1504 LINE SMOOTH",
"424 1504 OFFCURVE",
"461 1463 OFFCURVE",
"465 1367 CURVE SMOOTH",
"471 1199 OFFCURVE",
"471 1046 OFFCURVE",
"465 878 CURVE SMOOTH",
"461 782 OFFCURVE",
"424 741 OFFCURVE",
"332 741 CURVE SMOOTH",
"300 741 LINE",
"300 645 LINE"
);
}
);
width = 630;
}
);
leftKerningGroup = H;
leftMetricsKey = H;
rightKerningGroup = P;
unicode = 0050;
},
{
glyphname = Thorn;
layers = (
{
layerId = "3B122060-26E0-4730-9241-82784E6CB359";
paths = (
{
closed = 1;
nodes = (
"342 370 LINE SMOOTH",
"488 370 OFFCURVE",
"550 424 OFFCURVE",
"556 556 CURVE SMOOTH",
"564 724 OFFCURVE",
"562 878 OFFCURVE",
"556 1094 CURVE SMOOTH",
"552 1226 OFFCURVE",
"490 1280 OFFCURVE",
"344 1280 CURVE SMOOTH",
"312 1280 LINE",
"312 1204 LINE",
"344 1204 LINE SMOOTH",
"444 1204 OFFCURVE",
"472 1178 OFFCURVE",
"476 1094 CURVE SMOOTH",
"486 882 OFFCURVE",
"482 768 OFFCURVE",
"476 556 CURVE SMOOTH",
"474 472 OFFCURVE",
"444 446 OFFCURVE",
"342 446 CURVE SMOOTH",
"312 446 LINE",
"312 370 LINE"
);
},
{
closed = 1;
nodes = (
"220 0 LINE",
"220 1600 LINE",
"140 1600 LINE",
"140 0 LINE"
);
}
);
width = 622;
},
{
layerId = "1DFA7D5B-2E97-4B89-827F-FB43F8066DC1";
paths = (
{
closed = 1;
nodes = (
"546 268 LINE SMOOTH",
"844 268 OFFCURVE",
"966 380 OFFCURVE",
"976 658 CURVE SMOOTH",
"980 770 OFFCURVE",
"980 858 OFFCURVE",
"976 970 CURVE SMOOTH",
"966 1248 OFFCURVE",
"844 1360 OFFCURVE",
"546 1360 CURVE SMOOTH",
"532 1360 LINE",
"532 1096 LINE",
"546 1096 LINE SMOOTH",
"630 1096 OFFCURVE",
"672 1056 OFFCURVE",
"676 986 CURVE SMOOTH",
"682 888 OFFCURVE",
"682 740 OFFCURVE",
"676 642 CURVE SMOOTH",
"672 572 OFFCURVE",
"630 532 OFFCURVE",
"546 532 CURVE SMOOTH",
"532 532 LINE",
"532 268 LINE"
);
},
{
closed = 1;
nodes = (
"400 0 LINE",
"400 1600 LINE",
"100 1600 LINE",
"100 0 LINE"
);
}
);
width = 1020;
},
{
layerId = "5013C991-8699-46CB-BB1C-82E334DBD38B";
paths = (
{
closed = 1;
nodes = (
"486 268 LINE SMOOTH",
"784 268 OFFCURVE",
"906 380 OFFCURVE",
"916 658 CURVE SMOOTH",
"920 770 OFFCURVE",
"920 858 OFFCURVE",
"916 970 CURVE SMOOTH",
"906 1248 OFFCURVE",
"784 1360 OFFCURVE",
"486 1360 CURVE SMOOTH",
"480 1360 LINE",
"480 1096 LINE",
"486 1096 LINE SMOOTH",
"570 1096 OFFCURVE",
"612 1056 OFFCURVE",
"616 986 CURVE SMOOTH",
"622 888 OFFCURVE",
"622 740 OFFCURVE",
"616 642 CURVE SMOOTH",
"612 572 OFFCURVE",
"570 532 OFFCURVE",
"486 532 CURVE SMOOTH",
"480 532 LINE",
"480 268 LINE"
);
},
{
closed = 1;
nodes = (
"380 0 LINE",
"380 1600 LINE",
"80 1600 LINE",
"80 0 LINE"
);
}
);
width = 958;
},
{
layerId = "3D06B89B-468F-44E0-A3D7-A5BC6911123E";
paths = (
{
closed = 1;
nodes = (
"282 370 LINE SMOOTH",
"400 370 OFFCURVE",
"450 424 OFFCURVE",
"456 556 CURVE SMOOTH",
"464 724 OFFCURVE",
"462 878 OFFCURVE",
"456 1094 CURVE SMOOTH",
"452 1226 OFFCURVE",
"400 1280 OFFCURVE",
"284 1280 CURVE SMOOTH",
"240 1280 LINE",
"240 1240 LINE",
"284 1240 LINE SMOOTH",
"376 1240 OFFCURVE",
"412 1198 OFFCURVE",
"416 1094 CURVE SMOOTH",
"424 902 OFFCURVE",
"424 748 OFFCURVE",
"416 556 CURVE SMOOTH",
"412 452 OFFCURVE",
"376 410 OFFCURVE",
"282 410 CURVE SMOOTH",
"240 410 LINE",
"240 370 LINE"
);
},
{
closed = 1;
nodes = (
"160 0 LINE",
"160 1600 LINE",
"120 1600 LINE",
"120 0 LINE"
);
}
);
width = 522;
},
{
layerId = "EB6D3A46-95FC-4F29-8169-EF2A3FEDBD5C";
paths = (
{
closed = 1;
nodes = (
"388 345 LINE SMOOTH",
"572 345 OFFCURVE",
"649 413 OFFCURVE",
"656 582 CURVE SMOOTH",
"663 736 OFFCURVE",
"662 873 OFFCURVE",
"656 1063 CURVE SMOOTH",
"651 1232 OFFCURVE",
"574 1300 OFFCURVE",
"390 1300 CURVE SMOOTH",
"362 1300 LINE",
"362 1177 LINE",
"390 1177 LINE SMOOTH",
"486 1177 OFFCURVE",
"517 1148 OFFCURVE",
"521 1067 CURVE SMOOTH",
"530 884 OFFCURVE",
"527 761 OFFCURVE",
"521 578 CURVE SMOOTH",
"519 497 OFFCURVE",
"486 468 OFFCURVE",
"388 468 CURVE SMOOTH",
"362 468 LINE",
"362 345 LINE"
);
},
{
closed = 1;
nodes = (
"260 0 LINE",
"260 1600 LINE",
"125 1600 LINE",
"125 0 LINE"
);
}
);
width = 717;
},
{
layerId = "C388322D-F001-4130-A10A-708FB59AF746";
paths = (
{
closed = 1;
nodes = (
"333 345 LINE SMOOTH",
"496 345 OFFCURVE",
"564 413 OFFCURVE",
"571 582 CURVE SMOOTH",
"578 736 OFFCURVE",
"577 873 OFFCURVE",
"571 1063 CURVE SMOOTH",
"566 1232 OFFCURVE",
"496 1300 OFFCURVE",
"335 1300 CURVE SMOOTH",
"300 1300 LINE",
"300 1204 LINE",
"335 1204 LINE SMOOTH",
"425 1204 OFFCURVE",
"462 1163 OFFCURVE",
"466 1067 CURVE SMOOTH",
"474 899 OFFCURVE",
"474 746 OFFCURVE",
"466 578 CURVE SMOOTH",
"462 482 OFFCURVE",
"425 441 OFFCURVE",
"333 441 CURVE SMOOTH",
"300 441 LINE",
"300 345 LINE"
);
},
{
closed = 1;
nodes = (
"215 0 LINE",
"215 1600 LINE",
"110 1600 LINE",
"110 0 LINE"
);
}
);
width = 631;
}
);
leftKerningGroup = H;
leftMetricsKey = H;
rightKerningGroup = P;
unicode = 00DE;
},
{
color = 1;
glyphname = Q;
layers = (
{
background = {
paths = (
{
closed = 1;
nodes = (
"376 -10 OFFCURVE",
"426 42 OFFCURVE",
"426 170 CURVE SMOOTH",
"430 620 OFFCURVE",
"430 978 OFFCURVE",
"426 1428 CURVE SMOOTH",
"426 1558 OFFCURVE",
"376 1610 OFFCURVE",
"250 1610 CURVE SMOOTH",
"124 1610 OFFCURVE",
"74 1558 OFFCURVE",
"74 1428 CURVE SMOOTH",
"70 978 OFFCURVE",
"70 620 OFFCURVE",
"74 170 CURVE SMOOTH",
"74 42 OFFCURVE",
"124 -10 OFFCURVE",
"250 -10 CURVE SMOOTH"
);
},
{
closed = 1;
nodes = (
"156 30 OFFCURVE",
"116 70 OFFCURVE",
"114 170 CURVE SMOOTH",
"108 620 OFFCURVE",
"108 978 OFFCURVE",
"114 1428 CURVE SMOOTH",
"116 1530 OFFCURVE",
"156 1570 OFFCURVE",
"250 1570 CURVE SMOOTH",
"344 1570 OFFCURVE",
"384 1530 OFFCURVE",
"386 1428 CURVE SMOOTH",
"392 978 OFFCURVE",
"392 620 OFFCURVE",
"386 170 CURVE SMOOTH",
"384 70 OFFCURVE",
"344 30 OFFCURVE",
"250 30 CURVE SMOOTH"
);
}
);
};
layerId = "3B122060-26E0-4730-9241-82784E6CB359";
paths = (
{
closed = 1;
nodes = (
"116 68 OFFCURVE",
"171 4 OFFCURVE",
"302 -8 CURVE",
"302 68 LINE",
"221 77 OFFCURVE",
"196 113 OFFCURVE",
"194 210 CURVE SMOOTH",
"186 702 OFFCURVE",
"186 922 OFFCURVE",
"194 1388 CURVE SMOOTH",
"196 1485 OFFCURVE",
"221 1523 OFFCURVE",
"302 1532 CURVE",
"302 1608 LINE",
"171 1596 OFFCURVE",
"116 1530 OFFCURVE",
"114 1388 CURVE SMOOTH",
"108 948 OFFCURVE",
"108 670 OFFCURVE",
"114 210 CURVE"
);
},
{
closed = 1;
nodes = (
"324 -144 OFFCURVE",
"366 -180 OFFCURVE",
"456 -174 CURVE",
"456 -102 LINE",
"416 -106 OFFCURVE",
"400 -94 OFFCURVE",
"392 -50 CURVE",
"312 -50 LINE"
);
},
{
closed = 1;
nodes = (
"530 5 OFFCURVE",
"584 70 OFFCURVE",
"586 210 CURVE SMOOTH",
"592 670 OFFCURVE",
"592 948 OFFCURVE",
"586 1388 CURVE SMOOTH",
"584 1528 OFFCURVE",
"530 1595 OFFCURVE",
"402 1608 CURVE",
"402 1531 LINE",
"480 1521 OFFCURVE",
"504 1483 OFFCURVE",
"506 1388 CURVE SMOOTH",
"514 908 OFFCURVE",
"514 688 OFFCURVE",
"506 210 CURVE SMOOTH",
"504 115 OFFCURVE",
"480 78 OFFCURVE",
"402 69 CURVE",
"402 -8 LINE"
);
}
);
width = 700;
},
{
background = {
paths = (
{
closed = 1;
nodes = (
"780 -20 OFFCURVE",
"900 94 OFFCURVE",
"906 382 CURVE SMOOTH",
"912 680 OFFCURVE",
"912 918 OFFCURVE",
"906 1220 CURVE SMOOTH",
"900 1506 OFFCURVE",
"780 1620 OFFCURVE",
"486 1620 CURVE SMOOTH",
"192 1620 OFFCURVE",
"70 1506 OFFCURVE",
"64 1220 CURVE SMOOTH",
"58 920 OFFCURVE",
"58 682 OFFCURVE",
"64 382 CURVE SMOOTH",
"70 94 OFFCURVE",
"192 -20 OFFCURVE",
"486 -20 CURVE SMOOTH"
);
},
{
closed = 1;
nodes = (
"410 224 OFFCURVE",
"366 260 OFFCURVE",
"364 326 CURVE SMOOTH",
"352 598 OFFCURVE",
"352 1004 OFFCURVE",
"364 1276 CURVE SMOOTH",
"366 1340 OFFCURVE",
"410 1376 OFFCURVE",
"486 1376 CURVE SMOOTH",
"564 1376 OFFCURVE",
"604 1340 OFFCURVE",
"606 1276 CURVE SMOOTH",
"612 1004 OFFCURVE",
"612 598 OFFCURVE",
"606 326 CURVE SMOOTH",
"604 260 OFFCURVE",
"564 224 OFFCURVE",
"486 224 CURVE SMOOTH"
);
}
);
};
layerId = "1DFA7D5B-2E97-4B89-827F-FB43F8066DC1";
paths = (
{
closed = 1;
nodes = (
"90 114 OFFCURVE",
"199 -3 OFFCURVE",
"464 -18 CURVE",
"464 233 LINE",
"413 249 OFFCURVE",
"389 291 OFFCURVE",
"388 366 CURVE SMOOTH",
"374 658 OFFCURVE",
"374 944 OFFCURVE",
"388 1236 CURVE SMOOTH",
"389 1310 OFFCURVE",
"413 1351 OFFCURVE",
"464 1367 CURVE",
"464 1618 LINE",
"199 1603 OFFCURVE",
"90 1486 OFFCURVE",
"84 1220 CURVE SMOOTH",
"78 920 OFFCURVE",
"78 682 OFFCURVE",
"84 382 CURVE"
);
},
{
closed = 1;
nodes = (
"424 -264 OFFCURVE",
"548 -348 OFFCURVE",
"804 -328 CURVE",
"804 -88 LINE",
"740 -96 OFFCURVE",
"698 -78 OFFCURVE",
"680 -38 CURVE",
"392 -38 LINE"
);
},
{
closed = 1;
nodes = (
"849 -1 OFFCURVE",
"957 116 OFFCURVE",
"966 382 CURVE SMOOTH",
"978 680 OFFCURVE",
"978 918 OFFCURVE",
"966 1220 CURVE SMOOTH",
"957 1484 OFFCURVE",
"849 1601 OFFCURVE",
"594 1618 CURVE",
"594 1368 LINE",
"646 1352 OFFCURVE",
"669 1310 OFFCURVE",
"670 1236 CURVE SMOOTH",
"684 944 OFFCURVE",
"684 658 OFFCURVE",
"670 366 CURVE SMOOTH",
"669 290 OFFCURVE",
"646 248 OFFCURVE",
"594 232 CURVE",
"594 -18 LINE"
);
}
);
width = 1055;
},
{
background = {
paths = (
{
closed = 1;
nodes = (
"770 -20 OFFCURVE",
"890 94 OFFCURVE",
"896 382 CURVE SMOOTH",
"902 680 OFFCURVE",
"902 918 OFFCURVE",
"896 1220 CURVE SMOOTH",
"890 1506 OFFCURVE",
"770 1620 OFFCURVE",
"476 1620 CURVE SMOOTH",
"182 1620 OFFCURVE",
"60 1506 OFFCURVE",
"54 1220 CURVE SMOOTH",
"48 920 OFFCURVE",
"48 682 OFFCURVE",
"54 382 CURVE SMOOTH",
"60 94 OFFCURVE",
"182 -20 OFFCURVE",
"476 -20 CURVE SMOOTH"
);
},
{
closed = 1;
nodes = (
"400 224 OFFCURVE",
"356 260 OFFCURVE",
"354 326 CURVE SMOOTH",
"342 598 OFFCURVE",
"342 1004 OFFCURVE",
"354 1276 CURVE SMOOTH",
"356 1340 OFFCURVE",
"400 1376 OFFCURVE",
"476 1376 CURVE SMOOTH",
"554 1376 OFFCURVE",
"594 1340 OFFCURVE",
"596 1276 CURVE SMOOTH",
"602 1004 OFFCURVE",
"602 598 OFFCURVE",
"596 326 CURVE SMOOTH",
"594 260 OFFCURVE",
"554 224 OFFCURVE",
"476 224 CURVE SMOOTH"
);
}
);
};
layerId = "5013C991-8699-46CB-BB1C-82E334DBD38B";
paths = (
{
closed = 1;
nodes = (
"80 110 OFFCURVE",
"189 -7 OFFCURVE",
"448 -19 CURVE",
"448 230 LINE",
"403 243 OFFCURVE",
"378 276 OFFCURVE",
"376 326 CURVE SMOOTH",
"364 598 OFFCURVE",
"364 1004 OFFCURVE",
"376 1276 CURVE SMOOTH",
"378 1324 OFFCURVE",
"403 1357 OFFCURVE",
"448 1370 CURVE",
"448 1619 LINE",
"189 1607 OFFCURVE",
"80 1490 OFFCURVE",
"74 1220 CURVE SMOOTH",
"68 958 OFFCURVE",
"68 644 OFFCURVE",
"74 382 CURVE"
);
},
{
closed = 1;
nodes = (
"408 -256 OFFCURVE",
"532 -337 OFFCURVE",
"784 -318 CURVE",
"784 -78 LINE",
"725 -86 OFFCURVE",
"685 -72 OFFCURVE",
"666 -38 CURVE",
"373 -38 LINE"
);
},
{
closed = 1;
nodes = (
"804 -5 OFFCURVE",
"907 112 OFFCURVE",
"916 382 CURVE SMOOTH",
"926 644 OFFCURVE",
"926 954 OFFCURVE",
"916 1220 CURVE SMOOTH",
"907 1488 OFFCURVE",
"804 1605 OFFCURVE",
"548 1619 CURVE",
"548 1370 LINE",
"592 1357 OFFCURVE",
"616 1324 OFFCURVE",
"618 1276 CURVE SMOOTH",
"630 1004 OFFCURVE",
"630 598 OFFCURVE",
"618 326 CURVE SMOOTH",
"616 276 OFFCURVE",
"593 243 OFFCURVE",
"548 230 CURVE",
"548 -19 LINE"
);
}
);
width = 993;
},
{
background = {
paths = (
{
closed = 1;
nodes = (
"390 -10 OFFCURVE",
"440 42 OFFCURVE",
"440 170 CURVE SMOOTH",
"444 620 OFFCURVE",
"444 978 OFFCURVE",
"440 1428 CURVE SMOOTH",
"440 1558 OFFCURVE",
"390 1610 OFFCURVE",
"264 1610 CURVE SMOOTH",
"138 1610 OFFCURVE",
"88 1558 OFFCURVE",
"88 1428 CURVE SMOOTH",
"84 978 OFFCURVE",
"84 620 OFFCURVE",
"88 170 CURVE SMOOTH",
"88 42 OFFCURVE",
"138 -10 OFFCURVE",
"264 -10 CURVE SMOOTH"
);
},
{
closed = 1;
nodes = (
"170 30 OFFCURVE",
"130 70 OFFCURVE",
"128 170 CURVE SMOOTH",
"122 620 OFFCURVE",
"122 978 OFFCURVE",
"128 1428 CURVE SMOOTH",
"130 1530 OFFCURVE",
"170 1570 OFFCURVE",
"264 1570 CURVE SMOOTH",
"358 1570 OFFCURVE",
"398 1530 OFFCURVE",
"400 1428 CURVE SMOOTH",
"406 978 OFFCURVE",
"406 620 OFFCURVE",
"400 170 CURVE SMOOTH",
"398 70 OFFCURVE",
"358 30 OFFCURVE",
"264 30 CURVE SMOOTH"
);
}
);
};
layerId = "3D06B89B-468F-44E0-A3D7-A5BC6911123E";
paths = (
{
closed = 1;
nodes = (
"112 57 OFFCURVE",
"149 4 OFFCURVE",
"244 -8 CURVE",
"244 32 LINE",
"175 42 OFFCURVE",
"150 80 OFFCURVE",
"148 170 CURVE SMOOTH",
"140 628 OFFCURVE",
"138 988 OFFCURVE",
"148 1428 CURVE SMOOTH",
"150 1520 OFFCURVE",
"175 1558 OFFCURVE",
"244 1568 CURVE",
"244 1608 LINE",
"149 1596 OFFCURVE",
"112 1542 OFFCURVE",
"110 1428 CURVE SMOOTH",
"102 978 OFFCURVE",
"102 620 OFFCURVE",
"110 170 CURVE"
);
},
{
closed = 1;
nodes = (
"278 -128 OFFCURVE",
"322 -158 OFFCURVE",
"404 -154 CURVE",
"404 -118 LINE",
"348 -122 OFFCURVE",
"318 -102 OFFCURVE",
"304 -50 CURVE",
"264 -50 LINE"
);
},
{
closed = 1;
nodes = (
"422 2 OFFCURVE",
"462 56 OFFCURVE",
"462 170 CURVE SMOOTH",
"466 620 OFFCURVE",
"466 978 OFFCURVE",
"462 1428 CURVE SMOOTH",
"462 1544 OFFCURVE",
"422 1598 OFFCURVE",
"324 1608 CURVE",
"324 1568 LINE",
"393 1558 OFFCURVE",
"418 1520 OFFCURVE",
"420 1428 CURVE SMOOTH",
"426 988 OFFCURVE",
"430 628 OFFCURVE",
"420 170 CURVE SMOOTH",
"418 80 OFFCURVE",
"393 42 OFFCURVE",
"324 32 CURVE",
"324 -8 LINE"
);
}
);
width = 569;
},
{
layerId = "EB6D3A46-95FC-4F29-8169-EF2A3FEDBD5C";
paths = (
{
closed = 1;
nodes = (
"116 80 OFFCURVE",
"185 2 OFFCURVE",
"350 -11 CURVE",
"350 109 LINE",
"276 120 OFFCURVE",
"251 157 OFFCURVE",
"250 249 CURVE SMOOTH",
"240 691 OFFCURVE",
"240 928 OFFCURVE",
"250 1350 CURVE SMOOTH",
"251 1441 OFFCURVE",
"276 1480 OFFCURVE",
"350 1491 CURVE",
"350 1611 LINE",
"185 1598 OFFCURVE",
"116 1519 OFFCURVE",
"114 1346 CURVE SMOOTH",
"108 941 OFFCURVE",
"108 673 OFFCURVE",
"114 253 CURVE"
);
},
{
closed = 1;
nodes = (
"356 -174 OFFCURVE",
"419 -222 OFFCURVE",
"550 -213 CURVE",
"550 -99 LINE",
"504 -104 OFFCURVE",
"482 -90 OFFCURVE",
"471 -47 CURVE",
"339 -47 LINE"
);
},
{
closed = 1;
nodes = (
"617 4 OFFCURVE",
"684 81 OFFCURVE",
"688 253 CURVE SMOOTH",
"696 673 OFFCURVE",
"696 941 OFFCURVE",
"688 1346 CURVE SMOOTH",
"684 1517 OFFCURVE",
"617 1596 OFFCURVE",
"457 1610 CURVE",
"457 1490 LINE",
"529 1479 OFFCURVE",
"552 1440 OFFCURVE",
"554 1350 CURVE SMOOTH",
"564 917 OFFCURVE",
"564 681 OFFCURVE",
"554 249 CURVE SMOOTH",
"552 158 OFFCURVE",
"529 121 OFFCURVE",
"457 110 CURVE",
"457 -10 LINE"
);
}
);
width = 804;
},
{
layerId = "C388322D-F001-4130-A10A-708FB59AF746";
paths = (
{
closed = 1;
nodes = (
"103 71 OFFCURVE",
"158 1 OFFCURVE",
"294 -11 CURVE",
"294 82 LINE",
"231 92 OFFCURVE",
"206 129 OFFCURVE",
"204 209 CURVE SMOOTH",
"195 621 OFFCURVE",
"194 992 OFFCURVE",
"204 1390 CURVE SMOOTH",
"206 1471 OFFCURVE",
"231 1508 OFFCURVE",
"294 1518 CURVE",
"294 1611 LINE",
"158 1599 OFFCURVE",
"103 1529 OFFCURVE",
"100 1376 CURVE SMOOTH",
"93 973 OFFCURVE",
"93 626 OFFCURVE",
"100 223 CURVE"
);
},
{
closed = 1;
nodes = (
"310 -160 OFFCURVE",
"374 -203 OFFCURVE",
"498 -195 CURVE",
"498 -108 LINE",
"441 -113 OFFCURVE",
"409 -94 OFFCURVE",
"393 -47 CURVE",
"290 -47 LINE"
);
},
{
closed = 1;
nodes = (
"517 0 OFFCURVE",
"572 70 OFFCURVE",
"575 223 CURVE SMOOTH",
"580 626 OFFCURVE",
"580 972 OFFCURVE",
"575 1376 CURVE SMOOTH",
"572 1530 OFFCURVE",
"517 1600 OFFCURVE",
"379 1611 CURVE",
"379 1518 LINE",
"442 1508 OFFCURVE",
"467 1471 OFFCURVE",
"469 1390 CURVE SMOOTH",
"476 992 OFFCURVE",
"479 621 OFFCURVE",
"469 209 CURVE SMOOTH",
"467 129 OFFCURVE",
"442 92 OFFCURVE",
"379 82 CURVE",
"379 -11 LINE"
);
}
);
width = 674;
}
);
leftKerningGroup = O;
leftMetricsKey = O;
rightKerningGroup = O;
rightMetricsKey = O;
unicode = 0051;
},
{
glyphname = R;
layers = (
{
anchors = (
{
name = bottom;
position = "{376, 0}";
},
{
name = top;
position = "{364, 1600}";
}
);
background = {
paths = (
{
closed = 1;
nodes = (
"318 756 LINE SMOOTH",
"438 756 OFFCURVE",
"488 800 OFFCURVE",
"492 924 CURVE SMOOTH",
"498 1066 OFFCURVE",
"498 1206 OFFCURVE",
"492 1414 CURVE SMOOTH",
"488 1546 OFFCURVE",
"438 1600 OFFCURVE",
"320 1600 CURVE SMOOTH",
"182 1600 LINE",
"182 1560 LINE",
"320 1560 LINE SMOOTH",
"410 1560 OFFCURVE",
"448 1518 OFFCURVE",
"452 1414 CURVE SMOOTH",
"458 1238 OFFCURVE",
"458 1096 OFFCURVE",
"452 920 CURVE SMOOTH",
"448 816 OFFCURVE",
"410 774 OFFCURVE",
"318 774 CURVE SMOOTH",
"190 774 LINE",
"190 756 LINE"
);
},
{
closed = 1;
nodes = (
"498 0 LINE",
"500 138 OFFCURVE",
"498 306 OFFCURVE",
"496 588 CURVE SMOOTH",
"494 710 OFFCURVE",
"444 754 OFFCURVE",
"324 754 CURVE SMOOTH",
"182 754 LINE",
"182 734 LINE",
"324 734 LINE SMOOTH",
"416 734 OFFCURVE",
"454 692 OFFCURVE",
"456 588 CURVE SMOOTH",
"460 400 OFFCURVE",
"460 232 OFFCURVE",
"458 0 CURVE"
);
},
{
closed = 1;
nodes = (
"200 0 LINE",
"200 1600 LINE",
"160 1600 LINE",
"160 0 LINE"
);
},
{
closed = 1;
nodes = (
"410 740 LINE",
"410 774 LINE",
"190 774 LINE",
"190 740 LINE"
);
}
);
};
layerId = "3B122060-26E0-4730-9241-82784E6CB359";
paths = (
{
closed = 1;
nodes = (
"630 0 LINE",
"482 664 LINE",
"556 686 OFFCURVE",
"590 740 OFFCURVE",
"594 836 CURVE SMOOTH",
"602 1016 OFFCURVE",
"602 1182 OFFCURVE",
"594 1414 CURVE SMOOTH",
"590 1546 OFFCURVE",
"528 1600 OFFCURVE",
"382 1600 CURVE SMOOTH",
"312 1600 LINE",
"312 1524 LINE",
"382 1524 LINE SMOOTH",
"482 1524 OFFCURVE",
"510 1500 OFFCURVE",
"514 1414 CURVE SMOOTH",
"524 1186 OFFCURVE",
"520 1064 OFFCURVE",
"514 836 CURVE SMOOTH",
"512 752 OFFCURVE",
"482 728 OFFCURVE",
"380 728 CURVE SMOOTH",
"320 728 LINE",
"320 652 LINE",
"400 652 LINE",
"546 0 LINE"
);
},
{
closed = 1;
nodes = (
"220 0 LINE",
"220 1600 LINE",
"140 1600 LINE",
"140 0 LINE"
);
}
);
width = 702;
},
{
anchors = (
{
name = bottom;
position = "{520, 0}";
},
{
name = top;
position = "{492, 1600}";
}
);
background = {
paths = (
{
closed = 1;
nodes = (
"486 736 LINE SMOOTH",
"786 740 OFFCURVE",
"908 824 OFFCURVE",
"916 1044 CURVE SMOOTH",
"918 1102 OFFCURVE",
"918 1150 OFFCURVE",
"916 1210 CURVE SMOOTH",
"906 1488 OFFCURVE",
"784 1600 OFFCURVE",
"486 1600 CURVE SMOOTH",
"334 1600 LINE",
"334 1336 LINE",
"486 1336 LINE SMOOTH",
"570 1336 OFFCURVE",
"616 1296 OFFCURVE",
"616 1226 CURVE SMOOTH",
"616 1162 OFFCURVE",
"616 1074 OFFCURVE",
"616 1010 CURVE SMOOTH",
"616 926 OFFCURVE",
"570 880 OFFCURVE",
"486 880 CURVE SMOOTH",
"326 880 LINE",
"326 734 LINE"
);
},
{
closed = 1;
nodes = (
"922 0 LINE",
"924 138 OFFCURVE",
"920 290 OFFCURVE",
"914 428 CURVE SMOOTH",
"904 654 OFFCURVE",
"786 734 OFFCURVE",
"494 734 CURVE SMOOTH",
"326 734 LINE",
"326 614 LINE",
"482 614 LINE SMOOTH",
"564 614 OFFCURVE",
"610 562 OFFCURVE",
"614 470 CURVE SMOOTH",
"620 322 OFFCURVE",
"624 148 OFFCURVE",
"622 0 CURVE"
);
},
{
closed = 1;
nodes = (
"400 0 LINE",
"400 1600 LINE",
"100 1600 LINE",
"100 0 LINE"
);
},
{
closed = 1;
nodes = (
"698 694 LINE",
"698 768 LINE",
"326 768 LINE",
"326 694 LINE"
);
}
);
};
layerId = "1DFA7D5B-2E97-4B89-827F-FB43F8066DC1";
paths = (
{
closed = 1;
nodes = (
"994 0 LINE",
"806 596 LINE",
"908 654 OFFCURVE",
"956 762 OFFCURVE",
"962 930 CURVE SMOOTH",
"966 1042 OFFCURVE",
"966 1098 OFFCURVE",
"962 1210 CURVE SMOOTH",
"952 1488 OFFCURVE",
"830 1600 OFFCURVE",
"532 1600 CURVE SMOOTH",
"530 1600 LINE",
"530 1336 LINE",
"532 1336 LINE SMOOTH",
"616 1336 OFFCURVE",
"658 1296 OFFCURVE",
"662 1226 CURVE SMOOTH",
"668 1128 OFFCURVE",
"668 1012 OFFCURVE",
"662 914 CURVE SMOOTH",
"658 844 OFFCURVE",
"616 804 OFFCURVE",
"532 804 CURVE SMOOTH",
"530 804 LINE",
"530 540 LINE",
"532 540 LINE",
"682 0 LINE"
);
},
{
closed = 1;
nodes = (
"400 0 LINE",
"400 1600 LINE",
"100 1600 LINE",
"100 0 LINE"
);
}
);
width = 1050;
},
{
anchors = (
{
name = bottom;
position = "{500, 0}";
},
{
name = top;
position = "{472, 1600}";
}
);
background = {
paths = (
{
closed = 1;
nodes = (
"466 736 LINE SMOOTH",
"766 740 OFFCURVE",
"888 824 OFFCURVE",
"896 1044 CURVE SMOOTH",
"898 1102 OFFCURVE",
"898 1150 OFFCURVE",
"896 1210 CURVE SMOOTH",
"886 1488 OFFCURVE",
"764 1600 OFFCURVE",
"466 1600 CURVE SMOOTH",
"314 1600 LINE",
"314 1336 LINE",
"466 1336 LINE SMOOTH",
"550 1336 OFFCURVE",
"596 1296 OFFCURVE",
"596 1226 CURVE SMOOTH",
"596 1162 OFFCURVE",
"596 1074 OFFCURVE",
"596 1010 CURVE SMOOTH",
"596 926 OFFCURVE",
"550 880 OFFCURVE",
"466 880 CURVE SMOOTH",
"306 880 LINE",
"306 734 LINE"
);
},
{
closed = 1;
nodes = (
"902 0 LINE",
"904 138 OFFCURVE",
"900 290 OFFCURVE",
"894 428 CURVE SMOOTH",
"884 654 OFFCURVE",
"766 734 OFFCURVE",
"474 734 CURVE SMOOTH",
"306 734 LINE",
"306 614 LINE",
"462 614 LINE SMOOTH",
"544 614 OFFCURVE",
"590 562 OFFCURVE",
"594 470 CURVE SMOOTH",
"600 322 OFFCURVE",
"604 148 OFFCURVE",
"602 0 CURVE"
);
},
{
closed = 1;
nodes = (
"380 0 LINE",
"380 1600 LINE",
"80 1600 LINE",
"80 0 LINE"
);
},
{
closed = 1;
nodes = (
"678 694 LINE",
"678 768 LINE",
"306 768 LINE",
"306 694 LINE"
);
}
);
};
layerId = "5013C991-8699-46CB-BB1C-82E334DBD38B";
paths = (
{
closed = 1;
nodes = (
"944 0 LINE",
"756 596 LINE",
"858 654 OFFCURVE",
"906 762 OFFCURVE",
"912 930 CURVE SMOOTH",
"916 1042 OFFCURVE",
"916 1098 OFFCURVE",
"912 1210 CURVE SMOOTH",
"902 1488 OFFCURVE",
"780 1600 OFFCURVE",
"482 1600 CURVE SMOOTH",
"480 1600 LINE",
"480 1336 LINE",
"482 1336 LINE SMOOTH",
"566 1336 OFFCURVE",
"608 1296 OFFCURVE",
"612 1226 CURVE SMOOTH",
"618 1128 OFFCURVE",
"618 1012 OFFCURVE",
"612 914 CURVE SMOOTH",
"608 844 OFFCURVE",
"566 804 OFFCURVE",
"482 804 CURVE SMOOTH",
"480 804 LINE",
"480 540 LINE",
"482 540 LINE",
"632 0 LINE"
);
},
{
closed = 1;
nodes = (
"380 0 LINE",
"380 1600 LINE",
"80 1600 LINE",
"80 0 LINE"
);
}
);
width = 980;
},
{
anchors = (
{
name = bottom;
position = "{294, 0}";
},
{
name = top;
position = "{264, 1600}";
}
);
background = {
paths = (
{
closed = 1;
nodes = (
"278 756 LINE SMOOTH",
"398 756 OFFCURVE",
"448 800 OFFCURVE",
"452 924 CURVE SMOOTH",
"458 1066 OFFCURVE",
"458 1206 OFFCURVE",
"452 1414 CURVE SMOOTH",
"448 1546 OFFCURVE",
"398 1600 OFFCURVE",
"280 1600 CURVE SMOOTH",
"142 1600 LINE",
"142 1560 LINE",
"280 1560 LINE SMOOTH",
"370 1560 OFFCURVE",
"408 1518 OFFCURVE",
"412 1414 CURVE SMOOTH",
"418 1238 OFFCURVE",
"418 1096 OFFCURVE",
"412 920 CURVE SMOOTH",
"408 816 OFFCURVE",
"370 774 OFFCURVE",
"278 774 CURVE SMOOTH",
"150 774 LINE",
"150 756 LINE"
);
},
{
closed = 1;
nodes = (
"458 0 LINE",
"460 138 OFFCURVE",
"458 306 OFFCURVE",
"456 588 CURVE SMOOTH",
"454 710 OFFCURVE",
"404 754 OFFCURVE",
"284 754 CURVE SMOOTH",
"142 754 LINE",
"142 734 LINE",
"284 734 LINE SMOOTH",
"376 734 OFFCURVE",
"414 692 OFFCURVE",
"416 588 CURVE SMOOTH",
"420 400 OFFCURVE",
"420 232 OFFCURVE",
"418 0 CURVE"
);
},
{
closed = 1;
nodes = (
"160 0 LINE",
"160 1600 LINE",
"120 1600 LINE",
"120 0 LINE"
);
},
{
closed = 1;
nodes = (
"370 740 LINE",
"370 774 LINE",
"150 774 LINE",
"150 740 LINE"
);
}
);
};
layerId = "3D06B89B-468F-44E0-A3D7-A5BC6911123E";
paths = (
{
closed = 1;
nodes = (
"492 0 LINE",
"346 658 LINE",
"418 676 OFFCURVE",
"452 732 OFFCURVE",
"456 836 CURVE SMOOTH",
"464 1004 OFFCURVE",
"464 1198 OFFCURVE",
"456 1414 CURVE SMOOTH",
"450 1546 OFFCURVE",
"400 1600 OFFCURVE",
"284 1600 CURVE SMOOTH",
"240 1600 LINE",
"240 1560 LINE",
"284 1560 LINE SMOOTH",
"376 1560 OFFCURVE",
"412 1518 OFFCURVE",
"416 1414 CURVE SMOOTH",
"422 1222 OFFCURVE",
"422 1028 OFFCURVE",
"416 836 CURVE SMOOTH",
"412 732 OFFCURVE",
"376 690 OFFCURVE",
"282 690 CURVE SMOOTH",
"220 690 LINE",
"220 650 LINE",
"304 650 LINE",
"448 0 LINE"
);
},
{
closed = 1;
nodes = (
"160 0 LINE",
"160 1600 LINE",
"120 1600 LINE",
"120 0 LINE"
);
}
);
width = 549;
},
{
anchors = (
{
name = bottom;
position = "{407, 0}";
},
{
name = top;
position = "{391, 1600}";
}
);
layerId = "EB6D3A46-95FC-4F29-8169-EF2A3FEDBD5C";
paths = (
{
closed = 1;
nodes = (
"716 0 LINE",
"558 647 LINE",
"639 678 OFFCURVE",
"677 746 OFFCURVE",
"681 860 CURVE SMOOTH",
"688 1023 OFFCURVE",
"688 1161 OFFCURVE",
"681 1363 CURVE SMOOTH",
"676 1532 OFFCURVE",
"599 1600 OFFCURVE",
"415 1600 CURVE SMOOTH",
"362 1600 LINE",
"362 1477 LINE",
"415 1477 LINE SMOOTH",
"511 1477 OFFCURVE",
"542 1449 OFFCURVE",
"546 1367 CURVE SMOOTH",
"555 1172 OFFCURVE",
"552 1051 OFFCURVE",
"546 856 CURVE SMOOTH",
"544 775 OFFCURVE",
"511 747 OFFCURVE",
"413 747 CURVE SMOOTH",
"368 747 LINE",
"368 624 LINE",
"428 624 LINE",
"575 0 LINE"
);
},
{
closed = 1;
nodes = (
"260 0 LINE",
"260 1600 LINE",
"125 1600 LINE",
"125 0 LINE"
);
}
);
width = 783;
},
{
anchors = (
{
name = bottom;
position = "{346, 0}";
},
{
name = top;
position = "{316, 1600}";
}
);
layerId = "C388322D-F001-4130-A10A-708FB59AF746";
paths = (
{
closed = 1;
nodes = (
"605 0 LINE",
"449 643 LINE",
"528 671 OFFCURVE",
"566 740 OFFCURVE",
"570 860 CURVE SMOOTH",
"577 1014 OFFCURVE",
"577 1173 OFFCURVE",
"570 1363 CURVE SMOOTH",
"563 1532 OFFCURVE",
"495 1600 OFFCURVE",
"334 1600 CURVE SMOOTH",
"300 1600 LINE",
"300 1504 LINE",
"334 1504 LINE SMOOTH",
"424 1504 OFFCURVE",
"461 1463 OFFCURVE",
"465 1367 CURVE SMOOTH",
"471 1199 OFFCURVE",
"471 1024 OFFCURVE",
"465 856 CURVE SMOOTH",
"461 760 OFFCURVE",
"424 719 OFFCURVE",
"332 719 CURVE SMOOTH",
"285 719 LINE",
"285 623 LINE",
"349 623 LINE",
"494 0 LINE"
);
},
{
closed = 1;
nodes = (
"215 0 LINE",
"215 1600 LINE",
"110 1600 LINE",
"110 0 LINE"
);
}
);
width = 660;
}
);
leftKerningGroup = H;
leftMetricsKey = H;
rightKerningGroup = R;
unicode = 0052;
},
{
glyphname = S;
layers = (
{
anchors = (
{
name = bottom;
position = "{344, 0}";
},
{
name = top;
position = "{344, 1600}";
}
);
layerId = "3B122060-26E0-4730-9241-82784E6CB359";
paths = (
{
closed = 1;
nodes = (
"300 68 LINE",
"217 75 OFFCURVE",
"191 108 OFFCURVE",
"188 196 CURVE SMOOTH",
"182 326 OFFCURVE",
"184 436 OFFCURVE",
"188 566 CURVE",
"108 566 LINE",
"104 420 OFFCURVE",
"104 336 OFFCURVE",
"108 196 CURVE SMOOTH",
"112 63 OFFCURVE",
"167 3 OFFCURVE",
"300 -8 CURVE"
);
},
{
closed = 1;
nodes = (
"522 2 OFFCURVE",
"575 62 OFFCURVE",
"580 196 CURVE SMOOTH",
"584 298 OFFCURVE",
"584 426 OFFCURVE",
"580 532 CURVE SMOOTH",
"574 722 OFFCURVE",
"528 784 OFFCURVE",
"364 824 CURVE SMOOTH",
"290 842 LINE SMOOTH",
"214 862 OFFCURVE",
"192 908 OFFCURVE",
"190 1058 CURVE SMOOTH",
"188 1180 OFFCURVE",
"186 1282 OFFCURVE",
"190 1404 CURVE SMOOTH",
"193 1492 OFFCURVE",
"219 1525 OFFCURVE",
"300 1532 CURVE",
"300 1608 LINE",
"166 1598 OFFCURVE",
"112 1538 OFFCURVE",
"110 1406 CURVE SMOOTH",
"108 1284 OFFCURVE",
"106 1160 OFFCURVE",
"108 1058 CURVE SMOOTH",
"112 858 OFFCURVE",
"152 794 OFFCURVE",
"290 758 CURVE SMOOTH",
"362 740 LINE SMOOTH",
"468 712 OFFCURVE",
"498 668 OFFCURVE",
"500 532 CURVE SMOOTH",
"502 434 OFFCURVE",
"506 294 OFFCURVE",
"500 196 CURVE SMOOTH",
"495 109 OFFCURVE",
"471 76 OFFCURVE",
"392 68 CURVE",
"392 -8 LINE"
);
},
{
closed = 1;
nodes = (
"574 1070 LINE",
"576 1200 OFFCURVE",
"576 1306 OFFCURVE",
"574 1404 CURVE SMOOTH",
"570 1537 OFFCURVE",
"517 1597 OFFCURVE",
"392 1608 CURVE",
"392 1532 LINE",
"467 1523 OFFCURVE",
"491 1490 OFFCURVE",
"494 1404 CURVE SMOOTH",
"498 1306 OFFCURVE",
"498 1208 OFFCURVE",
"494 1070 CURVE"
);
}
);
width = 683;
},
{
anchors = (
{
name = bottom;
position = "{507, 0}";
},
{
name = top;
position = "{507, 1600}";
}
);
background = {
paths = (
{
closed = 1;
nodes = (
"533 618 OFFCURVE",
"569 602 OFFCURVE",
"569 538 CURVE SMOOTH",
"569 382 LINE SMOOTH",
"569 316 OFFCURVE",
"533 280 OFFCURVE",
"467 280 CURVE SMOOTH",
"403 280 OFFCURVE",
"363 316 OFFCURVE",
"363 382 CURVE SMOOTH",
"363 600 LINE",
"63 600 LINE",
"61 536 OFFCURVE",
"61 456 OFFCURVE",
"63 392 CURVE SMOOTH",
"71 134 OFFCURVE",
"209 -10 OFFCURVE",
"467 -10 CURVE SMOOTH",
"725 -10 OFFCURVE",
"869 134 OFFCURVE",
"869 392 CURVE SMOOTH",
"871 438 OFFCURVE",
"871 484 OFFCURVE",
"871 530 CURVE SMOOTH",
"863 788 OFFCURVE",
"725 868 OFFCURVE",
"475 930 CURVE SMOOTH",
"467 932 LINE SMOOTH",
"405 948 OFFCURVE",
"365 968 OFFCURVE",
"365 1034 CURVE SMOOTH",
"365 1220 LINE SMOOTH",
"365 1284 OFFCURVE",
"401 1320 OFFCURVE",
"467 1320 CURVE SMOOTH",
"531 1320 OFFCURVE",
"563 1284 OFFCURVE",
"563 1220 CURVE SMOOTH",
"561 1000 LINE",
"861 1000 LINE",
"863 1066 OFFCURVE",
"865 1144 OFFCURVE",
"863 1210 CURVE SMOOTH",
"855 1468 OFFCURVE",
"725 1610 OFFCURVE",
"467 1610 CURVE SMOOTH",
"209 1610 OFFCURVE",
"71 1468 OFFCURVE",
"65 1210 CURVE SMOOTH",
"65 1160 OFFCURVE",
"63 1092 OFFCURVE",
"63 1042 CURVE SMOOTH",
"71 784 OFFCURVE",
"223 722 OFFCURVE",
"467 640 CURVE SMOOTH",
"473 638 LINE SMOOTH"
);
}
);
};
layerId = "1DFA7D5B-2E97-4B89-827F-FB43F8066DC1";
paths = (
{
closed = 1;
nodes = (
"443 233 LINE",
"395 247 OFFCURVE",
"367 279 OFFCURVE",
"363 326 CURVE SMOOTH",
"355 404 OFFCURVE",
"357 502 OFFCURVE",
"363 600 CURVE",
"81 600 LINE",
"71 536 OFFCURVE",
"71 446 OFFCURVE",
"73 382 CURVE SMOOTH",
"84 116 OFFCURVE",
"191 -1 OFFCURVE",
"443 -18 CURVE"
);
},
{
closed = 1;
nodes = (
"830 -2 OFFCURVE",
"938 116 OFFCURVE",
"949 382 CURVE SMOOTH",
"951 428 OFFCURVE",
"953 482 OFFCURVE",
"951 528 CURVE SMOOTH",
"943 734 OFFCURVE",
"855 870 OFFCURVE",
"629 918 CURVE SMOOTH",
"467 952 LINE SMOOTH",
"399 966 OFFCURVE",
"371 1016 OFFCURVE",
"365 1070 CURVE SMOOTH",
"357 1138 OFFCURVE",
"357 1208 OFFCURVE",
"365 1276 CURVE SMOOTH",
"371 1321 OFFCURVE",
"398 1352 OFFCURVE",
"443 1367 CURVE",
"443 1618 LINE",
"185 1602 OFFCURVE",
"76 1484 OFFCURVE",
"65 1220 CURVE SMOOTH",
"63 1170 OFFCURVE",
"63 1128 OFFCURVE",
"65 1070 CURVE SMOOTH",
"71 870 OFFCURVE",
"139 740 OFFCURVE",
"349 692 CURVE SMOOTH",
"533 650 LINE SMOOTH",
"597 636 OFFCURVE",
"643 584 OFFCURVE",
"649 528 CURVE SMOOTH",
"657 460 OFFCURVE",
"657 394 OFFCURVE",
"649 326 CURVE SMOOTH",
"643 280 OFFCURVE",
"618 249 OFFCURVE",
"575 234 CURVE",
"575 -18 LINE"
);
},
{
closed = 1;
nodes = (
"939 1000 LINE",
"943 1070 OFFCURVE",
"945 1162 OFFCURVE",
"943 1220 CURVE SMOOTH",
"932 1484 OFFCURVE",
"825 1601 OFFCURVE",
"575 1618 CURVE",
"575 1368 LINE",
"624 1354 OFFCURVE",
"652 1322 OFFCURVE",
"653 1276 CURVE SMOOTH",
"657 1184 OFFCURVE",
"655 1092 OFFCURVE",
"651 1000 CURVE"
);
}
);
width = 1016;
},
{
anchors = (
{
name = bottom;
position = "{473, 0}";
},
{
name = top;
position = "{473, 1600}";
}
);
background = {
paths = (
{
closed = 1;
nodes = (
"499 618 OFFCURVE",
"535 602 OFFCURVE",
"535 538 CURVE SMOOTH",
"535 382 LINE SMOOTH",
"535 316 OFFCURVE",
"499 280 OFFCURVE",
"433 280 CURVE SMOOTH",
"369 280 OFFCURVE",
"329 316 OFFCURVE",
"329 382 CURVE SMOOTH",
"329 600 LINE",
"29 600 LINE",
"27 536 OFFCURVE",
"27 456 OFFCURVE",
"29 392 CURVE SMOOTH",
"37 134 OFFCURVE",
"175 -10 OFFCURVE",
"433 -10 CURVE SMOOTH",
"691 -10 OFFCURVE",
"835 134 OFFCURVE",
"835 392 CURVE SMOOTH",
"837 438 OFFCURVE",
"837 484 OFFCURVE",
"837 530 CURVE SMOOTH",
"829 788 OFFCURVE",
"691 868 OFFCURVE",
"441 930 CURVE SMOOTH",
"433 932 LINE SMOOTH",
"371 948 OFFCURVE",
"331 968 OFFCURVE",
"331 1034 CURVE SMOOTH",
"331 1220 LINE SMOOTH",
"331 1284 OFFCURVE",
"367 1320 OFFCURVE",
"433 1320 CURVE SMOOTH",
"497 1320 OFFCURVE",
"529 1284 OFFCURVE",
"529 1220 CURVE SMOOTH",
"527 1000 LINE",
"827 1000 LINE",
"829 1066 OFFCURVE",
"831 1144 OFFCURVE",
"829 1210 CURVE SMOOTH",
"821 1468 OFFCURVE",
"691 1610 OFFCURVE",
"433 1610 CURVE SMOOTH",
"175 1610 OFFCURVE",
"37 1468 OFFCURVE",
"31 1210 CURVE SMOOTH",
"31 1160 OFFCURVE",
"29 1092 OFFCURVE",
"29 1042 CURVE SMOOTH",
"37 784 OFFCURVE",
"189 722 OFFCURVE",
"433 640 CURVE SMOOTH",
"439 638 LINE SMOOTH"
);
}
);
};
layerId = "5013C991-8699-46CB-BB1C-82E334DBD38B";
paths = (
{
closed = 1;
nodes = (
"425 230 LINE",
"378 243 OFFCURVE",
"354 276 OFFCURVE",
"349 326 CURVE SMOOTH",
"341 404 OFFCURVE",
"343 502 OFFCURVE",
"349 600 CURVE",
"67 600 LINE",
"57 536 OFFCURVE",
"57 446 OFFCURVE",
"59 382 CURVE SMOOTH",
"70 111 OFFCURVE",
"168 -6 OFFCURVE",
"425 -19 CURVE"
);
},
{
closed = 1;
nodes = (
"784 -6 OFFCURVE",
"884 111 OFFCURVE",
"895 382 CURVE SMOOTH",
"897 428 OFFCURVE",
"899 482 OFFCURVE",
"897 528 CURVE SMOOTH",
"889 734 OFFCURVE",
"819 864 OFFCURVE",
"595 918 CURVE SMOOTH",
"453 952 LINE SMOOTH",
"385 968 OFFCURVE",
"357 1016 OFFCURVE",
"351 1070 CURVE SMOOTH",
"343 1138 OFFCURVE",
"343 1208 OFFCURVE",
"351 1276 CURVE SMOOTH",
"357 1325 OFFCURVE",
"379 1357 OFFCURVE",
"425 1370 CURVE",
"425 1619 LINE",
"161 1606 OFFCURVE",
"62 1490 OFFCURVE",
"51 1220 CURVE SMOOTH",
"49 1170 OFFCURVE",
"49 1128 OFFCURVE",
"51 1070 CURVE SMOOTH",
"57 870 OFFCURVE",
"127 746 OFFCURVE",
"335 692 CURVE SMOOTH",
"499 650 LINE SMOOTH",
"563 634 OFFCURVE",
"589 584 OFFCURVE",
"595 528 CURVE SMOOTH",
"603 460 OFFCURVE",
"603 394 OFFCURVE",
"595 326 CURVE SMOOTH",
"589 276 OFFCURVE",
"568 244 OFFCURVE",
"525 230 CURVE",
"525 -19 LINE"
);
},
{
closed = 1;
nodes = (
"885 1000 LINE",
"889 1070 OFFCURVE",
"891 1162 OFFCURVE",
"889 1220 CURVE SMOOTH",
"878 1489 OFFCURVE",
"773 1605 OFFCURVE",
"525 1619 CURVE",
"525 1369 LINE",
"570 1356 OFFCURVE",
"597 1324 OFFCURVE",
"599 1276 CURVE SMOOTH",
"603 1184 OFFCURVE",
"601 1092 OFFCURVE",
"597 1000 CURVE"
);
}
);
width = 948;
},
{
anchors = (
{
name = bottom;
position = "{257, 0}";
},
{
name = top;
position = "{257, 1600}";
}
);
layerId = "3D06B89B-468F-44E0-A3D7-A5BC6911123E";
paths = (
{
closed = 1;
nodes = (
"221 33 LINE",
"151 43 OFFCURVE",
"124 87 OFFCURVE",
"121 176 CURVE SMOOTH",
"117 306 OFFCURVE",
"117 436 OFFCURVE",
"121 566 CURVE",
"81 566 LINE",
"77 408 OFFCURVE",
"77 332 OFFCURVE",
"81 176 CURVE SMOOTH",
"85 59 OFFCURVE",
"126 3 OFFCURVE",
"221 -8 CURVE"
);
},
{
closed = 1;
nodes = (
"389 4 OFFCURVE",
"429 60 OFFCURVE",
"433 176 CURVE SMOOTH",
"437 318 OFFCURVE",
"437 366 OFFCURVE",
"433 532 CURVE SMOOTH",
"429 694 OFFCURVE",
"417 776 OFFCURVE",
"297 804 CURVE SMOOTH",
"223 822 LINE SMOOTH",
"135 844 OFFCURVE",
"125 902 OFFCURVE",
"123 1058 CURVE SMOOTH",
"121 1180 OFFCURVE",
"119 1302 OFFCURVE",
"123 1424 CURVE SMOOTH",
"126 1513 OFFCURVE",
"152 1556 OFFCURVE",
"219 1567 CURVE",
"219 1608 LINE",
"122 1597 OFFCURVE",
"83 1543 OFFCURVE",
"83 1426 CURVE SMOOTH",
"83 1304 OFFCURVE",
"79 1160 OFFCURVE",
"81 1058 CURVE SMOOTH",
"85 882 OFFCURVE",
"99 808 OFFCURVE",
"223 778 CURVE SMOOTH",
"295 760 LINE SMOOTH",
"379 738 OFFCURVE",
"391 656 OFFCURVE",
"393 532 CURVE SMOOTH",
"395 374 OFFCURVE",
"397 314 OFFCURVE",
"393 176 CURVE SMOOTH",
"390 89 OFFCURVE",
"365 45 OFFCURVE",
"301 33 CURVE",
"301 -7 LINE"
);
},
{
closed = 1;
nodes = (
"427 1070 LINE",
"429 1216 OFFCURVE",
"429 1342 OFFCURVE",
"427 1424 CURVE SMOOTH",
"423 1540 OFFCURVE",
"386 1595 OFFCURVE",
"299 1607 CURVE",
"299 1566 LINE",
"360 1554 OFFCURVE",
"384 1510 OFFCURVE",
"387 1424 CURVE SMOOTH",
"391 1306 OFFCURVE",
"391 1188 OFFCURVE",
"387 1070 CURVE"
);
}
);
width = 512;
},
{
anchors = (
{
name = bottom;
position = "{383, 0}";
},
{
name = top;
position = "{383, 1600}";
}
);
layerId = "EB6D3A46-95FC-4F29-8169-EF2A3FEDBD5C";
paths = (
{
closed = 1;
nodes = (
"334 109 LINE",
"259 118 OFFCURVE",
"233 151 OFFCURVE",
"230 229 CURVE SMOOTH",
"223 346 OFFCURVE",
"225 453 OFFCURVE",
"230 575 CURVE",
"99 575 LINE",
"94 449 OFFCURVE",
"94 364 OFFCURVE",
"97 243 CURVE SMOOTH",
"102 76 OFFCURVE",
"171 2 OFFCURVE",
"334 -11 CURVE"
);
},
{
closed = 1;
nodes = (
"596 1 OFFCURVE",
"663 76 OFFCURVE",
"670 243 CURVE SMOOTH",
"674 331 OFFCURVE",
"674 440 OFFCURVE",
"671 531 CURVE SMOOTH",
"664 725 OFFCURVE",
"608 806 OFFCURVE",
"428 848 CURVE SMOOTH",
"332 870 LINE SMOOTH",
"258 888 OFFCURVE",
"235 935 OFFCURVE",
"232 1061 CURVE SMOOTH",
"228 1170 OFFCURVE",
"227 1264 OFFCURVE",
"232 1372 CURVE SMOOTH",
"235 1449 OFFCURVE",
"262 1482 OFFCURVE",
"334 1491 CURVE",
"334 1611 LINE",
"168 1599 OFFCURVE",
"101 1525 OFFCURVE",
"97 1360 CURVE SMOOTH",
"95 1256 OFFCURVE",
"93 1152 OFFCURVE",
"95 1061 CURVE SMOOTH",
"100 861 OFFCURVE",
"147 781 OFFCURVE",
"303 742 CURVE SMOOTH",
"403 718 LINE SMOOTH",
"498 693 OFFCURVE",
"532 647 OFFCURVE",
"535 531 CURVE SMOOTH",
"539 441 OFFCURVE",
"542 319 OFFCURVE",
"535 229 CURVE SMOOTH",
"530 152 OFFCURVE",
"505 119 OFFCURVE",
"436 109 CURVE",
"436 -11 LINE"
);
},
{
closed = 1;
nodes = (
"663 1053 LINE",
"666 1168 OFFCURVE",
"666 1270 OFFCURVE",
"664 1358 CURVE SMOOTH",
"659 1524 OFFCURVE",
"592 1598 OFFCURVE",
"436 1611 CURVE",
"436 1491 LINE",
"504 1481 OFFCURVE",
"529 1448 OFFCURVE",
"532 1372 CURVE SMOOTH",
"536 1276 OFFCURVE",
"535 1179 OFFCURVE",
"531 1053 CURVE"
);
}
);
width = 767;
},
{
anchors = (
{
name = bottom;
position = "{320, 0}";
},
{
name = top;
position = "{320, 1600}";
}
);
layerId = "C388322D-F001-4130-A10A-708FB59AF746";
paths = (
{
closed = 1;
nodes = (
"281 82 LINE",
"217 93 OFFCURVE",
"190 134 OFFCURVE",
"187 214 CURVE SMOOTH",
"182 331 OFFCURVE",
"182 453 OFFCURVE",
"187 575 CURVE",
"86 575 LINE",
"81 440 OFFCURVE",
"81 361 OFFCURVE",
"84 228 CURVE SMOOTH",
"89 72 OFFCURVE",
"145 1 OFFCURVE",
"281 -11 CURVE"
);
},
{
closed = 1;
nodes = (
"496 2 OFFCURVE",
"552 73 OFFCURVE",
"557 228 CURVE SMOOTH",
"561 346 OFFCURVE",
"561 395 OFFCURVE",
"558 531 CURVE SMOOTH",
"553 704 OFFCURVE",
"526 798 OFFCURVE",
"380 833 CURVE SMOOTH",
"289 855 LINE SMOOTH",
"206 875 OFFCURVE",
"192 931 OFFCURVE",
"189 1061 CURVE SMOOTH",
"185 1170 OFFCURVE",
"184 1279 OFFCURVE",
"189 1387 CURVE SMOOTH",
"193 1466 OFFCURVE",
"217 1507 OFFCURVE",
"279 1518 CURVE",
"279 1611 LINE",
"140 1599 OFFCURVE",
"86 1530 OFFCURVE",
"84 1375 CURVE SMOOTH",
"83 1271 OFFCURVE",
"80 1152 OFFCURVE",
"82 1061 CURVE SMOOTH",
"87 879 OFFCURVE",
"115 793 OFFCURVE",
"260 757 CURVE SMOOTH",
"355 733 LINE SMOOTH",
"434 712 OFFCURVE",
"449 638 OFFCURVE",
"452 531 CURVE SMOOTH",
"456 396 OFFCURVE",
"457 334 OFFCURVE",
"452 214 CURVE SMOOTH",
"448 136 OFFCURVE",
"424 95 OFFCURVE",
"366 83 CURVE",
"366 -10 LINE"
);
},
{
closed = 1;
nodes = (
"550 1053 LINE",
"553 1180 OFFCURVE",
"553 1297 OFFCURVE",
"551 1373 CURVE SMOOTH",
"546 1527 OFFCURVE",
"491 1598 OFFCURVE",
"364 1610 CURVE",
"364 1517 LINE",
"421 1505 OFFCURVE",
"446 1464 OFFCURVE",
"449 1387 CURVE SMOOTH",
"453 1276 OFFCURVE",
"452 1164 OFFCURVE",
"448 1053 CURVE"
);
}
);
width = 639;
}
);
leftKerningGroup = S;
rightKerningGroup = S;
unicode = 0053;
},
{
glyphname = Germandbls;
layers = (
{
layerId = "3B122060-26E0-4730-9241-82784E6CB359";
paths = (
{
closed = 1;
nodes = (
"160 0 LINE",
"160 1420 LINE SMOOTH",
"160 1502 OFFCURVE",
"190 1526 OFFCURVE",
"296 1526 CURVE SMOOTH",
"538 1526 LINE",
"538 1602 LINE",
"296 1602 LINE SMOOTH",
"142 1602 OFFCURVE",
"80 1548 OFFCURVE",
"80 1420 CURVE SMOOTH",
"80 0 LINE"
);
},
{
closed = 1;
nodes = (
"316 0 LINE SMOOTH",
"478 0 OFFCURVE",
"544 78 OFFCURVE",
"548 226 CURVE SMOOTH",
"552 382 OFFCURVE",
"552 442 OFFCURVE",
"548 582 CURVE SMOOTH",
"544 740 OFFCURVE",
"482 826 OFFCURVE",
"358 820 CURVE",
"522 1452 LINE",
"436 1452 LINE",
"274 818 LINE",
"274 744 LINE",
"334 744 LINE SMOOTH",
"436 744 OFFCURVE",
"464 710 OFFCURVE",
"468 582 CURVE SMOOTH",
"472 448 OFFCURVE",
"472 362 OFFCURVE",
"468 226 CURVE SMOOTH",
"464 124 OFFCURVE",
"432 76 OFFCURVE",
"316 76 CURVE SMOOTH",
"252 76 LINE",
"252 0 LINE"
);
}
);
width = 630;
},
{
layerId = "1DFA7D5B-2E97-4B89-827F-FB43F8066DC1";
paths = (
{
closed = 1;
nodes = (
"380 0 LINE",
"380 1256 LINE SMOOTH",
"380 1320 OFFCURVE",
"426 1356 OFFCURVE",
"502 1356 CURVE SMOOTH",
"980 1356 LINE",
"980 1600 LINE",
"502 1600 LINE SMOOTH",
"208 1600 OFFCURVE",
"80 1486 OFFCURVE",
"80 1200 CURVE SMOOTH",
"80 0 LINE"
);
},
{
closed = 1;
nodes = (
"586 0 LINE SMOOTH",
"882 0 OFFCURVE",
"994 114 OFFCURVE",
"1006 402 CURVE SMOOTH",
"1008 448 OFFCURVE",
"1010 502 OFFCURVE",
"1008 548 CURVE SMOOTH",
"1000 734 OFFCURVE",
"944 858 OFFCURVE",
"770 920 CURVE",
"946 1264 LINE",
"640 1264 LINE",
"488 904 LINE",
"488 670 LINE",
"610 670 LINE SMOOTH",
"676 670 OFFCURVE",
"700 604 OFFCURVE",
"706 548 CURVE SMOOTH",
"714 480 OFFCURVE",
"714 414 OFFCURVE",
"706 346 CURVE SMOOTH",
"698 280 OFFCURVE",
"664 244 OFFCURVE",
"586 244 CURVE SMOOTH",
"514 244 LINE",
"514 0 LINE"
);
}
);
width = 1088;
},
{
layerId = "5013C991-8699-46CB-BB1C-82E334DBD38B";
paths = (
{
closed = 1;
nodes = (
"380 0 LINE",
"380 1256 LINE SMOOTH",
"380 1320 OFFCURVE",
"426 1356 OFFCURVE",
"502 1356 CURVE SMOOTH",
"960 1356 LINE",
"960 1600 LINE",
"502 1600 LINE SMOOTH",
"208 1600 OFFCURVE",
"80 1486 OFFCURVE",
"80 1200 CURVE SMOOTH",
"80 0 LINE"
);
},
{
closed = 1;
nodes = (
"566 0 LINE SMOOTH",
"862 0 OFFCURVE",
"974 114 OFFCURVE",
"986 402 CURVE SMOOTH",
"988 448 OFFCURVE",
"990 502 OFFCURVE",
"988 548 CURVE SMOOTH",
"980 734 OFFCURVE",
"924 858 OFFCURVE",
"750 920 CURVE",
"936 1270 LINE",
"654 1270 LINE",
"476 904 LINE",
"480 670 LINE",
"590 670 LINE SMOOTH",
"656 670 OFFCURVE",
"680 604 OFFCURVE",
"686 548 CURVE SMOOTH",
"694 480 OFFCURVE",
"694 414 OFFCURVE",
"686 346 CURVE SMOOTH",
"678 280 OFFCURVE",
"644 244 OFFCURVE",
"566 244 CURVE SMOOTH",
"478 244 LINE",
"478 0 LINE"
);
}
);
width = 1068;
},
{
background = {
paths = (
{
closed = 0;
nodes = (
"310 820 LINE"
);
}
);
};
layerId = "3D06B89B-468F-44E0-A3D7-A5BC6911123E";
paths = (
{
closed = 1;
nodes = (
"160 0 LINE",
"160 1418 LINE SMOOTH",
"160 1526 OFFCURVE",
"196 1560 OFFCURVE",
"296 1560 CURVE SMOOTH",
"478 1560 LINE",
"478 1600 LINE",
"296 1600 LINE SMOOTH",
"170 1600 OFFCURVE",
"120 1548 OFFCURVE",
"120 1418 CURVE SMOOTH",
"120 0 LINE"
);
},
{
closed = 1;
nodes = (
"296 0 LINE SMOOTH",
"428 0 OFFCURVE",
"484 58 OFFCURVE",
"488 206 CURVE SMOOTH",
"492 362 OFFCURVE",
"492 442 OFFCURVE",
"488 582 CURVE SMOOTH",
"484 754 OFFCURVE",
"436 820 OFFCURVE",
"312 820 CURVE",
"466 1500 LINE",
"424 1500 LINE",
"266 818 LINE",
"266 780 LINE",
"314 780 LINE SMOOTH",
"406 780 OFFCURVE",
"444 724 OFFCURVE",
"448 582 CURVE SMOOTH",
"452 448 OFFCURVE",
"452 342 OFFCURVE",
"448 206 CURVE SMOOTH",
"444 88 OFFCURVE",
"400 40 OFFCURVE",
"296 40 CURVE SMOOTH",
"240 40 LINE",
"240 0 LINE"
);
}
);
width = 618;
},
{
layerId = "EB6D3A46-95FC-4F29-8169-EF2A3FEDBD5C";
paths = (
{
closed = 1;
nodes = (
"215 0 LINE",
"215 1379 LINE SMOOTH",
"215 1457 OFFCURVE",
"249 1484 OFFCURVE",
"348 1484 CURVE SMOOTH",
"649 1484 LINE",
"649 1602 LINE",
"348 1602 LINE SMOOTH",
"159 1602 OFFCURVE",
"80 1533 OFFCURVE",
"80 1365 CURVE SMOOTH",
"80 0 LINE"
);
},
{
closed = 1;
nodes = (
"384 0 LINE SMOOTH",
"579 0 OFFCURVE",
"657 87 OFFCURVE",
"663 270 CURVE SMOOTH",
"666 399 OFFCURVE",
"667 457 OFFCURVE",
"663 574 CURVE SMOOTH",
"658 739 OFFCURVE",
"598 834 OFFCURVE",
"461 845 CURVE",
"628 1405 LINE",
"487 1405 LINE",
"328 840 LINE",
"328 726 LINE",
"403 726 LINE SMOOTH",
"496 726 OFFCURVE",
"523 684 OFFCURVE",
"528 574 CURVE SMOOTH",
"533 456 OFFCURVE",
"533 375 OFFCURVE",
"528 256 CURVE SMOOTH",
"523 163 OFFCURVE",
"490 118 OFFCURVE",
"384 118 CURVE SMOOTH",
"318 118 LINE",
"318 0 LINE"
);
}
);
width = 745;
},
{
layerId = "C388322D-F001-4130-A10A-708FB59AF746";
paths = (
{
closed = 1;
nodes = (
"215 0 LINE",
"215 1378 LINE SMOOTH",
"215 1475 OFFCURVE",
"254 1509 OFFCURVE",
"348 1509 CURVE SMOOTH",
"599 1509 LINE",
"599 1600 LINE",
"348 1600 LINE SMOOTH",
"180 1600 OFFCURVE",
"110 1533 OFFCURVE",
"110 1364 CURVE SMOOTH",
"110 0 LINE"
);
},
{
closed = 1;
nodes = (
"364 0 LINE SMOOTH",
"537 0 OFFCURVE",
"607 72 OFFCURVE",
"613 255 CURVE SMOOTH",
"616 384 OFFCURVE",
"617 457 OFFCURVE",
"613 574 CURVE SMOOTH",
"608 749 OFFCURVE",
"558 830 OFFCURVE",
"422 845 CURVE",
"584 1443 LINE",
"482 1443 LINE",
"319 840 LINE",
"320 753 LINE",
"383 753 LINE SMOOTH",
"469 753 OFFCURVE",
"503 694 OFFCURVE",
"508 574 CURVE SMOOTH",
"513 456 OFFCURVE",
"513 360 OFFCURVE",
"508 241 CURVE SMOOTH",
"503 136 OFFCURVE",
"461 91 OFFCURVE",
"364 91 CURVE SMOOTH",
"300 91 LINE",
"300 0 LINE"
);
}
);
width = 731;
}
);
leftKerningGroup = H;
rightKerningGroup = B;
unicode = 1E9E;
},
{
glyphname = Schwa;
layers = (
{
layerId = "3B122060-26E0-4730-9241-82784E6CB359";
paths = (
{
closed = 1;
nodes = (
"114 64 OFFCURVE",
"166 4 OFFCURVE",
"292 -8 CURVE",
"292 68 LINE",
"216 76 OFFCURVE",
"194 110 OFFCURVE",
"192 194 CURVE SMOOTH",
"186 424 OFFCURVE",
"190 548 OFFCURVE",
"192 740 CURVE",
"392 740 LINE",
"392 816 LINE",
"112 816 LINE",
"110 614 OFFCURVE",
"108 416 OFFCURVE",
"112 194 CURVE"
);
},
{
closed = 1;
nodes = (
"504 2 OFFCURVE",
"554 62 OFFCURVE",
"556 194 CURVE SMOOTH",
"562 638 OFFCURVE",
"562 956 OFFCURVE",
"556 1402 CURVE SMOOTH",
"554 1534 OFFCURVE",
"504 1594 OFFCURVE",
"382 1604 CURVE",
"382 1526 LINE",
"452 1518 OFFCURVE",
"474 1486 OFFCURVE",
"476 1402 CURVE SMOOTH",
"486 910 OFFCURVE",
"486 684 OFFCURVE",
"476 194 CURVE SMOOTH",
"474 110 OFFCURVE",
"452 76 OFFCURVE",
"382 68 CURVE",
"382 -8 LINE"
);
},
{
closed = 1;
nodes = (
"194 1032 LINE",
"192 1162 OFFCURVE",
"190 1272 OFFCURVE",
"192 1402 CURVE SMOOTH",
"194 1488 OFFCURVE",
"219 1519 OFFCURVE",
"300 1526 CURVE",
"300 1604 LINE",
"171 1593 OFFCURVE",
"116 1533 OFFCURVE",
"112 1402 CURVE SMOOTH",
"108 1262 OFFCURVE",
"110 1172 OFFCURVE",
"114 1032 CURVE"
);
}
);
width = 670;
},
{
layerId = "1DFA7D5B-2E97-4B89-827F-FB43F8066DC1";
paths = (
{
closed = 1;
nodes = (
"85 116 OFFCURVE",
"191 -2 OFFCURVE",
"451 -18 CURVE",
"451 234 LINE",
"407 248 OFFCURVE",
"383 278 OFFCURVE",
"381 324 CURVE SMOOTH",
"377 438 OFFCURVE",
"375 554 OFFCURVE",
"375 682 CURVE",
"533 682 LINE",
"533 888 LINE",
"81 888 LINE",
"79 682 OFFCURVE",
"79 546 OFFCURVE",
"81 380 CURVE"
);
},
{
closed = 1;
nodes = (
"847 -2 OFFCURVE",
"955 114 OFFCURVE",
"959 378 CURVE SMOOTH",
"965 680 OFFCURVE",
"965 920 OFFCURVE",
"959 1218 CURVE SMOOTH",
"953 1484 OFFCURVE",
"845 1602 OFFCURVE",
"583 1618 CURVE",
"583 1368 LINE",
"631 1354 OFFCURVE",
"657 1322 OFFCURVE",
"659 1274 CURVE SMOOTH",
"669 970 OFFCURVE",
"669 630 OFFCURVE",
"659 324 CURVE SMOOTH",
"657 278 OFFCURVE",
"631 246 OFFCURVE",
"583 232 CURVE",
"583 -18 LINE"
);
},
{
closed = 1;
nodes = (
"381 1000 LINE",
"379 1072 OFFCURVE",
"379 1202 OFFCURVE",
"381 1274 CURVE SMOOTH",
"382 1322 OFFCURVE",
"410 1354 OFFCURVE",
"459 1368 CURVE",
"459 1618 LINE",
"197 1602 OFFCURVE",
"88 1485 OFFCURVE",
"81 1218 CURVE SMOOTH",
"79 1140 OFFCURVE",
"79 1078 OFFCURVE",
"81 1000 CURVE"
);
}
);
width = 1043;
},
{
layerId = "5013C991-8699-46CB-BB1C-82E334DBD38B";
paths = (
{
closed = 1;
nodes = (
"75 112 OFFCURVE",
"185 -6 OFFCURVE",
"437 -18 CURVE",
"437 232 LINE",
"395 244 OFFCURVE",
"373 276 OFFCURVE",
"371 324 CURVE SMOOTH",
"367 438 OFFCURVE",
"365 554 OFFCURVE",
"365 682 CURVE",
"515 682 LINE",
"515 888 LINE",
"71 888 LINE",
"69 682 OFFCURVE",
"69 546 OFFCURVE",
"71 380 CURVE"
);
},
{
closed = 1;
nodes = (
"795 -2 OFFCURVE",
"905 148 OFFCURVE",
"909 378 CURVE SMOOTH",
"913 604 OFFCURVE",
"913 996 OFFCURVE",
"909 1218 CURVE SMOOTH",
"903 1490 OFFCURVE",
"801 1606 OFFCURVE",
"537 1618 CURVE",
"537 1370 LINE",
"583 1356 OFFCURVE",
"607 1324 OFFCURVE",
"609 1274 CURVE SMOOTH",
"619 996 OFFCURVE",
"619 604 OFFCURVE",
"609 324 CURVE SMOOTH",
"607 276 OFFCURVE",
"583 244 OFFCURVE",
"537 230 CURVE",
"537 -18 LINE"
);
},
{
closed = 1;
nodes = (
"371 1000 LINE",
"369 1072 OFFCURVE",
"369 1202 OFFCURVE",
"371 1274 CURVE SMOOTH",
"373 1324 OFFCURVE",
"398 1357 OFFCURVE",
"445 1370 CURVE",
"445 1619 LINE",
"187 1606 OFFCURVE",
"79 1489 OFFCURVE",
"71 1218 CURVE SMOOTH",
"69 1154 OFFCURVE",
"69 1064 OFFCURVE",
"71 1000 CURVE"
);
}
);
width = 982;
},
{
layerId = "3D06B89B-468F-44E0-A3D7-A5BC6911123E";
paths = (
{
closed = 1;
nodes = (
"108 56 OFFCURVE",
"150 2 OFFCURVE",
"252 -10 CURVE",
"252 30 LINE",
"178 42 OFFCURVE",
"148 86 OFFCURVE",
"146 174 CURVE SMOOTH",
"144 398 OFFCURVE",
"144 574 OFFCURVE",
"146 776 CURVE",
"356 776 LINE",
"356 816 LINE",
"106 816 LINE",
"104 598 OFFCURVE",
"104 414 OFFCURVE",
"106 174 CURVE"
);
},
{
closed = 1;
nodes = (
"428 0 OFFCURVE",
"468 56 OFFCURVE",
"470 174 CURVE SMOOTH",
"478 618 OFFCURVE",
"478 976 OFFCURVE",
"470 1422 CURVE SMOOTH",
"468 1540 OFFCURVE",
"428 1594 OFFCURVE",
"332 1606 CURVE",
"332 1566 LINE",
"400 1554 OFFCURVE",
"428 1510 OFFCURVE",
"430 1422 CURVE SMOOTH",
"438 976 OFFCURVE",
"438 618 OFFCURVE",
"430 174 CURVE SMOOTH",
"428 86 OFFCURVE",
"400 42 OFFCURVE",
"332 30 CURVE",
"332 -10 LINE"
);
},
{
closed = 1;
nodes = (
"148 1032 LINE",
"146 1218 OFFCURVE",
"144 1330 OFFCURVE",
"146 1422 CURVE SMOOTH",
"148 1512 OFFCURVE",
"181 1556 OFFCURVE",
"260 1566 CURVE",
"260 1606 LINE",
"155 1596 OFFCURVE",
"110 1540 OFFCURVE",
"106 1422 CURVE SMOOTH",
"102 1308 OFFCURVE",
"104 1196 OFFCURVE",
"108 1032 CURVE"
);
}
);
width = 580;
},
{
layerId = "EB6D3A46-95FC-4F29-8169-EF2A3FEDBD5C";
paths = (
{
closed = 1;
nodes = (
"114 77 OFFCURVE",
"180 3 OFFCURVE",
"339 -11 CURVE",
"339 110 LINE",
"271 119 OFFCURVE",
"249 152 OFFCURVE",
"247 227 CURVE SMOOTH",
"241 428 OFFCURVE",
"244 550 OFFCURVE",
"245 726 CURVE",
"435 726 LINE",
"435 834 LINE",
"112 834 LINE",
"110 631 OFFCURVE",
"108 449 OFFCURVE",
"112 241 CURVE"
);
},
{
closed = 1;
nodes = (
"597 1 OFFCURVE",
"662 75 OFFCURVE",
"664 240 CURVE SMOOTH",
"670 649 OFFCURVE",
"670 947 OFFCURVE",
"664 1356 CURVE SMOOTH",
"661 1522 OFFCURVE",
"597 1596 OFFCURVE",
"440 1608 CURVE",
"440 1487 LINE",
"504 1477 OFFCURVE",
"527 1445 OFFCURVE",
"529 1370 CURVE SMOOTH",
"539 925 OFFCURVE",
"539 671 OFFCURVE",
"529 227 CURVE SMOOTH",
"527 152 OFFCURVE",
"504 119 OFFCURVE",
"440 109 CURVE",
"440 -11 LINE"
);
},
{
closed = 1;
nodes = (
"248 1024 LINE",
"246 1140 OFFCURVE",
"245 1255 OFFCURVE",
"247 1370 CURVE SMOOTH",
"248 1446 OFFCURVE",
"274 1478 OFFCURVE",
"347 1487 CURVE",
"347 1608 LINE",
"185 1596 OFFCURVE",
"116 1521 OFFCURVE",
"112 1356 CURVE SMOOTH",
"108 1232 OFFCURVE",
"110 1149 OFFCURVE",
"113 1024 CURVE"
);
}
);
width = 778;
},
{
layerId = "C388322D-F001-4130-A10A-708FB59AF746";
paths = (
{
closed = 1;
nodes = (
"99 70 OFFCURVE",
"158 0 OFFCURVE",
"298 -12 CURVE",
"298 81 LINE",
"232 93 OFFCURVE",
"204 134 OFFCURVE",
"202 212 CURVE SMOOTH",
"199 408 OFFCURVE",
"199 569 OFFCURVE",
"200 753 CURVE",
"395 753 LINE",
"395 834 LINE",
"97 834 LINE",
"95 619 OFFCURVE",
"95 447 OFFCURVE",
"97 226 CURVE"
);
},
{
closed = 1;
nodes = (
"519 -1 OFFCURVE",
"577 79 OFFCURVE",
"579 225 CURVE SMOOTH",
"586 615 OFFCURVE",
"586 981 OFFCURVE",
"579 1371 CURVE SMOOTH",
"576 1528 OFFCURVE",
"521 1597 OFFCURVE",
"383 1609 CURVE",
"383 1517 LINE",
"445 1505 OFFCURVE",
"472 1464 OFFCURVE",
"474 1385 CURVE SMOOTH",
"483 981 OFFCURVE",
"483 615 OFFCURVE",
"474 212 CURVE SMOOTH",
"472 134 OFFCURVE",
"445 93 OFFCURVE",
"383 80 CURVE",
"383 -12 LINE"
);
},
{
closed = 1;
nodes = (
"203 1024 LINE",
"201 1182 OFFCURVE",
"200 1298 OFFCURVE",
"202 1385 CURVE SMOOTH",
"203 1465 OFFCURVE",
"235 1506 OFFCURVE",
"306 1517 CURVE",
"306 1609 LINE",
"162 1598 OFFCURVE",
"101 1527 OFFCURVE",
"97 1371 CURVE SMOOTH",
"93 1270 OFFCURVE",
"95 1163 OFFCURVE",
"98 1024 CURVE"
);
}
);
width = 679;
}
);
leftKerningGroup = O;
leftMetricsKey = O;
rightKerningGroup = O;
rightMetricsKey = O;
unicode = 018F;
},
{
glyphname = T;
layers = (
{
anchors = (
{
name = bottom;
position = "{284, 0}";
},
{
name = center;
position = "{284, 800}";
},
{
name = top;
position = "{284, 1600}";
}
);
layerId = "3B122060-26E0-4730-9241-82784E6CB359";
paths = (
{
closed = 1;
nodes = (
"324 0 LINE",
"324 1462 LINE",
"244 1462 LINE",
"244 0 LINE"
);
},
{
closed = 1;
nodes = (
"548 1524 LINE",
"548 1600 LINE",
"20 1600 LINE",
"20 1524 LINE"
);
}
);
width = 568;
},
{
anchors = (
{
name = bottom;
position = "{438, 0}";
},
{
name = center;
position = "{438, 800}";
},
{
name = top;
position = "{438, 1600}";
}
);
layerId = "1DFA7D5B-2E97-4B89-827F-FB43F8066DC1";
paths = (
{
closed = 1;
nodes = (
"588 0 LINE",
"588 1244 LINE",
"288 1244 LINE",
"288 0 LINE"
);
},
{
closed = 1;
nodes = (
"864 1336 LINE",
"864 1600 LINE",
"10 1600 LINE",
"10 1336 LINE"
);
}
);
width = 874;
},
{
anchors = (
{
name = bottom;
position = "{420, 0}";
},
{
name = center;
position = "{420, 800}";
},
{
name = top;
position = "{420, 1600}";
}
);
layerId = "5013C991-8699-46CB-BB1C-82E334DBD38B";
paths = (
{
closed = 1;
nodes = (
"570 0 LINE",
"570 1236 LINE",
"270 1236 LINE",
"270 0 LINE"
);
},
{
closed = 1;
nodes = (
"826 1336 LINE",
"826 1600 LINE",
"12 1600 LINE",
"12 1336 LINE"
);
}
);
width = 838;
},
{
anchors = (
{
name = bottom;
position = "{214, 0}";
},
{
name = center;
position = "{214, 800}";
},
{
name = top;
position = "{214, 1600}";
}
);
layerId = "3D06B89B-468F-44E0-A3D7-A5BC6911123E";
paths = (
{
closed = 1;
nodes = (
"234 0 LINE",
"234 1520 LINE",
"194 1520 LINE",
"194 0 LINE"
);
},
{
closed = 1;
nodes = (
"408 1560 LINE",
"408 1600 LINE",
"20 1600 LINE",
"20 1560 LINE"
);
}
);
width = 428;
},
{
anchors = (
{
name = bottom;
position = "{320, 0}";
},
{
name = center;
position = "{320, 800}";
},
{
name = top;
position = "{320, 1600}";
}
);
layerId = "EB6D3A46-95FC-4F29-8169-EF2A3FEDBD5C";
paths = (
{
closed = 1;
nodes = (
"388 0 LINE",
"388 1408 LINE",
"253 1408 LINE",
"253 0 LINE"
);
},
{
closed = 1;
nodes = (
"625 1477 LINE",
"625 1600 LINE",
"15 1600 LINE",
"15 1477 LINE"
);
}
);
width = 640;
},
{
anchors = (
{
name = bottom;
position = "{258, 0}";
},
{
name = center;
position = "{258, 800}";
},
{
name = top;
position = "{258, 1600}";
}
);
layerId = "C388322D-F001-4130-A10A-708FB59AF746";
paths = (
{
closed = 1;
nodes = (
"310 0 LINE",
"310 1449 LINE",
"205 1449 LINE",
"205 0 LINE"
);
},
{
closed = 1;
nodes = (
"505 1504 LINE",
"505 1600 LINE",
"10 1600 LINE",
"10 1504 LINE"
);
}
);
width = 515;
}
);
leftKerningGroup = T;
rightKerningGroup = T;
unicode = 0054;
},
{
color = 1;
glyphname = Tbar;
layers = (
{
components = (
{
name = T;
}
);
layerId = "3B122060-26E0-4730-9241-82784E6CB359";
paths = (
{
closed = 1;
nodes = (
"424 678 LINE",
"424 746 LINE",
"144 746 LINE",
"144 678 LINE"
);
}
);
width = 568;
},
{
components = (
{
name = T;
}
);
layerId = "1DFA7D5B-2E97-4B89-827F-FB43F8066DC1";
paths = (
{
closed = 1;
nodes = (
"759 528 LINE",
"759 754 LINE",
"115 754 LINE",
"115 528 LINE"
);
}
);
width = 874;
},
{
components = (
{
name = T;
}
);
layerId = "5013C991-8699-46CB-BB1C-82E334DBD38B";
paths = (
{
closed = 1;
nodes = (
"728 528 LINE",
"728 754 LINE",
"110 754 LINE",
"110 528 LINE"
);
}
);
width = 838;
},
{
components = (
{
name = T;
}
);
layerId = "3D06B89B-468F-44E0-A3D7-A5BC6911123E";
paths = (
{
closed = 1;
nodes = (
"344 688 LINE",
"344 728 LINE",
"84 728 LINE",
"84 688 LINE"
);
}
);
width = 428;
},
{
components = (
{
alignment = -1;
name = T;
}
);
layerId = "EB6D3A46-95FC-4F29-8169-EF2A3FEDBD5C";
paths = (
{
closed = 1;
nodes = (
"506 641 LINE",
"506 748 LINE",
"135 748 LINE",
"135 641 LINE"
);
}
);
width = 640;
},
{
components = (
{
alignment = -1;
name = T;
}
);
layerId = "C388322D-F001-4130-A10A-708FB59AF746";
paths = (
{
closed = 1;
nodes = (
"432 648 LINE",
"432 735 LINE",
"83 735 LINE",
"83 648 LINE"
);
}
);
width = 515;
}
);
leftKerningGroup = T;
leftMetricsKey = T;
rightKerningGroup = T;
rightMetricsKey = T;
unicode = 0166;
},
{
glyphname = U;
layers = (
{
anchors = (
{
name = bottom;
position = "{358, 0}";
},
{
name = ogonek;
position = "{292, 0}";
},
{
name = top;
position = "{358, 1600}";
},
{
name = topright;
position = "{620, 1860}";
}
);
layerId = "3B122060-26E0-4730-9241-82784E6CB359";
paths = (
{
closed = 1;
nodes = (
"128 62 OFFCURVE",
"182 2 OFFCURVE",
"312 -8 CURVE",
"312 72 LINE",
"229 79 OFFCURVE",
"204 109 OFFCURVE",
"204 190 CURVE SMOOTH",
"204 668 OFFCURVE",
"202 1122 OFFCURVE",
"206 1600 CURVE",
"126 1600 LINE",
"122 1122 OFFCURVE",
"120 668 OFFCURVE",
"126 190 CURVE"
);
},
{
closed = 1;
nodes = (
"534 2 OFFCURVE",
"588 62 OFFCURVE",
"590 190 CURVE SMOOTH",
"596 668 OFFCURVE",
"594 1122 OFFCURVE",
"590 1600 CURVE",
"510 1600 LINE",
"514 1122 OFFCURVE",
"510 668 OFFCURVE",
"510 190 CURVE SMOOTH",
"510 109 OFFCURVE",
"486 79 OFFCURVE",
"404 72 CURVE",
"404 -8 LINE"
);
}
);
width = 716;
},
{
anchors = (
{
name = bottom;
position = "{528, 0}";
},
{
name = ogonek;
position = "{413, 0}";
},
{
name = top;
position = "{528, 1600}";
},
{
name = topright;
position = "{864, 1960}";
}
);
layerId = "1DFA7D5B-2E97-4B89-827F-FB43F8066DC1";
paths = (
{
closed = 1;
nodes = (
"90 115 OFFCURVE",
"198 -2 OFFCURVE",
"462 -18 CURVE",
"462 234 LINE",
"412 251 OFFCURVE",
"386 289 OFFCURVE",
"386 346 CURVE SMOOTH",
"382 748 OFFCURVE",
"378 1198 OFFCURVE",
"386 1600 CURVE",
"86 1600 LINE",
"80 1198 OFFCURVE",
"80 784 OFFCURVE",
"86 382 CURVE"
);
},
{
closed = 1;
nodes = (
"856 -2 OFFCURVE",
"964 115 OFFCURVE",
"968 382 CURVE SMOOTH",
"974 784 OFFCURVE",
"974 1198 OFFCURVE",
"968 1600 CURVE",
"668 1600 LINE",
"676 1198 OFFCURVE",
"672 748 OFFCURVE",
"668 346 CURVE SMOOTH",
"668 290 OFFCURVE",
"642 251 OFFCURVE",
"594 234 CURVE",
"594 -18 LINE"
);
}
);
width = 1054;
},
{
anchors = (
{
name = bottom;
position = "{488, 0}";
},
{
name = ogonek;
position = "{355, 0}";
},
{
name = top;
position = "{488, 1600}";
},
{
name = topright;
position = "{790, 1960}";
}
);
layerId = "5013C991-8699-46CB-BB1C-82E334DBD38B";
paths = (
{
closed = 1;
nodes = (
"70 111 OFFCURVE",
"175 -6 OFFCURVE",
"438 -19 CURVE",
"438 230 LINE",
"391 243 OFFCURVE",
"366 276 OFFCURVE",
"366 326 CURVE SMOOTH",
"362 728 OFFCURVE",
"358 1198 OFFCURVE",
"366 1600 CURVE",
"66 1600 LINE",
"60 1198 OFFCURVE",
"60 784 OFFCURVE",
"66 382 CURVE"
);
},
{
closed = 1;
nodes = (
"799 -6 OFFCURVE",
"904 111 OFFCURVE",
"908 382 CURVE SMOOTH",
"914 784 OFFCURVE",
"914 1198 OFFCURVE",
"908 1600 CURVE",
"608 1600 LINE",
"616 1198 OFFCURVE",
"612 728 OFFCURVE",
"608 326 CURVE SMOOTH",
"608 276 OFFCURVE",
"584 243 OFFCURVE",
"538 230 CURVE",
"538 -19 LINE"
);
}
);
width = 974;
},
{
anchors = (
{
name = bottom;
position = "{277, 0}";
},
{
name = ogonek;
position = "{193, -10}";
},
{
name = top;
position = "{277, 1600}";
},
{
name = topright;
position = "{487, 1842}";
}
);
layerId = "3D06B89B-468F-44E0-A3D7-A5BC6911123E";
paths = (
{
closed = 1;
nodes = (
"107 57 OFFCURVE",
"146 3 OFFCURVE",
"237 -8 CURVE",
"237 33 LINE",
"172 44 OFFCURVE",
"143 86 OFFCURVE",
"143 170 CURVE SMOOTH",
"139 648 OFFCURVE",
"141 1122 OFFCURVE",
"145 1600 CURVE",
"105 1600 LINE",
"101 1122 OFFCURVE",
"101 648 OFFCURVE",
"105 170 CURVE"
);
},
{
closed = 1;
nodes = (
"408 3 OFFCURVE",
"447 57 OFFCURVE",
"449 170 CURVE SMOOTH",
"453 648 OFFCURVE",
"453 1122 OFFCURVE",
"449 1600 CURVE",
"409 1600 LINE",
"413 1122 OFFCURVE",
"413 648 OFFCURVE",
"409 170 CURVE SMOOTH",
"409 86 OFFCURVE",
"382 44 OFFCURVE",
"317 33 CURVE",
"317 -8 LINE"
);
}
);
width = 554;
},
{
anchors = (
{
name = bottom;
position = "{395, 0}";
},
{
name = ogonek;
position = "{317, 0}";
},
{
name = top;
position = "{395, 1600}";
},
{
name = topright;
position = "{658, 1860}";
}
);
layerId = "EB6D3A46-95FC-4F29-8169-EF2A3FEDBD5C";
paths = (
{
closed = 1;
nodes = (
"113 75 OFFCURVE",
"180 1 OFFCURVE",
"344 -11 CURVE",
"344 112 LINE",
"269 122 OFFCURVE",
"244 154 OFFCURVE",
"244 229 CURVE SMOOTH",
"243 688 OFFCURVE",
"241 1141 OFFCURVE",
"246 1600 CURVE",
"111 1600 LINE",
"106 1141 OFFCURVE",
"105 697 OFFCURVE",
"111 238 CURVE"
);
},
{
closed = 1;
nodes = (
"609 1 OFFCURVE",
"677 75 OFFCURVE",
"679 238 CURVE SMOOTH",
"685 697 OFFCURVE",
"684 1141 OFFCURVE",
"679 1600 CURVE",
"544 1600 LINE",
"549 1141 OFFCURVE",
"545 688 OFFCURVE",
"544 229 CURVE SMOOTH",
"544 154 OFFCURVE",
"520 122 OFFCURVE",
"446 112 CURVE",
"446 -11 LINE"
);
}
);
width = 790;
},
{
anchors = (
{
name = bottom;
position = "{330, 0}";
},
{
name = ogonek;
position = "{234, -8}";
},
{
name = top;
position = "{330, 1600}";
},
{
name = topright;
position = "{563, 1860}";
}
);
layerId = "C388322D-F001-4130-A10A-708FB59AF746";
paths = (
{
closed = 1;
nodes = (
"98 71 OFFCURVE",
"153 1 OFFCURVE",
"288 -11 CURVE",
"288 82 LINE",
"227 94 OFFCURVE",
"199 133 OFFCURVE",
"199 209 CURVE SMOOTH",
"195 668 OFFCURVE",
"196 1141 OFFCURVE",
"201 1600 CURVE",
"96 1600 LINE",
"91 1141 OFFCURVE",
"91 682 OFFCURVE",
"96 223 CURVE"
);
},
{
closed = 1;
nodes = (
"506 1 OFFCURVE",
"562 71 OFFCURVE",
"564 223 CURVE SMOOTH",
"569 682 OFFCURVE",
"569 1141 OFFCURVE",
"564 1600 CURVE",
"459 1600 LINE",
"464 1141 OFFCURVE",
"463 668 OFFCURVE",
"459 209 CURVE SMOOTH",
"459 133 OFFCURVE",
"433 94 OFFCURVE",
"373 82 CURVE",
"373 -11 LINE"
);
}
);
width = 660;
}
);
leftKerningGroup = U;
leftMetricsKey = "=H-18";
rightKerningGroup = U;
rightMetricsKey = "=H-18";
unicode = 0055;
},
{
glyphname = V;
layers = (
{
layerId = "3B122060-26E0-4730-9241-82784E6CB359";
paths = (
{
closed = 1;
nodes = (
"216 138 LINE",
"296 138 LINE",
"248 660 LINE",
"164 1600 LINE",
"80 1600 LINE"
);
},
{
closed = 1;
nodes = (
"228 0 LINE",
"440 0 LINE",
"588 1600 LINE",
"504 1600 LINE",
"420 660 LINE",
"368 76 LINE",
"221 76 LINE"
);
}
);
width = 668;
},
{
layerId = "1DFA7D5B-2E97-4B89-827F-FB43F8066DC1";
paths = (
{
closed = 1;
nodes = (
"218 356 LINE",
"472 356 LINE",
"458 798 LINE",
"340 1600 LINE",
"30 1600 LINE"
);
},
{
closed = 1;
nodes = (
"272 0 LINE",
"796 0 LINE",
"1028 1600 LINE",
"718 1600 LINE",
"600 798 LINE",
"582 264 LINE",
"234 264 LINE"
);
}
);
width = 1058;
},
{
layerId = "5013C991-8699-46CB-BB1C-82E334DBD38B";
paths = (
{
closed = 1;
nodes = (
"208 334 LINE",
"470 334 LINE",
"448 798 LINE",
"330 1600 LINE",
"20 1600 LINE"
);
},
{
closed = 1;
nodes = (
"262 0 LINE",
"746 0 LINE",
"978 1600 LINE",
"668 1600 LINE",
"550 798 LINE",
"532 264 LINE",
"224 264 LINE"
);
}
);
width = 998;
},
{
layerId = "3D06B89B-468F-44E0-A3D7-A5BC6911123E";
paths = (
{
closed = 1;
nodes = (
"205 80 LINE",
"245 80 LINE",
"193 660 LINE",
"109 1600 LINE",
"65 1600 LINE"
);
},
{
closed = 1;
nodes = (
"213 0 LINE",
"305 0 LINE",
"453 1600 LINE",
"409 1600 LINE",
"325 660 LINE",
"271 40 LINE",
"209 40 LINE"
);
}
);
width = 518;
},
{
layerId = "EB6D3A46-95FC-4F29-8169-EF2A3FEDBD5C";
paths = (
{
closed = 1;
nodes = (
"208 196 LINE",
"336 196 LINE",
"284 694 LINE",
"200 1600 LINE",
"60 1600 LINE"
);
},
{
closed = 1;
nodes = (
"230 0 LINE",
"520 0 LINE",
"688 1600 LINE",
"548 1600 LINE",
"470 694 LINE",
"412 124 LINE",
"214 124 LINE"
);
}
);
width = 748;
},
{
layerId = "C388322D-F001-4130-A10A-708FB59AF746";
paths = (
{
closed = 1;
nodes = (
"202 162 LINE",
"296 162 LINE",
"246 694 LINE",
"166 1600 LINE",
"56 1600 LINE"
);
},
{
closed = 1;
nodes = (
"224 0 LINE",
"414 0 LINE",
"584 1600 LINE",
"472 1600 LINE",
"394 694 LINE",
"336 96 LINE",
"212 96 LINE"
);
}
);
width = 638;
}
);
leftKerningGroup = V;
rightKerningGroup = V;
unicode = 0056;
},
{
glyphname = W;
layers = (
{
anchors = (
{
name = bottom;
position = "{528, 0}";
},
{
name = top;
position = "{528, 1600}";
}
);
layerId = "3B122060-26E0-4730-9241-82784E6CB359";
paths = (
{
closed = 1;
nodes = (
"884 0 LINE",
"888 76 LINE",
"744 76 LINE",
"672 1070 LINE",
"636 1590 LINE",
"422 1590 LINE",
"384 1070 LINE",
"322 138 LINE",
"398 138 LINE",
"426 568 LINE",
"496 1514 LINE",
"564 1514 LINE",
"632 568 LINE",
"672 0 LINE"
);
},
{
closed = 1;
nodes = (
"386 0 LINE",
"391 76 LINE",
"246 76 LINE",
"196 1070 LINE",
"170 1600 LINE",
"90 1600 LINE",
"174 0 LINE"
);
},
{
closed = 1;
nodes = (
"890 138 LINE",
"972 1600 LINE",
"892 1600 LINE",
"866 1070 LINE",
"814 138 LINE"
);
}
);
width = 1062;
},
{
anchors = (
{
name = bottom;
position = "{806, 0}";
},
{
name = top;
position = "{806, 1600}";
}
);
background = {
paths = (
{
closed = 1;
nodes = (
"712 0 LINE",
"784 562 LINE",
"802 1292 LINE",
"852 1292 LINE",
"870 562 LINE",
"942 0 LINE",
"1464 0 LINE",
"1580 1600 LINE",
"1254 1600 LINE",
"1228 1144 LINE",
"1222 264 LINE",
"1162 264 LINE",
"1142 1144 LINE",
"1082 1590 LINE",
"572 1590 LINE",
"512 1144 LINE",
"500 264 LINE",
"440 264 LINE",
"426 1144 LINE",
"400 1600 LINE",
"74 1600 LINE",
"190 0 LINE"
);
}
);
};
layerId = "1DFA7D5B-2E97-4B89-827F-FB43F8066DC1";
paths = (
{
closed = 1;
nodes = (
"1550 0 LINE",
"1576 264 LINE",
"1224 264 LINE",
"1228 868 LINE",
"1088 1590 LINE",
"664 1590 LINE",
"524 868 LINE",
"528 356 LINE",
"790 356 LINE",
"806 446 LINE",
"830 1336 LINE",
"922 1336 LINE",
"946 446 LINE",
"1020 0 LINE"
);
},
{
closed = 1;
nodes = (
"722 0 LINE",
"766 264 LINE",
"424 264 LINE",
"394 868 LINE",
"342 1600 LINE",
"40 1600 LINE",
"192 0 LINE"
);
},
{
closed = 1;
nodes = (
"1584 356 LINE",
"1712 1600 LINE",
"1410 1600 LINE",
"1358 868 LINE",
"1326 356 LINE"
);
}
);
width = 1752;
},
{
anchors = (
{
name = bottom;
position = "{800, 0}";
},
{
name = top;
position = "{800, 1600}";
}
);
background = {
paths = (
{
closed = 1;
nodes = (
"706 0 LINE",
"778 562 LINE",
"796 1292 LINE",
"846 1292 LINE",
"864 562 LINE",
"936 0 LINE",
"1458 0 LINE",
"1574 1600 LINE",
"1248 1600 LINE",
"1222 1144 LINE",
"1216 264 LINE",
"1156 264 LINE",
"1136 1144 LINE",
"1076 1590 LINE",
"566 1590 LINE",
"506 1144 LINE",
"494 264 LINE",
"434 264 LINE",
"420 1144 LINE",
"394 1600 LINE",
"68 1600 LINE",
"184 0 LINE"
);
}
);
};
layerId = "5013C991-8699-46CB-BB1C-82E334DBD38B";
paths = (
{
closed = 1;
nodes = (
"1426 0 LINE",
"1452 264 LINE",
"1140 264 LINE",
"1144 868 LINE",
"1004 1590 LINE",
"620 1590 LINE",
"480 868 LINE",
"472 334 LINE",
"744 334 LINE",
"762 446 LINE",
"786 1336 LINE",
"838 1336 LINE",
"862 446 LINE",
"936 0 LINE"
);
},
{
closed = 1;
nodes = (
"676 0 LINE",
"720 264 LINE",
"418 264 LINE",
"388 868 LINE",
"336 1600 LINE",
"34 1600 LINE",
"186 0 LINE"
);
},
{
closed = 1;
nodes = (
"1460 334 LINE",
"1586 1600 LINE",
"1284 1600 LINE",
"1232 868 LINE",
"1198 334 LINE"
);
}
);
width = 1620;
},
{
anchors = (
{
name = bottom;
position = "{392, 0}";
},
{
name = top;
position = "{392, 1600}";
}
);
layerId = "3D06B89B-468F-44E0-A3D7-A5BC6911123E";
paths = (
{
closed = 1;
nodes = (
"604 0 LINE",
"606 40 LINE",
"546 40 LINE",
"472 1070 LINE",
"436 1590 LINE",
"342 1590 LINE",
"304 1070 LINE",
"236 80 LINE",
"272 80 LINE",
"306 568 LINE",
"378 1550 LINE",
"402 1550 LINE",
"472 568 LINE",
"512 0 LINE"
);
},
{
closed = 1;
nodes = (
"266 0 LINE",
"269 40 LINE",
"208 40 LINE",
"156 1070 LINE",
"130 1600 LINE",
"90 1600 LINE",
"174 0 LINE"
);
},
{
closed = 1;
nodes = (
"608 80 LINE",
"692 1600 LINE",
"652 1600 LINE",
"626 1070 LINE",
"572 80 LINE"
);
}
);
width = 782;
},
{
anchors = (
{
name = bottom;
position = "{595, 0}";
},
{
name = top;
position = "{595, 1600}";
}
);
layerId = "EB6D3A46-95FC-4F29-8169-EF2A3FEDBD5C";
paths = (
{
closed = 1;
nodes = (
"1045 0 LINE",
"1053 124 LINE",
"867 124 LINE",
"801 1020 LINE",
"759 1590 LINE",
"457 1590 LINE",
"419 1020 LINE",
"365 196 LINE",
"485 196 LINE",
"515 538 LINE",
"573 1470 LINE",
"647 1470 LINE",
"713 538 LINE",
"753 0 LINE"
);
},
{
closed = 1;
nodes = (
"469 0 LINE",
"481 124 LINE",
"287 124 LINE",
"243 1020 LINE",
"209 1600 LINE",
"75 1600 LINE",
"175 0 LINE"
);
},
{
closed = 1;
nodes = (
"1059 196 LINE",
"1149 1600 LINE",
"1013 1600 LINE",
"981 1020 LINE",
"939 196 LINE"
);
}
);
width = 1224;
},
{
anchors = (
{
name = bottom;
position = "{506, 0}";
},
{
name = top;
position = "{506, 1600}";
}
);
layerId = "C388322D-F001-4130-A10A-708FB59AF746";
paths = (
{
closed = 1;
nodes = (
"834 0 LINE",
"842 96 LINE",
"720 96 LINE",
"652 1020 LINE",
"618 1590 LINE",
"402 1590 LINE",
"366 1020 LINE",
"306 168 LINE",
"404 168 LINE",
"434 538 LINE",
"494 1496 LINE",
"524 1496 LINE",
"584 538 LINE",
"618 0 LINE"
);
},
{
closed = 1;
nodes = (
"390 0 LINE",
"398 96 LINE",
"254 96 LINE",
"208 1020 LINE",
"176 1600 LINE",
"70 1600 LINE",
"172 0 LINE"
);
},
{
closed = 1;
nodes = (
"854 168 LINE",
"942 1600 LINE",
"838 1600 LINE",
"808 1020 LINE",
"764 168 LINE"
);
}
);
width = 1012;
}
);
leftKerningGroup = W;
rightKerningGroup = W;
unicode = 0057;
},
{
glyphname = X;
layers = (
{
background = {
paths = (
{
closed = 1;
nodes = (
"144 0 LINE",
"206 386 LINE",
"270 800 LINE",
"294 800 LINE",
"362 396 LINE",
"424 0 LINE",
"468 0 LINE",
"326 848 LINE",
"326 798 LINE",
"458 1600 LINE",
"414 1600 LINE",
"364 1272 LINE",
"294 846 LINE",
"270 846 LINE",
"204 1266 LINE",
"154 1600 LINE",
"110 1600 LINE",
"238 798 LINE",
"238 848 LINE",
"100 0 LINE"
);
}
);
};
layerId = "3B122060-26E0-4730-9241-82784E6CB359";
paths = (
{
closed = 1;
nodes = (
"138 0 LINE",
"218 396 LINE",
"284 704 LINE",
"212 704 LINE",
"60 0 LINE"
);
},
{
closed = 1;
nodes = (
"222 766 LINE",
"340 766 LINE",
"412 396 LINE",
"486 0 LINE",
"564 0 LINE",
"404 842 LINE",
"284 842 LINE",
"216 1220 LINE",
"148 1600 LINE",
"70 1600 LINE"
);
},
{
closed = 1;
nodes = (
"418 904 LINE",
"554 1600 LINE",
"476 1600 LINE",
"402 1220 LINE",
"342 904 LINE"
);
}
);
width = 624;
},
{
background = {
paths = (
{
closed = 1;
nodes = (
"320 0 LINE",
"414 394 LINE",
"442 702 LINE",
"496 702 LINE",
"528 394 LINE",
"624 0 LINE",
"926 0 LINE",
"688 896 LINE",
"682 726 LINE",
"918 1600 LINE",
"606 1600 LINE",
"530 1228 LINE",
"502 926 LINE",
"446 926 LINE",
"416 1228 LINE",
"340 1600 LINE",
"28 1600 LINE",
"264 786 LINE",
"254 932 LINE",
"14 0 LINE"
);
}
);
};
guideLines = (
{
position = "{152, 405}";
},
{
angle = 90;
position = "{152, 405}";
}
);
layerId = "1DFA7D5B-2E97-4B89-827F-FB43F8066DC1";
paths = (
{
closed = 1;
nodes = (
"308 0 LINE",
"418 394 LINE",
"432 596 LINE",
"212 596 LINE",
"14 0 LINE"
);
},
{
closed = 1;
nodes = (
"312 688 LINE",
"524 688 LINE",
"550 394 LINE",
"656 0 LINE",
"950 0 LINE",
"672 952 LINE",
"444 952 LINE",
"418 1226 LINE",
"314 1600 LINE",
"20 1600 LINE"
);
},
{
closed = 1;
nodes = (
"768 1044 LINE",
"944 1600 LINE",
"650 1600 LINE",
"550 1226 LINE",
"536 1044 LINE"
);
}
);
width = 964;
},
{
background = {
paths = (
{
closed = 1;
nodes = (
"309 0 LINE",
"403 394 LINE",
"431 702 LINE",
"485 702 LINE",
"517 394 LINE",
"613 0 LINE",
"915 0 LINE",
"677 896 LINE",
"671 726 LINE",
"907 1600 LINE",
"595 1600 LINE",
"519 1228 LINE",
"491 926 LINE",
"435 926 LINE",
"405 1228 LINE",
"329 1600 LINE",
"17 1600 LINE",
"253 786 LINE",
"243 932 LINE",
"3 0 LINE"
);
}
);
};
guideLines = (
{
position = "{151, 405}";
},
{
angle = 90;
position = "{151, 405}";
}
);
layerId = "5013C991-8699-46CB-BB1C-82E334DBD38B";
paths = (
{
closed = 1;
nodes = (
"317 0 LINE",
"427 394 LINE",
"445 618 LINE",
"215 618 LINE",
"23 0 LINE"
);
},
{
closed = 1;
nodes = (
"339 688 LINE",
"513 688 LINE",
"539 394 LINE",
"645 0 LINE",
"939 0 LINE",
"663 952 LINE",
"473 952 LINE",
"447 1226 LINE",
"343 1600 LINE",
"49 1600 LINE"
);
},
{
closed = 1;
nodes = (
"785 1022 LINE",
"953 1600 LINE",
"659 1600 LINE",
"559 1226 LINE",
"543 1022 LINE"
);
}
);
width = 976;
},
{
background = {
paths = (
{
closed = 1;
nodes = (
"66 0 LINE",
"128 386 LINE",
"192 800 LINE",
"216 800 LINE",
"284 396 LINE",
"346 0 LINE",
"390 0 LINE",
"248 848 LINE",
"248 798 LINE",
"380 1600 LINE",
"336 1600 LINE",
"286 1272 LINE",
"216 846 LINE",
"192 846 LINE",
"126 1266 LINE",
"76 1600 LINE",
"32 1600 LINE",
"160 798 LINE",
"160 848 LINE",
"22 0 LINE"
);
}
);
};
layerId = "3D06B89B-468F-44E0-A3D7-A5BC6911123E";
paths = (
{
closed = 1;
nodes = (
"80 0 LINE",
"154 396 LINE",
"218 744 LINE",
"186 744 LINE",
"42 0 LINE"
);
},
{
closed = 1;
nodes = (
"200 784 LINE",
"240 784 LINE",
"314 396 LINE",
"388 0 LINE",
"426 0 LINE",
"268 824 LINE",
"228 824 LINE",
"158 1220 LINE",
"90 1600 LINE",
"52 1600 LINE"
);
},
{
closed = 1;
nodes = (
"284 864 LINE",
"416 1600 LINE",
"378 1600 LINE",
"310 1220 LINE",
"250 864 LINE"
);
}
);
width = 468;
},
{
layerId = "EB6D3A46-95FC-4F29-8169-EF2A3FEDBD5C";
paths = (
{
closed = 1;
nodes = (
"177 0 LINE",
"265 396 LINE",
"318 677 LINE",
"209 677 LINE",
"45 0 LINE"
);
},
{
closed = 1;
nodes = (
"241 747 LINE",
"383 747 LINE",
"443 396 LINE",
"525 0 LINE",
"657 0 LINE",
"468 870 LINE",
"321 870 LINE",
"263 1222 LINE",
"186 1600 LINE",
"54 1600 LINE"
);
},
{
closed = 1;
nodes = (
"502 939 LINE",
"648 1600 LINE",
"516 1600 LINE",
"436 1222 LINE",
"387 939 LINE"
);
}
);
width = 702;
},
{
layerId = "C388322D-F001-4130-A10A-708FB59AF746";
paths = (
{
closed = 1;
nodes = (
"152 0 LINE",
"235 396 LINE",
"288 713 LINE",
"206 713 LINE",
"50 0 LINE"
);
},
{
closed = 1;
nodes = (
"248 760 LINE",
"321 760 LINE",
"383 396 LINE",
"465 0 LINE",
"567 0 LINE",
"380 856 LINE",
"302 856 LINE",
"243 1222 LINE",
"166 1600 LINE",
"64 1600 LINE"
);
},
{
closed = 1;
nodes = (
"422 904 LINE",
"563 1600 LINE",
"461 1600 LINE",
"385 1222 LINE",
"336 904 LINE"
);
}
);
width = 617;
}
);
leftKerningGroup = X;
rightKerningGroup = X;
unicode = 0058;
},
{
glyphname = Y;
layers = (
{
anchors = (
{
name = bottom;
position = "{314, 0}";
},
{
name = top;
position = "{314, 1600}";
},
{
name = topleft;
position = "{80, 1600}";
}
);
layerId = "3B122060-26E0-4730-9241-82784E6CB359";
paths = (
{
closed = 1;
nodes = (
"354 0 LINE",
"354 580 LINE",
"416 580 LINE",
"428 662 LINE",
"282 662 LINE",
"216 1112 LINE",
"144 1600 LINE",
"60 1600 LINE",
"212 580 LINE",
"274 580 LINE",
"274 0 LINE"
);
},
{
closed = 1;
nodes = (
"440 724 LINE",
"572 1600 LINE",
"488 1600 LINE",
"416 1112 LINE",
"358 724 LINE"
);
}
);
width = 632;
},
{
anchors = (
{
name = bottom;
position = "{466, 0}";
},
{
name = top;
position = "{466, 1600}";
},
{
name = topleft;
position = "{14, 1600}";
}
);
layerId = "1DFA7D5B-2E97-4B89-827F-FB43F8066DC1";
paths = (
{
closed = 1;
nodes = (
"614 0 LINE",
"614 510 LINE",
"644 510 LINE",
"701 742 LINE",
"436 742 LINE",
"406 1212 LINE",
"320 1600 LINE",
"14 1600 LINE",
"282 510 LINE",
"314 510 LINE",
"314 0 LINE"
);
},
{
closed = 1;
nodes = (
"740 834 LINE",
"954 1600 LINE",
"648 1600 LINE",
"562 1212 LINE",
"540 834 LINE"
);
}
);
width = 968;
},
{
anchors = (
{
name = bottom;
position = "{467, 0}";
},
{
name = top;
position = "{455, 1600}";
},
{
name = topleft;
position = "{15, 1600}";
}
);
layerId = "5013C991-8699-46CB-BB1C-82E334DBD38B";
paths = (
{
closed = 1;
nodes = (
"615 0 LINE",
"615 382 LINE",
"615 384 LINE",
"703 742 LINE",
"437 742 LINE",
"407 1212 LINE",
"321 1600 LINE",
"15 1600 LINE",
"315 384 LINE",
"315 382 LINE",
"315 0 LINE"
);
},
{
closed = 1;
nodes = (
"727 812 LINE",
"927 1600 LINE",
"621 1600 LINE",
"535 1212 LINE",
"499 812 LINE"
);
}
);
width = 942;
},
{
anchors = (
{
name = bottom;
position = "{244, 0}";
},
{
name = top;
position = "{244, 1600}";
},
{
name = topleft;
position = "{50, 1600}";
}
);
layerId = "3D06B89B-468F-44E0-A3D7-A5BC6911123E";
paths = (
{
closed = 1;
nodes = (
"264 0 LINE",
"264 438 LINE",
"264 440 LINE",
"297 662 LINE",
"230 662 LINE",
"164 1112 LINE",
"92 1600 LINE",
"50 1600 LINE",
"224 440 LINE",
"224 438 LINE",
"224 0 LINE"
);
},
{
closed = 1;
nodes = (
"308 702 LINE",
"442 1600 LINE",
"402 1600 LINE",
"330 1112 LINE",
"270 702 LINE"
);
}
);
width = 492;
},
{
anchors = (
{
name = bottom;
position = "{349, 0}";
},
{
name = top;
position = "{349, 1600}";
},
{
name = topleft;
position = "{61, 1600}";
}
);
layerId = "EB6D3A46-95FC-4F29-8169-EF2A3FEDBD5C";
paths = (
{
closed = 1;
nodes = (
"415 0 LINE",
"415 562 LINE",
"469 562 LINE",
"493 682 LINE",
"325 682 LINE",
"253 1138 LINE",
"185 1600 LINE",
"45 1600 LINE",
"227 562 LINE",
"281 562 LINE",
"281 0 LINE"
);
},
{
closed = 1;
nodes = (
"507 754 LINE",
"651 1600 LINE",
"511 1600 LINE",
"445 1138 LINE",
"387 754 LINE"
);
}
);
width = 696;
},
{
anchors = (
{
name = bottom;
position = "{303, 0}";
},
{
name = top;
position = "{299, 1600}";
},
{
name = topleft;
position = "{45, 1600}";
}
);
layerId = "C388322D-F001-4130-A10A-708FB59AF746";
paths = (
{
closed = 1;
nodes = (
"355 0 LINE",
"355 424 LINE",
"355 426 LINE",
"401 682 LINE",
"297 682 LINE",
"223 1138 LINE",
"153 1600 LINE",
"45 1600 LINE",
"249 426 LINE",
"249 424 LINE",
"249 0 LINE"
);
},
{
closed = 1;
nodes = (
"429 746 LINE",
"581 1600 LINE",
"471 1600 LINE",
"401 1138 LINE",
"341 748 LINE"
);
}
);
width = 626;
}
);
leftKerningGroup = Y;
rightKerningGroup = Y;
unicode = 0059;
},
{
glyphname = Z;
layers = (
{
anchors = (
{
name = bottom;
position = "{250, 0}";
},
{
name = center;
position = "{250, 800}";
},
{
name = top;
position = "{276, 1600}";
}
);
layerId = "3B122060-26E0-4730-9241-82784E6CB359";
paths = (
{
closed = 1;
nodes = (
"448 0 LINE",
"448 76 LINE",
"50 76 LINE",
"50 0 LINE"
);
},
{
closed = 1;
nodes = (
"488 1524 LINE",
"488 1600 LINE",
"72 1600 LINE",
"72 1524 LINE"
);
},
{
closed = 1;
nodes = (
"152 138 LINE",
"468 1462 LINE",
"386 1462 LINE",
"70 138 LINE"
);
}
);
width = 538;
},
{
anchors = (
{
name = bottom;
position = "{408, 0}";
},
{
name = center;
position = "{408, 800}";
},
{
name = top;
position = "{440, 1600}";
}
);
layerId = "1DFA7D5B-2E97-4B89-827F-FB43F8066DC1";
paths = (
{
closed = 1;
nodes = (
"806 0 LINE",
"806 264 LINE",
"30 264 LINE",
"30 0 LINE"
);
},
{
closed = 1;
nodes = (
"836 1336 LINE",
"836 1600 LINE",
"54 1600 LINE",
"54 1336 LINE"
);
},
{
closed = 1;
nodes = (
"376 356 LINE",
"790 1244 LINE",
"476 1244 LINE",
"76 356 LINE"
);
}
);
width = 866;
},
{
anchors = (
{
name = bottom;
position = "{413, 0}";
},
{
name = center;
position = "{413, 800}";
},
{
name = top;
position = "{413, 1600}";
}
);
layerId = "5013C991-8699-46CB-BB1C-82E334DBD38B";
paths = (
{
closed = 1;
nodes = (
"771 0 LINE",
"771 264 LINE",
"35 264 LINE",
"35 0 LINE"
);
},
{
closed = 1;
nodes = (
"801 1336 LINE",
"801 1600 LINE",
"59 1600 LINE",
"59 1336 LINE"
);
},
{
closed = 1;
nodes = (
"369 334 LINE",
"765 1266 LINE",
"449 1266 LINE",
"71 334 LINE"
);
}
);
width = 836;
},
{
anchors = (
{
name = bottom;
position = "{240, 0}";
},
{
name = center;
position = "{240, 800}";
},
{
name = top;
position = "{240, 1600}";
}
);
layerId = "3D06B89B-468F-44E0-A3D7-A5BC6911123E";
paths = (
{
closed = 1;
nodes = (
"398 0 LINE",
"398 40 LINE",
"40 40 LINE",
"40 0 LINE"
);
},
{
closed = 1;
nodes = (
"438 1560 LINE",
"438 1600 LINE",
"62 1600 LINE",
"62 1560 LINE"
);
},
{
closed = 1;
nodes = (
"98 80 LINE",
"422 1520 LINE",
"378 1520 LINE",
"56 80 LINE"
);
}
);
width = 478;
},
{
anchors = (
{
name = bottom;
position = "{282, 0}";
},
{
name = center;
position = "{282, 800}";
},
{
name = top;
position = "{309, 1600}";
}
);
layerId = "EB6D3A46-95FC-4F29-8169-EF2A3FEDBD5C";
paths = (
{
closed = 1;
nodes = (
"530 0 LINE",
"530 123 LINE",
"37 123 LINE",
"37 0 LINE"
);
},
{
closed = 1;
nodes = (
"567 1477 LINE",
"567 1600 LINE",
"60 1600 LINE",
"60 1477 LINE"
);
},
{
closed = 1;
nodes = (
"200 193 LINE",
"541 1408 LINE",
"401 1408 LINE",
"64 193 LINE"
);
}
);
width = 604;
},
{
anchors = (
{
name = bottom;
position = "{277, 0}";
},
{
name = center;
position = "{277, 800}";
},
{
name = top;
position = "{277, 1600}";
}
);
layerId = "C388322D-F001-4130-A10A-708FB59AF746";
paths = (
{
closed = 1;
nodes = (
"485 0 LINE",
"485 96 LINE",
"32 96 LINE",
"32 0 LINE"
);
},
{
closed = 1;
nodes = (
"522 1504 LINE",
"522 1600 LINE",
"55 1600 LINE",
"55 1504 LINE"
);
},
{
closed = 1;
nodes = (
"159 144 LINE",
"501 1457 LINE",
"389 1457 LINE",
"53 144 LINE"
);
}
);
width = 557;
}
);
leftKerningGroup = Z;
rightKerningGroup = Z;
unicode = 005A;
},
{
glyphname = R.ss01;
layers = (
{
anchors = (
{
name = bottom;
position = "{350, 0}";
},
{
name = top;
position = "{330, 1600}";
}
);
layerId = "3B122060-26E0-4730-9241-82784E6CB359";
paths = (
{
closed = 1;
nodes = (
"220 0 LINE",
"220 1600 LINE",
"140 1600 LINE",
"140 0 LINE"
);
},
{
closed = 1;
nodes = (
"558 0 LINE",
"560 230 OFFCURVE",
"558 398 OFFCURVE",
"556 588 CURVE SMOOTH",
"554 690 OFFCURVE",
"516 740 OFFCURVE",
"430 752 CURVE",
"430 760 LINE",
"512 774 OFFCURVE",
"548 824 OFFCURVE",
"552 924 CURVE SMOOTH",
"558 1066 OFFCURVE",
"558 1206 OFFCURVE",
"552 1414 CURVE SMOOTH",
"548 1546 OFFCURVE",
"482 1600 OFFCURVE",
"320 1600 CURVE SMOOTH",
"312 1600 LINE",
"312 1520 LINE",
"320 1520 LINE SMOOTH",
"436 1520 OFFCURVE",
"468 1498 OFFCURVE",
"472 1414 CURVE SMOOTH",
"478 1238 OFFCURVE",
"478 1096 OFFCURVE",
"472 920 CURVE SMOOTH",
"468 820 OFFCURVE",
"438 792 OFFCURVE",
"338 792 CURVE SMOOTH",
"312 792 LINE",
"312 716 LINE",
"344 716 LINE SMOOTH",
"446 716 OFFCURVE",
"474 688 OFFCURVE",
"476 588 CURVE SMOOTH",
"480 400 OFFCURVE",
"480 232 OFFCURVE",
"478 0 CURVE"
);
}
);
width = 698;
},
{
anchors = (
{
name = bottom;
position = "{508, 0}";
},
{
name = top;
position = "{492, 1600}";
}
);
background = {
paths = (
{
closed = 1;
nodes = (
"530 1310 OFFCURVE",
"576 1270 OFFCURVE",
"576 1200 CURVE SMOOTH",
"576 1010 LINE SMOOTH",
"576 926 OFFCURVE",
"530 880 OFFCURVE",
"446 880 CURVE SMOOTH",
"266 880 LINE",
"266 726 LINE",
"446 728 LINE SMOOTH",
"746 732 OFFCURVE",
"868 822 OFFCURVE",
"876 1066 CURVE SMOOTH",
"878 1124 OFFCURVE",
"878 1150 OFFCURVE",
"876 1210 CURVE SMOOTH",
"866 1488 OFFCURVE",
"742 1600 OFFCURVE",
"446 1600 CURVE SMOOTH",
"274 1600 LINE",
"274 1310 LINE",
"446 1310 LINE SMOOTH"
);
},
{
closed = 1;
nodes = (
"360 0 LINE",
"360 1600 LINE",
"60 1600 LINE",
"60 0 LINE"
);
},
{
closed = 1;
nodes = (
"924 18 LINE",
"898 54 OFFCURVE",
"876 130 OFFCURVE",
"874 176 CURVE SMOOTH",
"868 430 LINE SMOOTH",
"862 686 OFFCURVE",
"744 788 OFFCURVE",
"454 788 CURVE SMOOTH",
"266 788 LINE",
"266 620 LINE",
"442 620 LINE SMOOTH",
"524 620 OFFCURVE",
"566 568 OFFCURVE",
"568 476 CURVE SMOOTH",
"574 176 LINE SMOOTH",
"576 106 OFFCURVE",
"602 44 OFFCURVE",
"646 0 CURVE",
"924 0 LINE"
);
},
{
closed = 1;
nodes = (
"614 734 LINE",
"678 734 LINE",
"678 782 LINE",
"614 782 LINE"
);
}
);
};
layerId = "1DFA7D5B-2E97-4B89-827F-FB43F8066DC1";
paths = (
{
closed = 1;
nodes = (
"380 0 LINE",
"380 1600 LINE",
"80 1600 LINE",
"80 0 LINE"
);
},
{
closed = 1;
nodes = (
"950 0 LINE",
"952 138 OFFCURVE",
"948 290 OFFCURVE",
"942 428 CURVE SMOOTH",
"934 592 OFFCURVE",
"872 678 OFFCURVE",
"726 714 CURVE",
"726 760 LINE",
"874 798 OFFCURVE",
"938 886 OFFCURVE",
"944 1044 CURVE SMOOTH",
"946 1102 OFFCURVE",
"946 1150 OFFCURVE",
"944 1210 CURVE SMOOTH",
"934 1488 OFFCURVE",
"812 1600 OFFCURVE",
"514 1600 CURVE SMOOTH",
"512 1600 LINE",
"512 1336 LINE",
"514 1336 LINE SMOOTH",
"598 1336 OFFCURVE",
"644 1296 OFFCURVE",
"644 1226 CURVE SMOOTH",
"644 1154 OFFCURVE",
"644 1082 OFFCURVE",
"644 1010 CURVE SMOOTH",
"644 926 OFFCURVE",
"598 880 OFFCURVE",
"514 880 CURVE SMOOTH",
"512 880 LINE",
"512 614 LINE",
"514 614 LINE SMOOTH",
"596 614 OFFCURVE",
"638 562 OFFCURVE",
"642 470 CURVE SMOOTH",
"648 322 OFFCURVE",
"652 148 OFFCURVE",
"650 0 CURVE"
);
}
);
width = 1030;
},
{
anchors = (
{
name = bottom;
position = "{512, 0}";
},
{
name = top;
position = "{472, 1600}";
}
);
background = {
paths = (
{
closed = 1;
nodes = (
"530 1310 OFFCURVE",
"576 1270 OFFCURVE",
"576 1200 CURVE SMOOTH",
"576 1010 LINE SMOOTH",
"576 926 OFFCURVE",
"530 880 OFFCURVE",
"446 880 CURVE SMOOTH",
"266 880 LINE",
"266 726 LINE",
"446 728 LINE SMOOTH",
"746 732 OFFCURVE",
"868 822 OFFCURVE",
"876 1066 CURVE SMOOTH",
"878 1124 OFFCURVE",
"878 1150 OFFCURVE",
"876 1210 CURVE SMOOTH",
"866 1488 OFFCURVE",
"742 1600 OFFCURVE",
"446 1600 CURVE SMOOTH",
"274 1600 LINE",
"274 1310 LINE",
"446 1310 LINE SMOOTH"
);
},
{
closed = 1;
nodes = (
"360 0 LINE",
"360 1600 LINE",
"60 1600 LINE",
"60 0 LINE"
);
},
{
closed = 1;
nodes = (
"924 18 LINE",
"898 54 OFFCURVE",
"876 130 OFFCURVE",
"874 176 CURVE SMOOTH",
"868 430 LINE SMOOTH",
"862 686 OFFCURVE",
"744 788 OFFCURVE",
"454 788 CURVE SMOOTH",
"266 788 LINE",
"266 620 LINE",
"442 620 LINE SMOOTH",
"524 620 OFFCURVE",
"566 568 OFFCURVE",
"568 476 CURVE SMOOTH",
"574 176 LINE SMOOTH",
"576 106 OFFCURVE",
"602 44 OFFCURVE",
"646 0 CURVE",
"924 0 LINE"
);
},
{
closed = 1;
nodes = (
"614 734 LINE",
"678 734 LINE",
"678 782 LINE",
"614 782 LINE"
);
}
);
};
layerId = "5013C991-8699-46CB-BB1C-82E334DBD38B";
paths = (
{
closed = 1;
nodes = (
"380 0 LINE",
"380 1600 LINE",
"80 1600 LINE",
"80 0 LINE"
);
},
{
closed = 1;
nodes = (
"922 0 LINE",
"924 138 OFFCURVE",
"920 290 OFFCURVE",
"914 428 CURVE SMOOTH",
"906 592 OFFCURVE",
"844 678 OFFCURVE",
"698 714 CURVE",
"698 760 LINE",
"846 798 OFFCURVE",
"910 886 OFFCURVE",
"916 1044 CURVE SMOOTH",
"918 1102 OFFCURVE",
"918 1150 OFFCURVE",
"916 1210 CURVE SMOOTH",
"906 1488 OFFCURVE",
"784 1600 OFFCURVE",
"486 1600 CURVE SMOOTH",
"480 1600 LINE",
"480 1336 LINE",
"486 1336 LINE SMOOTH",
"570 1336 OFFCURVE",
"616 1296 OFFCURVE",
"616 1226 CURVE SMOOTH",
"616 1154 OFFCURVE",
"616 1082 OFFCURVE",
"616 1010 CURVE SMOOTH",
"616 926 OFFCURVE",
"570 880 OFFCURVE",
"486 880 CURVE SMOOTH",
"480 880 LINE",
"480 614 LINE",
"482 614 LINE SMOOTH",
"564 614 OFFCURVE",
"610 562 OFFCURVE",
"614 470 CURVE SMOOTH",
"620 322 OFFCURVE",
"624 148 OFFCURVE",
"622 0 CURVE"
);
}
);
width = 1002;
},
{
anchors = (
{
name = bottom;
position = "{294, 0}";
},
{
name = top;
position = "{280, 1600}";
}
);
layerId = "3D06B89B-468F-44E0-A3D7-A5BC6911123E";
paths = (
{
closed = 1;
nodes = (
"160 0 LINE",
"160 1600 LINE",
"120 1600 LINE",
"120 0 LINE"
);
},
{
closed = 1;
nodes = (
"458 0 LINE",
"460 138 OFFCURVE",
"458 306 OFFCURVE",
"456 588 CURVE SMOOTH",
"454 676 OFFCURVE",
"428 722 OFFCURVE",
"370 742 CURVE",
"370 770 LINE",
"424 790 OFFCURVE",
"450 838 OFFCURVE",
"452 924 CURVE SMOOTH",
"458 1066 OFFCURVE",
"458 1206 OFFCURVE",
"452 1414 CURVE SMOOTH",
"448 1546 OFFCURVE",
"398 1600 OFFCURVE",
"280 1600 CURVE SMOOTH",
"240 1600 LINE",
"240 1560 LINE",
"280 1560 LINE SMOOTH",
"370 1560 OFFCURVE",
"408 1518 OFFCURVE",
"412 1414 CURVE SMOOTH",
"418 1238 OFFCURVE",
"418 1096 OFFCURVE",
"412 920 CURVE SMOOTH",
"408 816 OFFCURVE",
"370 774 OFFCURVE",
"278 774 CURVE SMOOTH",
"240 774 LINE",
"240 734 LINE",
"284 734 LINE SMOOTH",
"376 734 OFFCURVE",
"414 692 OFFCURVE",
"416 588 CURVE SMOOTH",
"420 400 OFFCURVE",
"420 232 OFFCURVE",
"418 0 CURVE"
);
}
);
width = 578;
},
{
anchors = (
{
name = bottom;
position = "{390, 0}";
},
{
name = top;
position = "{371, 1600}";
}
);
layerId = "EB6D3A46-95FC-4F29-8169-EF2A3FEDBD5C";
paths = (
{
closed = 1;
nodes = (
"260 0 LINE",
"260 1600 LINE",
"125 1600 LINE",
"125 0 LINE"
);
},
{
closed = 1;
nodes = (
"656 0 LINE",
"658 207 OFFCURVE",
"656 371 OFFCURVE",
"653 548 CURVE SMOOTH",
"649 666 OFFCURVE",
"605 725 OFFCURVE",
"504 743 CURVE",
"504 760 LINE",
"603 780 OFFCURVE",
"646 840 OFFCURVE",
"650 954 CURVE SMOOTH",
"655 1075 OFFCURVE",
"655 1192 OFFCURVE",
"650 1363 CURVE SMOOTH",
"645 1532 OFFCURVE",
"565 1600 OFFCURVE",
"369 1600 CURVE SMOOTH",
"362 1600 LINE",
"362 1474 LINE",
"369 1474 LINE SMOOTH",
"477 1474 OFFCURVE",
"512 1448 OFFCURVE",
"515 1367 CURVE SMOOTH",
"520 1217 OFFCURVE",
"520 1093 OFFCURVE",
"515 943 CURVE SMOOTH",
"512 847 OFFCURVE",
"478 814 OFFCURVE",
"382 814 CURVE SMOOTH",
"362 814 LINE",
"362 691 LINE",
"387 691 LINE SMOOTH",
"484 691 OFFCURVE",
"515 657 OFFCURVE",
"518 559 CURVE SMOOTH",
"522 381 OFFCURVE",
"523 211 OFFCURVE",
"521 0 CURVE"
);
}
);
width = 781;
},
{
anchors = (
{
name = bottom;
position = "{349, 0}";
},
{
name = top;
position = "{328, 1600}";
}
);
layerId = "C388322D-F001-4130-A10A-708FB59AF746";
paths = (
{
closed = 1;
nodes = (
"215 0 LINE",
"215 1600 LINE",
"110 1600 LINE",
"110 0 LINE"
);
},
{
closed = 1;
nodes = (
"574 0 LINE",
"576 138 OFFCURVE",
"574 302 OFFCURVE",
"571 548 CURVE SMOOTH",
"567 655 OFFCURVE",
"532 711 OFFCURVE",
"452 735 CURVE",
"452 768 LINE",
"530 792 OFFCURVE",
"565 850 OFFCURVE",
"568 954 CURVE SMOOTH",
"573 1075 OFFCURVE",
"573 1192 OFFCURVE",
"568 1363 CURVE SMOOTH",
"563 1532 OFFCURVE",
"495 1600 OFFCURVE",
"332 1600 CURVE SMOOTH",
"300 1600 LINE",
"300 1504 LINE",
"332 1504 LINE SMOOTH",
"420 1504 OFFCURVE",
"460 1463 OFFCURVE",
"463 1367 CURVE SMOOTH",
"468 1217 OFFCURVE",
"468 1093 OFFCURVE",
"463 943 CURVE SMOOTH",
"460 844 OFFCURVE",
"420 801 OFFCURVE",
"330 801 CURVE SMOOTH",
"300 801 LINE",
"300 704 LINE",
"334 704 LINE SMOOTH",
"423 704 OFFCURVE",
"463 660 OFFCURVE",
"466 559 CURVE SMOOTH",
"470 381 OFFCURVE",
"471 211 OFFCURVE",
"469 0 CURVE"
);
}
);
width = 684;
}
);
leftKerningGroup = H;
rightKerningGroup = R;
},
